G04 #@! TF.GenerationSoftware,KiCad,Pcbnew,(5.0.2)-1*
G04 #@! TF.CreationDate,2019-04-14T20:35:09-04:00*
G04 #@! TF.ProjectId,final_project,66696e61-6c5f-4707-926f-6a6563742e6b,rev?*
G04 #@! TF.SameCoordinates,Original*
G04 #@! TF.FileFunction,Soldermask,Top*
G04 #@! TF.FilePolarity,Negative*
%FSLAX46Y46*%
G04 Gerber Fmt 4.6, Leading zero omitted, Abs format (unit mm)*
G04 Created by KiCad (PCBNEW (5.0.2)-1) date 4/14/2019 8:35:09 PM*
%MOMM*%
%LPD*%
G01*
G04 APERTURE LIST*
%ADD10C,0.100000*%
G04 APERTURE END LIST*
D10*
G36*
X191706565Y-131589389D02*
X191897834Y-131668615D01*
X192069976Y-131783637D01*
X192216363Y-131930024D01*
X192331385Y-132102166D01*
X192410611Y-132293435D01*
X192451000Y-132496484D01*
X192451000Y-132703516D01*
X192410611Y-132906565D01*
X192331385Y-133097834D01*
X192216363Y-133269976D01*
X192069976Y-133416363D01*
X191897834Y-133531385D01*
X191706565Y-133610611D01*
X191503516Y-133651000D01*
X191296484Y-133651000D01*
X191093435Y-133610611D01*
X190902166Y-133531385D01*
X190730024Y-133416363D01*
X190583637Y-133269976D01*
X190468615Y-133097834D01*
X190389389Y-132906565D01*
X190349000Y-132703516D01*
X190349000Y-132496484D01*
X190389389Y-132293435D01*
X190468615Y-132102166D01*
X190583637Y-131930024D01*
X190730024Y-131783637D01*
X190902166Y-131668615D01*
X191093435Y-131589389D01*
X191296484Y-131549000D01*
X191503516Y-131549000D01*
X191706565Y-131589389D01*
X191706565Y-131589389D01*
G37*
G36*
X177451000Y-132526000D02*
X174549000Y-132526000D01*
X174549000Y-131774000D01*
X177451000Y-131774000D01*
X177451000Y-132526000D01*
X177451000Y-132526000D01*
G37*
G36*
X179703591Y-130630585D02*
X179737569Y-130640893D01*
X179768887Y-130657633D01*
X179796339Y-130680161D01*
X179818867Y-130707613D01*
X179835607Y-130738931D01*
X179845915Y-130772909D01*
X179850000Y-130814390D01*
X179850000Y-131415610D01*
X179845915Y-131457091D01*
X179835607Y-131491069D01*
X179818867Y-131522387D01*
X179796339Y-131549839D01*
X179768887Y-131572367D01*
X179737569Y-131589107D01*
X179703591Y-131599415D01*
X179662110Y-131603500D01*
X178985890Y-131603500D01*
X178944409Y-131599415D01*
X178910431Y-131589107D01*
X178879113Y-131572367D01*
X178851661Y-131549839D01*
X178829133Y-131522387D01*
X178812393Y-131491069D01*
X178802085Y-131457091D01*
X178798000Y-131415610D01*
X178798000Y-130814390D01*
X178802085Y-130772909D01*
X178812393Y-130738931D01*
X178829133Y-130707613D01*
X178851661Y-130680161D01*
X178879113Y-130657633D01*
X178910431Y-130640893D01*
X178944409Y-130630585D01*
X178985890Y-130626500D01*
X179662110Y-130626500D01*
X179703591Y-130630585D01*
X179703591Y-130630585D01*
G37*
G36*
X153492466Y-130530065D02*
X153531137Y-130541796D01*
X153566779Y-130560848D01*
X153598017Y-130586483D01*
X153623652Y-130617721D01*
X153642704Y-130653363D01*
X153654435Y-130692034D01*
X153659000Y-130738388D01*
X153659000Y-131389612D01*
X153654435Y-131435966D01*
X153642704Y-131474637D01*
X153623652Y-131510279D01*
X153598017Y-131541517D01*
X153566779Y-131567152D01*
X153531137Y-131586204D01*
X153492466Y-131597935D01*
X153446112Y-131602500D01*
X152369888Y-131602500D01*
X152323534Y-131597935D01*
X152284863Y-131586204D01*
X152249221Y-131567152D01*
X152217983Y-131541517D01*
X152192348Y-131510279D01*
X152173296Y-131474637D01*
X152161565Y-131435966D01*
X152157000Y-131389612D01*
X152157000Y-130738388D01*
X152161565Y-130692034D01*
X152173296Y-130653363D01*
X152192348Y-130617721D01*
X152217983Y-130586483D01*
X152249221Y-130560848D01*
X152284863Y-130541796D01*
X152323534Y-130530065D01*
X152369888Y-130525500D01*
X153446112Y-130525500D01*
X153492466Y-130530065D01*
X153492466Y-130530065D01*
G37*
G36*
X177481000Y-131501000D02*
X174519000Y-131501000D01*
X174519000Y-129699000D01*
X177481000Y-129699000D01*
X177481000Y-131501000D01*
X177481000Y-131501000D01*
G37*
G36*
X146175591Y-130122585D02*
X146209569Y-130132893D01*
X146240887Y-130149633D01*
X146268339Y-130172161D01*
X146290867Y-130199613D01*
X146307607Y-130230931D01*
X146317915Y-130264909D01*
X146322000Y-130306390D01*
X146322000Y-130907610D01*
X146317915Y-130949091D01*
X146307607Y-130983069D01*
X146290867Y-131014387D01*
X146268339Y-131041839D01*
X146240887Y-131064367D01*
X146209569Y-131081107D01*
X146175591Y-131091415D01*
X146134110Y-131095500D01*
X145457890Y-131095500D01*
X145416409Y-131091415D01*
X145382431Y-131081107D01*
X145351113Y-131064367D01*
X145323661Y-131041839D01*
X145301133Y-131014387D01*
X145284393Y-130983069D01*
X145274085Y-130949091D01*
X145270000Y-130907610D01*
X145270000Y-130306390D01*
X145274085Y-130264909D01*
X145284393Y-130230931D01*
X145301133Y-130199613D01*
X145323661Y-130172161D01*
X145351113Y-130149633D01*
X145382431Y-130132893D01*
X145416409Y-130122585D01*
X145457890Y-130118500D01*
X146134110Y-130118500D01*
X146175591Y-130122585D01*
X146175591Y-130122585D01*
G37*
G36*
X126475382Y-128738287D02*
X126609404Y-128778943D01*
X126732918Y-128844962D01*
X126841186Y-128933814D01*
X126930038Y-129042082D01*
X126996057Y-129165596D01*
X127024891Y-129260649D01*
X127034268Y-129283288D01*
X127047882Y-129303662D01*
X127065209Y-129320989D01*
X127085584Y-129334603D01*
X127108223Y-129343981D01*
X127132256Y-129348761D01*
X127156760Y-129348761D01*
X127180794Y-129343980D01*
X127203433Y-129334603D01*
X127223802Y-129320993D01*
X127283739Y-129271804D01*
X127393358Y-129213211D01*
X127512302Y-129177130D01*
X127605002Y-129168000D01*
X128666998Y-129168000D01*
X128759698Y-129177130D01*
X128878642Y-129213211D01*
X128988261Y-129271804D01*
X129084343Y-129350657D01*
X129163196Y-129446739D01*
X129221789Y-129556358D01*
X129257870Y-129675302D01*
X129270053Y-129799000D01*
X129257870Y-129922698D01*
X129221789Y-130041642D01*
X129163196Y-130151261D01*
X129084343Y-130247343D01*
X128988261Y-130326196D01*
X128878642Y-130384789D01*
X128759698Y-130420870D01*
X128666998Y-130430000D01*
X127605002Y-130430000D01*
X127512302Y-130420870D01*
X127393358Y-130384789D01*
X127283739Y-130326196D01*
X127187657Y-130247343D01*
X127108804Y-130151261D01*
X127050211Y-130041642D01*
X127039177Y-130005268D01*
X127029806Y-129982643D01*
X127016192Y-129962269D01*
X126998865Y-129944941D01*
X126978490Y-129931327D01*
X126955852Y-129921950D01*
X126931818Y-129917169D01*
X126907314Y-129917169D01*
X126883280Y-129921949D01*
X126860641Y-129931326D01*
X126840266Y-129944941D01*
X126732922Y-130033036D01*
X126609404Y-130099057D01*
X126475382Y-130139713D01*
X126370930Y-130150000D01*
X125101070Y-130150000D01*
X124996618Y-130139713D01*
X124862596Y-130099057D01*
X124739082Y-130033038D01*
X124737068Y-130031385D01*
X124705261Y-130005282D01*
X124630814Y-129944186D01*
X124553906Y-129850472D01*
X124541965Y-129835922D01*
X124541964Y-129835921D01*
X124541962Y-129835918D01*
X124475943Y-129712404D01*
X124435287Y-129578382D01*
X124421560Y-129439000D01*
X124435287Y-129299618D01*
X124475943Y-129165596D01*
X124541962Y-129042082D01*
X124630814Y-128933814D01*
X124739082Y-128844962D01*
X124862596Y-128778943D01*
X124996618Y-128738287D01*
X125101070Y-128728000D01*
X126370930Y-128728000D01*
X126475382Y-128738287D01*
X126475382Y-128738287D01*
G37*
G36*
X191706565Y-128089389D02*
X191897834Y-128168615D01*
X192069976Y-128283637D01*
X192216363Y-128430024D01*
X192331385Y-128602166D01*
X192410611Y-128793435D01*
X192451000Y-128996484D01*
X192451000Y-129203516D01*
X192410611Y-129406565D01*
X192331385Y-129597834D01*
X192216363Y-129769976D01*
X192069976Y-129916363D01*
X191897834Y-130031385D01*
X191706565Y-130110611D01*
X191503516Y-130151000D01*
X191296484Y-130151000D01*
X191093435Y-130110611D01*
X190902166Y-130031385D01*
X190730024Y-129916363D01*
X190583637Y-129769976D01*
X190468615Y-129597834D01*
X190389389Y-129406565D01*
X190349000Y-129203516D01*
X190349000Y-128996484D01*
X190389389Y-128793435D01*
X190468615Y-128602166D01*
X190583637Y-128430024D01*
X190730024Y-128283637D01*
X190902166Y-128168615D01*
X191093435Y-128089389D01*
X191296484Y-128049000D01*
X191503516Y-128049000D01*
X191706565Y-128089389D01*
X191706565Y-128089389D01*
G37*
G36*
X179703591Y-129055585D02*
X179737569Y-129065893D01*
X179768887Y-129082633D01*
X179796339Y-129105161D01*
X179818867Y-129132613D01*
X179835607Y-129163931D01*
X179845915Y-129197909D01*
X179850000Y-129239390D01*
X179850000Y-129840610D01*
X179845915Y-129882091D01*
X179835607Y-129916069D01*
X179818867Y-129947387D01*
X179796339Y-129974839D01*
X179768887Y-129997367D01*
X179737569Y-130014107D01*
X179703591Y-130024415D01*
X179662110Y-130028500D01*
X178985890Y-130028500D01*
X178944409Y-130024415D01*
X178910431Y-130014107D01*
X178879113Y-129997367D01*
X178851661Y-129974839D01*
X178829133Y-129947387D01*
X178812393Y-129916069D01*
X178802085Y-129882091D01*
X178798000Y-129840610D01*
X178798000Y-129239390D01*
X178802085Y-129197909D01*
X178812393Y-129163931D01*
X178829133Y-129132613D01*
X178851661Y-129105161D01*
X178879113Y-129082633D01*
X178910431Y-129065893D01*
X178944409Y-129055585D01*
X178985890Y-129051500D01*
X179662110Y-129051500D01*
X179703591Y-129055585D01*
X179703591Y-129055585D01*
G37*
G36*
X153492466Y-128655065D02*
X153531137Y-128666796D01*
X153566779Y-128685848D01*
X153598017Y-128711483D01*
X153623652Y-128742721D01*
X153642704Y-128778363D01*
X153654435Y-128817034D01*
X153659000Y-128863388D01*
X153659000Y-129514612D01*
X153654435Y-129560966D01*
X153642704Y-129599637D01*
X153623652Y-129635279D01*
X153598017Y-129666517D01*
X153566779Y-129692152D01*
X153531137Y-129711204D01*
X153492466Y-129722935D01*
X153446112Y-129727500D01*
X152369888Y-129727500D01*
X152323534Y-129722935D01*
X152284863Y-129711204D01*
X152249221Y-129692152D01*
X152217983Y-129666517D01*
X152192348Y-129635279D01*
X152173296Y-129599637D01*
X152161565Y-129560966D01*
X152157000Y-129514612D01*
X152157000Y-128863388D01*
X152161565Y-128817034D01*
X152173296Y-128778363D01*
X152192348Y-128742721D01*
X152217983Y-128711483D01*
X152249221Y-128685848D01*
X152284863Y-128666796D01*
X152323534Y-128655065D01*
X152369888Y-128650500D01*
X153446112Y-128650500D01*
X153492466Y-128655065D01*
X153492466Y-128655065D01*
G37*
G36*
X146175591Y-128547585D02*
X146209569Y-128557893D01*
X146240887Y-128574633D01*
X146268339Y-128597161D01*
X146290867Y-128624613D01*
X146307607Y-128655931D01*
X146317915Y-128689909D01*
X146322000Y-128731390D01*
X146322000Y-129332610D01*
X146317915Y-129374091D01*
X146307607Y-129408069D01*
X146290867Y-129439387D01*
X146268339Y-129466839D01*
X146240887Y-129489367D01*
X146209569Y-129506107D01*
X146175591Y-129516415D01*
X146134110Y-129520500D01*
X145457890Y-129520500D01*
X145416409Y-129516415D01*
X145382431Y-129506107D01*
X145351113Y-129489367D01*
X145323661Y-129466839D01*
X145301133Y-129439387D01*
X145284393Y-129408069D01*
X145274085Y-129374091D01*
X145270000Y-129332610D01*
X145270000Y-128731390D01*
X145274085Y-128689909D01*
X145284393Y-128655931D01*
X145301133Y-128624613D01*
X145323661Y-128597161D01*
X145351113Y-128574633D01*
X145382431Y-128557893D01*
X145416409Y-128547585D01*
X145457890Y-128543500D01*
X146134110Y-128543500D01*
X146175591Y-128547585D01*
X146175591Y-128547585D01*
G37*
G36*
X177451000Y-129426000D02*
X174549000Y-129426000D01*
X174549000Y-128674000D01*
X177451000Y-128674000D01*
X177451000Y-129426000D01*
X177451000Y-129426000D01*
G37*
G36*
X149816516Y-126384836D02*
X149828067Y-126406447D01*
X149843613Y-126425389D01*
X149862555Y-126440935D01*
X149884166Y-126452486D01*
X149907615Y-126459599D01*
X149932001Y-126462001D01*
X150522001Y-126462001D01*
X150522001Y-127504001D01*
X149932001Y-127504001D01*
X149907615Y-127506403D01*
X149884166Y-127513516D01*
X149862555Y-127525067D01*
X149843613Y-127540613D01*
X149828067Y-127559555D01*
X149816516Y-127581166D01*
X149809403Y-127604615D01*
X149807001Y-127629001D01*
X149807001Y-127637001D01*
X149809403Y-127661387D01*
X149816516Y-127684836D01*
X149828067Y-127706447D01*
X149843613Y-127725389D01*
X149862555Y-127740935D01*
X149884166Y-127752486D01*
X149907615Y-127759599D01*
X149932001Y-127762001D01*
X150522001Y-127762001D01*
X150522001Y-128804001D01*
X149932001Y-128804001D01*
X149907615Y-128806403D01*
X149884166Y-128813516D01*
X149862555Y-128825067D01*
X149843613Y-128840613D01*
X149828067Y-128859555D01*
X149816516Y-128881166D01*
X149815656Y-128884001D01*
X148046346Y-128884001D01*
X148045486Y-128881166D01*
X148033935Y-128859555D01*
X148018389Y-128840613D01*
X147999447Y-128825067D01*
X147977836Y-128813516D01*
X147954387Y-128806403D01*
X147930001Y-128804001D01*
X147340001Y-128804001D01*
X147340001Y-127762001D01*
X147930001Y-127762001D01*
X147954387Y-127759599D01*
X147977836Y-127752486D01*
X147999447Y-127740935D01*
X148018389Y-127725389D01*
X148033935Y-127706447D01*
X148045486Y-127684836D01*
X148052599Y-127661387D01*
X148055001Y-127637001D01*
X148055001Y-127629001D01*
X148052599Y-127604615D01*
X148045486Y-127581166D01*
X148033935Y-127559555D01*
X148018389Y-127540613D01*
X147999447Y-127525067D01*
X147977836Y-127513516D01*
X147954387Y-127506403D01*
X147930001Y-127504001D01*
X147340001Y-127504001D01*
X147340001Y-126462001D01*
X147930001Y-126462001D01*
X147954387Y-126459599D01*
X147977836Y-126452486D01*
X147999447Y-126440935D01*
X148018389Y-126425389D01*
X148033935Y-126406447D01*
X148045486Y-126384836D01*
X148046346Y-126382001D01*
X149815656Y-126382001D01*
X149816516Y-126384836D01*
X149816516Y-126384836D01*
G37*
G36*
X126737000Y-128385000D02*
X124735000Y-128385000D01*
X124735000Y-126383000D01*
X126737000Y-126383000D01*
X126737000Y-128385000D01*
X126737000Y-128385000D01*
G37*
G36*
X144702591Y-126786085D02*
X144736569Y-126796393D01*
X144767887Y-126813133D01*
X144795339Y-126835661D01*
X144817867Y-126863113D01*
X144834607Y-126894431D01*
X144844915Y-126928409D01*
X144849000Y-126969890D01*
X144849000Y-127646110D01*
X144844915Y-127687591D01*
X144834607Y-127721569D01*
X144817867Y-127752887D01*
X144795339Y-127780339D01*
X144767887Y-127802867D01*
X144736569Y-127819607D01*
X144702591Y-127829915D01*
X144661110Y-127834000D01*
X144059890Y-127834000D01*
X144018409Y-127829915D01*
X143984431Y-127819607D01*
X143953113Y-127802867D01*
X143925661Y-127780339D01*
X143903133Y-127752887D01*
X143886393Y-127721569D01*
X143876085Y-127687591D01*
X143872000Y-127646110D01*
X143872000Y-126969890D01*
X143876085Y-126928409D01*
X143886393Y-126894431D01*
X143903133Y-126863113D01*
X143925661Y-126835661D01*
X143953113Y-126813133D01*
X143984431Y-126796393D01*
X144018409Y-126786085D01*
X144059890Y-126782000D01*
X144661110Y-126782000D01*
X144702591Y-126786085D01*
X144702591Y-126786085D01*
G37*
G36*
X146277591Y-126786085D02*
X146311569Y-126796393D01*
X146342887Y-126813133D01*
X146370339Y-126835661D01*
X146392867Y-126863113D01*
X146409607Y-126894431D01*
X146419915Y-126928409D01*
X146424000Y-126969890D01*
X146424000Y-127646110D01*
X146419915Y-127687591D01*
X146409607Y-127721569D01*
X146392867Y-127752887D01*
X146370339Y-127780339D01*
X146342887Y-127802867D01*
X146311569Y-127819607D01*
X146277591Y-127829915D01*
X146236110Y-127834000D01*
X145634890Y-127834000D01*
X145593409Y-127829915D01*
X145559431Y-127819607D01*
X145528113Y-127802867D01*
X145500661Y-127780339D01*
X145478133Y-127752887D01*
X145461393Y-127721569D01*
X145451085Y-127687591D01*
X145447000Y-127646110D01*
X145447000Y-126969890D01*
X145451085Y-126928409D01*
X145461393Y-126894431D01*
X145478133Y-126863113D01*
X145500661Y-126835661D01*
X145528113Y-126813133D01*
X145559431Y-126796393D01*
X145593409Y-126786085D01*
X145634890Y-126782000D01*
X146236110Y-126782000D01*
X146277591Y-126786085D01*
X146277591Y-126786085D01*
G37*
G36*
X129137000Y-127735000D02*
X127685000Y-127735000D01*
X127685000Y-124633000D01*
X129137000Y-124633000D01*
X129137000Y-127735000D01*
X129137000Y-127735000D01*
G37*
G36*
X161886091Y-126478085D02*
X161920069Y-126488393D01*
X161951387Y-126505133D01*
X161978839Y-126527661D01*
X162001367Y-126555113D01*
X162018107Y-126586431D01*
X162028415Y-126620409D01*
X162032500Y-126661890D01*
X162032500Y-127338110D01*
X162028415Y-127379591D01*
X162018107Y-127413569D01*
X162001367Y-127444887D01*
X161978839Y-127472339D01*
X161951387Y-127494867D01*
X161920069Y-127511607D01*
X161886091Y-127521915D01*
X161844610Y-127526000D01*
X161243390Y-127526000D01*
X161201909Y-127521915D01*
X161167931Y-127511607D01*
X161136613Y-127494867D01*
X161109161Y-127472339D01*
X161086633Y-127444887D01*
X161069893Y-127413569D01*
X161059585Y-127379591D01*
X161055500Y-127338110D01*
X161055500Y-126661890D01*
X161059585Y-126620409D01*
X161069893Y-126586431D01*
X161086633Y-126555113D01*
X161109161Y-126527661D01*
X161136613Y-126505133D01*
X161167931Y-126488393D01*
X161201909Y-126478085D01*
X161243390Y-126474000D01*
X161844610Y-126474000D01*
X161886091Y-126478085D01*
X161886091Y-126478085D01*
G37*
G36*
X160311091Y-126478085D02*
X160345069Y-126488393D01*
X160376387Y-126505133D01*
X160403839Y-126527661D01*
X160426367Y-126555113D01*
X160443107Y-126586431D01*
X160453415Y-126620409D01*
X160457500Y-126661890D01*
X160457500Y-127338110D01*
X160453415Y-127379591D01*
X160443107Y-127413569D01*
X160426367Y-127444887D01*
X160403839Y-127472339D01*
X160376387Y-127494867D01*
X160345069Y-127511607D01*
X160311091Y-127521915D01*
X160269610Y-127526000D01*
X159668390Y-127526000D01*
X159626909Y-127521915D01*
X159592931Y-127511607D01*
X159561613Y-127494867D01*
X159534161Y-127472339D01*
X159511633Y-127444887D01*
X159494893Y-127413569D01*
X159484585Y-127379591D01*
X159480500Y-127338110D01*
X159480500Y-126661890D01*
X159484585Y-126620409D01*
X159494893Y-126586431D01*
X159511633Y-126555113D01*
X159534161Y-126527661D01*
X159561613Y-126505133D01*
X159592931Y-126488393D01*
X159626909Y-126478085D01*
X159668390Y-126474000D01*
X160269610Y-126474000D01*
X160311091Y-126478085D01*
X160311091Y-126478085D01*
G37*
G36*
X191706565Y-124589389D02*
X191897834Y-124668615D01*
X192069976Y-124783637D01*
X192216363Y-124930024D01*
X192331385Y-125102166D01*
X192410611Y-125293435D01*
X192451000Y-125496484D01*
X192451000Y-125703516D01*
X192410611Y-125906565D01*
X192331385Y-126097834D01*
X192216363Y-126269976D01*
X192069976Y-126416363D01*
X191897834Y-126531385D01*
X191706565Y-126610611D01*
X191503516Y-126651000D01*
X191296484Y-126651000D01*
X191093435Y-126610611D01*
X190902166Y-126531385D01*
X190730024Y-126416363D01*
X190583637Y-126269976D01*
X190468615Y-126097834D01*
X190389389Y-125906565D01*
X190349000Y-125703516D01*
X190349000Y-125496484D01*
X190389389Y-125293435D01*
X190468615Y-125102166D01*
X190583637Y-124930024D01*
X190730024Y-124783637D01*
X190902166Y-124668615D01*
X191093435Y-124589389D01*
X191296484Y-124549000D01*
X191503516Y-124549000D01*
X191706565Y-124589389D01*
X191706565Y-124589389D01*
G37*
G36*
X146189091Y-124954085D02*
X146223069Y-124964393D01*
X146254387Y-124981133D01*
X146281839Y-125003661D01*
X146304367Y-125031113D01*
X146321107Y-125062431D01*
X146331415Y-125096409D01*
X146335500Y-125137890D01*
X146335500Y-125814110D01*
X146331415Y-125855591D01*
X146321107Y-125889569D01*
X146304367Y-125920887D01*
X146281839Y-125948339D01*
X146254387Y-125970867D01*
X146223069Y-125987607D01*
X146189091Y-125997915D01*
X146147610Y-126002000D01*
X145546390Y-126002000D01*
X145504909Y-125997915D01*
X145470931Y-125987607D01*
X145439613Y-125970867D01*
X145412161Y-125948339D01*
X145389633Y-125920887D01*
X145372893Y-125889569D01*
X145362585Y-125855591D01*
X145358500Y-125814110D01*
X145358500Y-125137890D01*
X145362585Y-125096409D01*
X145372893Y-125062431D01*
X145389633Y-125031113D01*
X145412161Y-125003661D01*
X145439613Y-124981133D01*
X145470931Y-124964393D01*
X145504909Y-124954085D01*
X145546390Y-124950000D01*
X146147610Y-124950000D01*
X146189091Y-124954085D01*
X146189091Y-124954085D01*
G37*
G36*
X144614091Y-124954085D02*
X144648069Y-124964393D01*
X144679387Y-124981133D01*
X144706839Y-125003661D01*
X144729367Y-125031113D01*
X144746107Y-125062431D01*
X144756415Y-125096409D01*
X144760500Y-125137890D01*
X144760500Y-125814110D01*
X144756415Y-125855591D01*
X144746107Y-125889569D01*
X144729367Y-125920887D01*
X144706839Y-125948339D01*
X144679387Y-125970867D01*
X144648069Y-125987607D01*
X144614091Y-125997915D01*
X144572610Y-126002000D01*
X143971390Y-126002000D01*
X143929909Y-125997915D01*
X143895931Y-125987607D01*
X143864613Y-125970867D01*
X143837161Y-125948339D01*
X143814633Y-125920887D01*
X143797893Y-125889569D01*
X143787585Y-125855591D01*
X143783500Y-125814110D01*
X143783500Y-125137890D01*
X143787585Y-125096409D01*
X143797893Y-125062431D01*
X143814633Y-125031113D01*
X143837161Y-125003661D01*
X143864613Y-124981133D01*
X143895931Y-124964393D01*
X143929909Y-124954085D01*
X143971390Y-124950000D01*
X144572610Y-124950000D01*
X144614091Y-124954085D01*
X144614091Y-124954085D01*
G37*
G36*
X126737000Y-125985000D02*
X124735000Y-125985000D01*
X124735000Y-123983000D01*
X126737000Y-123983000D01*
X126737000Y-125985000D01*
X126737000Y-125985000D01*
G37*
G36*
X162185466Y-123761565D02*
X162224137Y-123773296D01*
X162259779Y-123792348D01*
X162291017Y-123817983D01*
X162316652Y-123849221D01*
X162335704Y-123884863D01*
X162347435Y-123923534D01*
X162352000Y-123969888D01*
X162352000Y-125046112D01*
X162347435Y-125092466D01*
X162335704Y-125131137D01*
X162316652Y-125166779D01*
X162291017Y-125198017D01*
X162259779Y-125223652D01*
X162224137Y-125242704D01*
X162185466Y-125254435D01*
X162139112Y-125259000D01*
X161487888Y-125259000D01*
X161441534Y-125254435D01*
X161402863Y-125242704D01*
X161367221Y-125223652D01*
X161335983Y-125198017D01*
X161310348Y-125166779D01*
X161291296Y-125131137D01*
X161279565Y-125092466D01*
X161275000Y-125046112D01*
X161275000Y-123969888D01*
X161279565Y-123923534D01*
X161291296Y-123884863D01*
X161310348Y-123849221D01*
X161335983Y-123817983D01*
X161367221Y-123792348D01*
X161402863Y-123773296D01*
X161441534Y-123761565D01*
X161487888Y-123757000D01*
X162139112Y-123757000D01*
X162185466Y-123761565D01*
X162185466Y-123761565D01*
G37*
G36*
X160310466Y-123761565D02*
X160349137Y-123773296D01*
X160384779Y-123792348D01*
X160416017Y-123817983D01*
X160441652Y-123849221D01*
X160460704Y-123884863D01*
X160472435Y-123923534D01*
X160477000Y-123969888D01*
X160477000Y-125046112D01*
X160472435Y-125092466D01*
X160460704Y-125131137D01*
X160441652Y-125166779D01*
X160416017Y-125198017D01*
X160384779Y-125223652D01*
X160349137Y-125242704D01*
X160310466Y-125254435D01*
X160264112Y-125259000D01*
X159612888Y-125259000D01*
X159566534Y-125254435D01*
X159527863Y-125242704D01*
X159492221Y-125223652D01*
X159460983Y-125198017D01*
X159435348Y-125166779D01*
X159416296Y-125131137D01*
X159404565Y-125092466D01*
X159400000Y-125046112D01*
X159400000Y-123969888D01*
X159404565Y-123923534D01*
X159416296Y-123884863D01*
X159435348Y-123849221D01*
X159460983Y-123817983D01*
X159492221Y-123792348D01*
X159527863Y-123773296D01*
X159566534Y-123761565D01*
X159612888Y-123757000D01*
X160264112Y-123757000D01*
X160310466Y-123761565D01*
X160310466Y-123761565D01*
G37*
G36*
X177251000Y-125126000D02*
X174349000Y-125126000D01*
X174349000Y-124374000D01*
X177251000Y-124374000D01*
X177251000Y-125126000D01*
X177251000Y-125126000D01*
G37*
G36*
X179195591Y-124026585D02*
X179229569Y-124036893D01*
X179260887Y-124053633D01*
X179288339Y-124076161D01*
X179310867Y-124103613D01*
X179327607Y-124134931D01*
X179337915Y-124168909D01*
X179342000Y-124210390D01*
X179342000Y-124811610D01*
X179337915Y-124853091D01*
X179327607Y-124887069D01*
X179310867Y-124918387D01*
X179288339Y-124945839D01*
X179260887Y-124968367D01*
X179229569Y-124985107D01*
X179195591Y-124995415D01*
X179154110Y-124999500D01*
X178477890Y-124999500D01*
X178436409Y-124995415D01*
X178402431Y-124985107D01*
X178371113Y-124968367D01*
X178343661Y-124945839D01*
X178321133Y-124918387D01*
X178304393Y-124887069D01*
X178294085Y-124853091D01*
X178290000Y-124811610D01*
X178290000Y-124210390D01*
X178294085Y-124168909D01*
X178304393Y-124134931D01*
X178321133Y-124103613D01*
X178343661Y-124076161D01*
X178371113Y-124053633D01*
X178402431Y-124036893D01*
X178436409Y-124026585D01*
X178477890Y-124022500D01*
X179154110Y-124022500D01*
X179195591Y-124026585D01*
X179195591Y-124026585D01*
G37*
G36*
X177281000Y-124101000D02*
X174319000Y-124101000D01*
X174319000Y-122299000D01*
X177281000Y-122299000D01*
X177281000Y-124101000D01*
X177281000Y-124101000D01*
G37*
G36*
X128759698Y-121947130D02*
X128878642Y-121983211D01*
X128988261Y-122041804D01*
X129084343Y-122120657D01*
X129163196Y-122216739D01*
X129221789Y-122326358D01*
X129257870Y-122445302D01*
X129270053Y-122569000D01*
X129257870Y-122692698D01*
X129221789Y-122811642D01*
X129163196Y-122921261D01*
X129084343Y-123017343D01*
X128988261Y-123096196D01*
X128878642Y-123154789D01*
X128759698Y-123190870D01*
X128666998Y-123200000D01*
X127605002Y-123200000D01*
X127512302Y-123190870D01*
X127393358Y-123154789D01*
X127283739Y-123096196D01*
X127223802Y-123047007D01*
X127203432Y-123033397D01*
X127180793Y-123024019D01*
X127156760Y-123019239D01*
X127132256Y-123019239D01*
X127108222Y-123024020D01*
X127085583Y-123033397D01*
X127065209Y-123047011D01*
X127047881Y-123064338D01*
X127034268Y-123084713D01*
X127024891Y-123107351D01*
X126996057Y-123202404D01*
X126930038Y-123325918D01*
X126841186Y-123434186D01*
X126732918Y-123523038D01*
X126609404Y-123589057D01*
X126475382Y-123629713D01*
X126370930Y-123640000D01*
X125101070Y-123640000D01*
X124996618Y-123629713D01*
X124862596Y-123589057D01*
X124739082Y-123523038D01*
X124630814Y-123434186D01*
X124541962Y-123325918D01*
X124475943Y-123202404D01*
X124435287Y-123068382D01*
X124421560Y-122929000D01*
X124435287Y-122789618D01*
X124475943Y-122655596D01*
X124541962Y-122532082D01*
X124630814Y-122423814D01*
X124739082Y-122334962D01*
X124862596Y-122268943D01*
X124996618Y-122228287D01*
X125101070Y-122218000D01*
X126370930Y-122218000D01*
X126475382Y-122228287D01*
X126609404Y-122268943D01*
X126732922Y-122334964D01*
X126840266Y-122423059D01*
X126860641Y-122436673D01*
X126883280Y-122446051D01*
X126907313Y-122450831D01*
X126931817Y-122450831D01*
X126955851Y-122446050D01*
X126978490Y-122436673D01*
X126998864Y-122423059D01*
X127016191Y-122405732D01*
X127029805Y-122385357D01*
X127039177Y-122362732D01*
X127050211Y-122326358D01*
X127108804Y-122216739D01*
X127187657Y-122120657D01*
X127283739Y-122041804D01*
X127393358Y-121983211D01*
X127512302Y-121947130D01*
X127605002Y-121938000D01*
X128666998Y-121938000D01*
X128759698Y-121947130D01*
X128759698Y-121947130D01*
G37*
G36*
X179195591Y-122451585D02*
X179229569Y-122461893D01*
X179260887Y-122478633D01*
X179288339Y-122501161D01*
X179310867Y-122528613D01*
X179327607Y-122559931D01*
X179337915Y-122593909D01*
X179342000Y-122635390D01*
X179342000Y-123236610D01*
X179337915Y-123278091D01*
X179327607Y-123312069D01*
X179310867Y-123343387D01*
X179288339Y-123370839D01*
X179260887Y-123393367D01*
X179229569Y-123410107D01*
X179195591Y-123420415D01*
X179154110Y-123424500D01*
X178477890Y-123424500D01*
X178436409Y-123420415D01*
X178402431Y-123410107D01*
X178371113Y-123393367D01*
X178343661Y-123370839D01*
X178321133Y-123343387D01*
X178304393Y-123312069D01*
X178294085Y-123278091D01*
X178290000Y-123236610D01*
X178290000Y-122635390D01*
X178294085Y-122593909D01*
X178304393Y-122559931D01*
X178321133Y-122528613D01*
X178343661Y-122501161D01*
X178371113Y-122478633D01*
X178402431Y-122461893D01*
X178436409Y-122451585D01*
X178477890Y-122447500D01*
X179154110Y-122447500D01*
X179195591Y-122451585D01*
X179195591Y-122451585D01*
G37*
G36*
X191706565Y-121089389D02*
X191897834Y-121168615D01*
X192069976Y-121283637D01*
X192216363Y-121430024D01*
X192331385Y-121602166D01*
X192410611Y-121793435D01*
X192451000Y-121996484D01*
X192451000Y-122203516D01*
X192410611Y-122406565D01*
X192331385Y-122597834D01*
X192216363Y-122769976D01*
X192069976Y-122916363D01*
X191897834Y-123031385D01*
X191706565Y-123110611D01*
X191503516Y-123151000D01*
X191296484Y-123151000D01*
X191093435Y-123110611D01*
X190902166Y-123031385D01*
X190730024Y-122916363D01*
X190583637Y-122769976D01*
X190468615Y-122597834D01*
X190389389Y-122406565D01*
X190349000Y-122203516D01*
X190349000Y-121996484D01*
X190389389Y-121793435D01*
X190468615Y-121602166D01*
X190583637Y-121430024D01*
X190730024Y-121283637D01*
X190902166Y-121168615D01*
X191093435Y-121089389D01*
X191296484Y-121049000D01*
X191503516Y-121049000D01*
X191706565Y-121089389D01*
X191706565Y-121089389D01*
G37*
G36*
X151510466Y-121361565D02*
X151549137Y-121373296D01*
X151584779Y-121392348D01*
X151616017Y-121417983D01*
X151641652Y-121449221D01*
X151660704Y-121484863D01*
X151672435Y-121523534D01*
X151677000Y-121569888D01*
X151677000Y-122646112D01*
X151672435Y-122692466D01*
X151660704Y-122731137D01*
X151641652Y-122766779D01*
X151616017Y-122798017D01*
X151584779Y-122823652D01*
X151549137Y-122842704D01*
X151510466Y-122854435D01*
X151464112Y-122859000D01*
X150812888Y-122859000D01*
X150766534Y-122854435D01*
X150727863Y-122842704D01*
X150692221Y-122823652D01*
X150660983Y-122798017D01*
X150635348Y-122766779D01*
X150616296Y-122731137D01*
X150604565Y-122692466D01*
X150600000Y-122646112D01*
X150600000Y-121569888D01*
X150604565Y-121523534D01*
X150616296Y-121484863D01*
X150635348Y-121449221D01*
X150660983Y-121417983D01*
X150692221Y-121392348D01*
X150727863Y-121373296D01*
X150766534Y-121361565D01*
X150812888Y-121357000D01*
X151464112Y-121357000D01*
X151510466Y-121361565D01*
X151510466Y-121361565D01*
G37*
G36*
X153385466Y-121361565D02*
X153424137Y-121373296D01*
X153459779Y-121392348D01*
X153491017Y-121417983D01*
X153516652Y-121449221D01*
X153535704Y-121484863D01*
X153547435Y-121523534D01*
X153552000Y-121569888D01*
X153552000Y-122646112D01*
X153547435Y-122692466D01*
X153535704Y-122731137D01*
X153516652Y-122766779D01*
X153491017Y-122798017D01*
X153459779Y-122823652D01*
X153424137Y-122842704D01*
X153385466Y-122854435D01*
X153339112Y-122859000D01*
X152687888Y-122859000D01*
X152641534Y-122854435D01*
X152602863Y-122842704D01*
X152567221Y-122823652D01*
X152535983Y-122798017D01*
X152510348Y-122766779D01*
X152491296Y-122731137D01*
X152479565Y-122692466D01*
X152475000Y-122646112D01*
X152475000Y-121569888D01*
X152479565Y-121523534D01*
X152491296Y-121484863D01*
X152510348Y-121449221D01*
X152535983Y-121417983D01*
X152567221Y-121392348D01*
X152602863Y-121373296D01*
X152641534Y-121361565D01*
X152687888Y-121357000D01*
X153339112Y-121357000D01*
X153385466Y-121361565D01*
X153385466Y-121361565D01*
G37*
G36*
X137977000Y-122559000D02*
X136975000Y-122559000D01*
X136975000Y-121657000D01*
X137977000Y-121657000D01*
X137977000Y-122559000D01*
X137977000Y-122559000D01*
G37*
G36*
X167179591Y-121290585D02*
X167213569Y-121300893D01*
X167244887Y-121317633D01*
X167272339Y-121340161D01*
X167294867Y-121367613D01*
X167311607Y-121398931D01*
X167321915Y-121432909D01*
X167326000Y-121474390D01*
X167326000Y-122075610D01*
X167321915Y-122117091D01*
X167311607Y-122151069D01*
X167294867Y-122182387D01*
X167272339Y-122209839D01*
X167244887Y-122232367D01*
X167213569Y-122249107D01*
X167179591Y-122259415D01*
X167138110Y-122263500D01*
X166461890Y-122263500D01*
X166420409Y-122259415D01*
X166386431Y-122249107D01*
X166355113Y-122232367D01*
X166327661Y-122209839D01*
X166305133Y-122182387D01*
X166288393Y-122151069D01*
X166278085Y-122117091D01*
X166274000Y-122075610D01*
X166274000Y-121474390D01*
X166278085Y-121432909D01*
X166288393Y-121398931D01*
X166305133Y-121367613D01*
X166327661Y-121340161D01*
X166355113Y-121317633D01*
X166386431Y-121300893D01*
X166420409Y-121290585D01*
X166461890Y-121286500D01*
X167138110Y-121286500D01*
X167179591Y-121290585D01*
X167179591Y-121290585D01*
G37*
G36*
X177251000Y-122026000D02*
X174349000Y-122026000D01*
X174349000Y-121274000D01*
X177251000Y-121274000D01*
X177251000Y-122026000D01*
X177251000Y-122026000D01*
G37*
G36*
X139977000Y-121609000D02*
X138975000Y-121609000D01*
X138975000Y-120707000D01*
X139977000Y-120707000D01*
X139977000Y-121609000D01*
X139977000Y-121609000D01*
G37*
G36*
X142830591Y-120186085D02*
X142864569Y-120196393D01*
X142895887Y-120213133D01*
X142923339Y-120235661D01*
X142945867Y-120263113D01*
X142962607Y-120294431D01*
X142972915Y-120328409D01*
X142977000Y-120369890D01*
X142977000Y-121046110D01*
X142972915Y-121087591D01*
X142962607Y-121121569D01*
X142945867Y-121152887D01*
X142923339Y-121180339D01*
X142895887Y-121202867D01*
X142864569Y-121219607D01*
X142830591Y-121229915D01*
X142789110Y-121234000D01*
X142187890Y-121234000D01*
X142146409Y-121229915D01*
X142112431Y-121219607D01*
X142081113Y-121202867D01*
X142053661Y-121180339D01*
X142031133Y-121152887D01*
X142014393Y-121121569D01*
X142004085Y-121087591D01*
X142000000Y-121046110D01*
X142000000Y-120369890D01*
X142004085Y-120328409D01*
X142014393Y-120294431D01*
X142031133Y-120263113D01*
X142053661Y-120235661D01*
X142081113Y-120213133D01*
X142112431Y-120196393D01*
X142146409Y-120186085D01*
X142187890Y-120182000D01*
X142789110Y-120182000D01*
X142830591Y-120186085D01*
X142830591Y-120186085D01*
G37*
G36*
X144405591Y-120186085D02*
X144439569Y-120196393D01*
X144470887Y-120213133D01*
X144498339Y-120235661D01*
X144520867Y-120263113D01*
X144537607Y-120294431D01*
X144547915Y-120328409D01*
X144552000Y-120369890D01*
X144552000Y-121046110D01*
X144547915Y-121087591D01*
X144537607Y-121121569D01*
X144520867Y-121152887D01*
X144498339Y-121180339D01*
X144470887Y-121202867D01*
X144439569Y-121219607D01*
X144405591Y-121229915D01*
X144364110Y-121234000D01*
X143762890Y-121234000D01*
X143721409Y-121229915D01*
X143687431Y-121219607D01*
X143656113Y-121202867D01*
X143628661Y-121180339D01*
X143606133Y-121152887D01*
X143589393Y-121121569D01*
X143579085Y-121087591D01*
X143575000Y-121046110D01*
X143575000Y-120369890D01*
X143579085Y-120328409D01*
X143589393Y-120294431D01*
X143606133Y-120263113D01*
X143628661Y-120235661D01*
X143656113Y-120213133D01*
X143687431Y-120196393D01*
X143721409Y-120186085D01*
X143762890Y-120182000D01*
X144364110Y-120182000D01*
X144405591Y-120186085D01*
X144405591Y-120186085D01*
G37*
G36*
X167179591Y-119715585D02*
X167213569Y-119725893D01*
X167244887Y-119742633D01*
X167272339Y-119765161D01*
X167294867Y-119792613D01*
X167311607Y-119823931D01*
X167321915Y-119857909D01*
X167326000Y-119899390D01*
X167326000Y-120500610D01*
X167321915Y-120542091D01*
X167311607Y-120576069D01*
X167294867Y-120607387D01*
X167272339Y-120634839D01*
X167244887Y-120657367D01*
X167213569Y-120674107D01*
X167179591Y-120684415D01*
X167138110Y-120688500D01*
X166461890Y-120688500D01*
X166420409Y-120684415D01*
X166386431Y-120674107D01*
X166355113Y-120657367D01*
X166327661Y-120634839D01*
X166305133Y-120607387D01*
X166288393Y-120576069D01*
X166278085Y-120542091D01*
X166274000Y-120500610D01*
X166274000Y-119899390D01*
X166278085Y-119857909D01*
X166288393Y-119823931D01*
X166305133Y-119792613D01*
X166327661Y-119765161D01*
X166355113Y-119742633D01*
X166386431Y-119725893D01*
X166420409Y-119715585D01*
X166461890Y-119711500D01*
X167138110Y-119711500D01*
X167179591Y-119715585D01*
X167179591Y-119715585D01*
G37*
G36*
X137977000Y-120659000D02*
X136975000Y-120659000D01*
X136975000Y-119757000D01*
X137977000Y-119757000D01*
X137977000Y-120659000D01*
X137977000Y-120659000D01*
G37*
G36*
X191706565Y-117589389D02*
X191897834Y-117668615D01*
X192069976Y-117783637D01*
X192216363Y-117930024D01*
X192331385Y-118102166D01*
X192410611Y-118293435D01*
X192451000Y-118496484D01*
X192451000Y-118703516D01*
X192410611Y-118906565D01*
X192331385Y-119097834D01*
X192216363Y-119269976D01*
X192069976Y-119416363D01*
X191897834Y-119531385D01*
X191706565Y-119610611D01*
X191503516Y-119651000D01*
X191296484Y-119651000D01*
X191093435Y-119610611D01*
X190902166Y-119531385D01*
X190730024Y-119416363D01*
X190583637Y-119269976D01*
X190468615Y-119097834D01*
X190389389Y-118906565D01*
X190349000Y-118703516D01*
X190349000Y-118496484D01*
X190389389Y-118293435D01*
X190468615Y-118102166D01*
X190583637Y-117930024D01*
X190730024Y-117783637D01*
X190902166Y-117668615D01*
X191093435Y-117589389D01*
X191296484Y-117549000D01*
X191503516Y-117549000D01*
X191706565Y-117589389D01*
X191706565Y-117589389D01*
G37*
G36*
X126238335Y-117228720D02*
X126312627Y-117236037D01*
X126414926Y-117267069D01*
X126482467Y-117287557D01*
X126567072Y-117332780D01*
X126638991Y-117371222D01*
X126674729Y-117400552D01*
X126776186Y-117483814D01*
X126859448Y-117585271D01*
X126888778Y-117621009D01*
X126888779Y-117621011D01*
X126972443Y-117777533D01*
X126989616Y-117834147D01*
X127023963Y-117947373D01*
X127041359Y-118124000D01*
X127023963Y-118300627D01*
X126989616Y-118413853D01*
X126972443Y-118470467D01*
X126958536Y-118496484D01*
X126888778Y-118626991D01*
X126859448Y-118662729D01*
X126776186Y-118764186D01*
X126674729Y-118847448D01*
X126638991Y-118876778D01*
X126638989Y-118876779D01*
X126482467Y-118960443D01*
X126425853Y-118977616D01*
X126312627Y-119011963D01*
X126246442Y-119018482D01*
X126180260Y-119025000D01*
X126091740Y-119025000D01*
X126025558Y-119018482D01*
X125959373Y-119011963D01*
X125846147Y-118977616D01*
X125789533Y-118960443D01*
X125633011Y-118876779D01*
X125633009Y-118876778D01*
X125597271Y-118847448D01*
X125495814Y-118764186D01*
X125412552Y-118662729D01*
X125383222Y-118626991D01*
X125313464Y-118496484D01*
X125299557Y-118470467D01*
X125282384Y-118413853D01*
X125248037Y-118300627D01*
X125230641Y-118124000D01*
X125248037Y-117947373D01*
X125282384Y-117834147D01*
X125299557Y-117777533D01*
X125383221Y-117621011D01*
X125383222Y-117621009D01*
X125412552Y-117585271D01*
X125495814Y-117483814D01*
X125597271Y-117400552D01*
X125633009Y-117371222D01*
X125704928Y-117332780D01*
X125789533Y-117287557D01*
X125857074Y-117267069D01*
X125959373Y-117236037D01*
X126033665Y-117228720D01*
X126091740Y-117223000D01*
X126180260Y-117223000D01*
X126238335Y-117228720D01*
X126238335Y-117228720D01*
G37*
G36*
X141005591Y-117186085D02*
X141039569Y-117196393D01*
X141070887Y-117213133D01*
X141098339Y-117235661D01*
X141120867Y-117263113D01*
X141137607Y-117294431D01*
X141147915Y-117328409D01*
X141152000Y-117369890D01*
X141152000Y-118046110D01*
X141147915Y-118087591D01*
X141137607Y-118121569D01*
X141120867Y-118152887D01*
X141098339Y-118180339D01*
X141070887Y-118202867D01*
X141039569Y-118219607D01*
X141005591Y-118229915D01*
X140964110Y-118234000D01*
X140362890Y-118234000D01*
X140321409Y-118229915D01*
X140287431Y-118219607D01*
X140256113Y-118202867D01*
X140228661Y-118180339D01*
X140206133Y-118152887D01*
X140189393Y-118121569D01*
X140179085Y-118087591D01*
X140175000Y-118046110D01*
X140175000Y-117369890D01*
X140179085Y-117328409D01*
X140189393Y-117294431D01*
X140206133Y-117263113D01*
X140228661Y-117235661D01*
X140256113Y-117213133D01*
X140287431Y-117196393D01*
X140321409Y-117186085D01*
X140362890Y-117182000D01*
X140964110Y-117182000D01*
X141005591Y-117186085D01*
X141005591Y-117186085D01*
G37*
G36*
X139430591Y-117186085D02*
X139464569Y-117196393D01*
X139495887Y-117213133D01*
X139523339Y-117235661D01*
X139545867Y-117263113D01*
X139562607Y-117294431D01*
X139572915Y-117328409D01*
X139577000Y-117369890D01*
X139577000Y-118046110D01*
X139572915Y-118087591D01*
X139562607Y-118121569D01*
X139545867Y-118152887D01*
X139523339Y-118180339D01*
X139495887Y-118202867D01*
X139464569Y-118219607D01*
X139430591Y-118229915D01*
X139389110Y-118234000D01*
X138787890Y-118234000D01*
X138746409Y-118229915D01*
X138712431Y-118219607D01*
X138681113Y-118202867D01*
X138653661Y-118180339D01*
X138631133Y-118152887D01*
X138614393Y-118121569D01*
X138604085Y-118087591D01*
X138600000Y-118046110D01*
X138600000Y-117369890D01*
X138604085Y-117328409D01*
X138614393Y-117294431D01*
X138631133Y-117263113D01*
X138653661Y-117235661D01*
X138681113Y-117213133D01*
X138712431Y-117196393D01*
X138746409Y-117186085D01*
X138787890Y-117182000D01*
X139389110Y-117182000D01*
X139430591Y-117186085D01*
X139430591Y-117186085D01*
G37*
G36*
X177451000Y-117726000D02*
X174549000Y-117726000D01*
X174549000Y-116974000D01*
X177451000Y-116974000D01*
X177451000Y-117726000D01*
X177451000Y-117726000D01*
G37*
G36*
X179195591Y-116406585D02*
X179229569Y-116416893D01*
X179260887Y-116433633D01*
X179288339Y-116456161D01*
X179310867Y-116483613D01*
X179327607Y-116514931D01*
X179337915Y-116548909D01*
X179342000Y-116590390D01*
X179342000Y-117191610D01*
X179337915Y-117233091D01*
X179327607Y-117267069D01*
X179310867Y-117298387D01*
X179288339Y-117325839D01*
X179260887Y-117348367D01*
X179229569Y-117365107D01*
X179195591Y-117375415D01*
X179154110Y-117379500D01*
X178477890Y-117379500D01*
X178436409Y-117375415D01*
X178402431Y-117365107D01*
X178371113Y-117348367D01*
X178343661Y-117325839D01*
X178321133Y-117298387D01*
X178304393Y-117267069D01*
X178294085Y-117233091D01*
X178290000Y-117191610D01*
X178290000Y-116590390D01*
X178294085Y-116548909D01*
X178304393Y-116514931D01*
X178321133Y-116483613D01*
X178343661Y-116456161D01*
X178371113Y-116433633D01*
X178402431Y-116416893D01*
X178436409Y-116406585D01*
X178477890Y-116402500D01*
X179154110Y-116402500D01*
X179195591Y-116406585D01*
X179195591Y-116406585D01*
G37*
G36*
X144842591Y-115810085D02*
X144876569Y-115820393D01*
X144907887Y-115837133D01*
X144935339Y-115859661D01*
X144957867Y-115887113D01*
X144974607Y-115918431D01*
X144984915Y-115952409D01*
X144989000Y-115993890D01*
X144989000Y-116670110D01*
X144984915Y-116711591D01*
X144974607Y-116745569D01*
X144957867Y-116776887D01*
X144935339Y-116804339D01*
X144907887Y-116826867D01*
X144876569Y-116843607D01*
X144842591Y-116853915D01*
X144801110Y-116858000D01*
X144199890Y-116858000D01*
X144158409Y-116853915D01*
X144124431Y-116843607D01*
X144093113Y-116826867D01*
X144065661Y-116804339D01*
X144043133Y-116776887D01*
X144026393Y-116745569D01*
X144016085Y-116711591D01*
X144012000Y-116670110D01*
X144012000Y-115993890D01*
X144016085Y-115952409D01*
X144026393Y-115918431D01*
X144043133Y-115887113D01*
X144065661Y-115859661D01*
X144093113Y-115837133D01*
X144124431Y-115820393D01*
X144158409Y-115810085D01*
X144199890Y-115806000D01*
X144801110Y-115806000D01*
X144842591Y-115810085D01*
X144842591Y-115810085D01*
G37*
G36*
X146417591Y-115810085D02*
X146451569Y-115820393D01*
X146482887Y-115837133D01*
X146510339Y-115859661D01*
X146532867Y-115887113D01*
X146549607Y-115918431D01*
X146559915Y-115952409D01*
X146564000Y-115993890D01*
X146564000Y-116670110D01*
X146559915Y-116711591D01*
X146549607Y-116745569D01*
X146532867Y-116776887D01*
X146510339Y-116804339D01*
X146482887Y-116826867D01*
X146451569Y-116843607D01*
X146417591Y-116853915D01*
X146376110Y-116858000D01*
X145774890Y-116858000D01*
X145733409Y-116853915D01*
X145699431Y-116843607D01*
X145668113Y-116826867D01*
X145640661Y-116804339D01*
X145618133Y-116776887D01*
X145601393Y-116745569D01*
X145591085Y-116711591D01*
X145587000Y-116670110D01*
X145587000Y-115993890D01*
X145591085Y-115952409D01*
X145601393Y-115918431D01*
X145618133Y-115887113D01*
X145640661Y-115859661D01*
X145668113Y-115837133D01*
X145699431Y-115820393D01*
X145733409Y-115810085D01*
X145774890Y-115806000D01*
X146376110Y-115806000D01*
X146417591Y-115810085D01*
X146417591Y-115810085D01*
G37*
G36*
X177481000Y-116701000D02*
X174519000Y-116701000D01*
X174519000Y-114899000D01*
X177481000Y-114899000D01*
X177481000Y-116701000D01*
X177481000Y-116701000D01*
G37*
G36*
X126246443Y-114689519D02*
X126312627Y-114696037D01*
X126425853Y-114730384D01*
X126482467Y-114747557D01*
X126568297Y-114793435D01*
X126638991Y-114831222D01*
X126657110Y-114846092D01*
X126776186Y-114943814D01*
X126842073Y-115024099D01*
X126888778Y-115081009D01*
X126888779Y-115081011D01*
X126972443Y-115237533D01*
X126972443Y-115237534D01*
X127023963Y-115407373D01*
X127041359Y-115584000D01*
X127023963Y-115760627D01*
X127005833Y-115820393D01*
X126972443Y-115930467D01*
X126958378Y-115956780D01*
X126888778Y-116086991D01*
X126869394Y-116110610D01*
X126776186Y-116224186D01*
X126674729Y-116307448D01*
X126638991Y-116336778D01*
X126638989Y-116336779D01*
X126482467Y-116420443D01*
X126425853Y-116437616D01*
X126312627Y-116471963D01*
X126246443Y-116478481D01*
X126180260Y-116485000D01*
X126091740Y-116485000D01*
X126025557Y-116478481D01*
X125959373Y-116471963D01*
X125846147Y-116437616D01*
X125789533Y-116420443D01*
X125633011Y-116336779D01*
X125633009Y-116336778D01*
X125597271Y-116307448D01*
X125495814Y-116224186D01*
X125402606Y-116110610D01*
X125383222Y-116086991D01*
X125313622Y-115956780D01*
X125299557Y-115930467D01*
X125266167Y-115820393D01*
X125248037Y-115760627D01*
X125230641Y-115584000D01*
X125248037Y-115407373D01*
X125299557Y-115237534D01*
X125299557Y-115237533D01*
X125383221Y-115081011D01*
X125383222Y-115081009D01*
X125429927Y-115024099D01*
X125495814Y-114943814D01*
X125614890Y-114846092D01*
X125633009Y-114831222D01*
X125703703Y-114793435D01*
X125789533Y-114747557D01*
X125846147Y-114730384D01*
X125959373Y-114696037D01*
X126025557Y-114689519D01*
X126091740Y-114683000D01*
X126180260Y-114683000D01*
X126246443Y-114689519D01*
X126246443Y-114689519D01*
G37*
G36*
X191706565Y-114089389D02*
X191897834Y-114168615D01*
X192069976Y-114283637D01*
X192216363Y-114430024D01*
X192331385Y-114602166D01*
X192410611Y-114793435D01*
X192451000Y-114996484D01*
X192451000Y-115203516D01*
X192410611Y-115406565D01*
X192331385Y-115597834D01*
X192216363Y-115769976D01*
X192069976Y-115916363D01*
X191897834Y-116031385D01*
X191706565Y-116110611D01*
X191503516Y-116151000D01*
X191296484Y-116151000D01*
X191093435Y-116110611D01*
X190902166Y-116031385D01*
X190730024Y-115916363D01*
X190583637Y-115769976D01*
X190468615Y-115597834D01*
X190389389Y-115406565D01*
X190349000Y-115203516D01*
X190349000Y-114996484D01*
X190389389Y-114793435D01*
X190468615Y-114602166D01*
X190583637Y-114430024D01*
X190730024Y-114283637D01*
X190902166Y-114168615D01*
X191093435Y-114089389D01*
X191296484Y-114049000D01*
X191503516Y-114049000D01*
X191706565Y-114089389D01*
X191706565Y-114089389D01*
G37*
G36*
X179195591Y-114831585D02*
X179229569Y-114841893D01*
X179260887Y-114858633D01*
X179288339Y-114881161D01*
X179310867Y-114908613D01*
X179327607Y-114939931D01*
X179337915Y-114973909D01*
X179342000Y-115015390D01*
X179342000Y-115616610D01*
X179337915Y-115658091D01*
X179327607Y-115692069D01*
X179310867Y-115723387D01*
X179288339Y-115750839D01*
X179260887Y-115773367D01*
X179229569Y-115790107D01*
X179195591Y-115800415D01*
X179154110Y-115804500D01*
X178477890Y-115804500D01*
X178436409Y-115800415D01*
X178402431Y-115790107D01*
X178371113Y-115773367D01*
X178343661Y-115750839D01*
X178321133Y-115723387D01*
X178304393Y-115692069D01*
X178294085Y-115658091D01*
X178290000Y-115616610D01*
X178290000Y-115015390D01*
X178294085Y-114973909D01*
X178304393Y-114939931D01*
X178321133Y-114908613D01*
X178343661Y-114881161D01*
X178371113Y-114858633D01*
X178402431Y-114841893D01*
X178436409Y-114831585D01*
X178477890Y-114827500D01*
X179154110Y-114827500D01*
X179195591Y-114831585D01*
X179195591Y-114831585D01*
G37*
G36*
X140052293Y-108660823D02*
X140059311Y-108662952D01*
X140073080Y-108670311D01*
X140095719Y-108679687D01*
X140119753Y-108684467D01*
X140144257Y-108684466D01*
X140168290Y-108679684D01*
X140190920Y-108670311D01*
X140204689Y-108662952D01*
X140211707Y-108660823D01*
X140225140Y-108659500D01*
X140538860Y-108659500D01*
X140552293Y-108660823D01*
X140559311Y-108662952D01*
X140573080Y-108670311D01*
X140595719Y-108679687D01*
X140619753Y-108684467D01*
X140644257Y-108684466D01*
X140668290Y-108679684D01*
X140690920Y-108670311D01*
X140704689Y-108662952D01*
X140711707Y-108660823D01*
X140725140Y-108659500D01*
X141038860Y-108659500D01*
X141052293Y-108660823D01*
X141059311Y-108662952D01*
X141073080Y-108670311D01*
X141095719Y-108679687D01*
X141119753Y-108684467D01*
X141144257Y-108684466D01*
X141168290Y-108679684D01*
X141190920Y-108670311D01*
X141204689Y-108662952D01*
X141211707Y-108660823D01*
X141225140Y-108659500D01*
X141538860Y-108659500D01*
X141552293Y-108660823D01*
X141559311Y-108662952D01*
X141573080Y-108670311D01*
X141595719Y-108679687D01*
X141619753Y-108684467D01*
X141644257Y-108684466D01*
X141668290Y-108679684D01*
X141690920Y-108670311D01*
X141704689Y-108662952D01*
X141711707Y-108660823D01*
X141725140Y-108659500D01*
X142038860Y-108659500D01*
X142052293Y-108660823D01*
X142059311Y-108662952D01*
X142073080Y-108670311D01*
X142095719Y-108679687D01*
X142119753Y-108684467D01*
X142144257Y-108684466D01*
X142168290Y-108679684D01*
X142190920Y-108670311D01*
X142204689Y-108662952D01*
X142211707Y-108660823D01*
X142225140Y-108659500D01*
X142538860Y-108659500D01*
X142552293Y-108660823D01*
X142559311Y-108662952D01*
X142573080Y-108670311D01*
X142595719Y-108679687D01*
X142619753Y-108684467D01*
X142644257Y-108684466D01*
X142668290Y-108679684D01*
X142690920Y-108670311D01*
X142704689Y-108662952D01*
X142711707Y-108660823D01*
X142725140Y-108659500D01*
X143038860Y-108659500D01*
X143052293Y-108660823D01*
X143059311Y-108662952D01*
X143073080Y-108670311D01*
X143095719Y-108679687D01*
X143119753Y-108684467D01*
X143144257Y-108684466D01*
X143168290Y-108679684D01*
X143190920Y-108670311D01*
X143204689Y-108662952D01*
X143211707Y-108660823D01*
X143225140Y-108659500D01*
X143538860Y-108659500D01*
X143552293Y-108660823D01*
X143559312Y-108662952D01*
X143565775Y-108666407D01*
X143571442Y-108671058D01*
X143576093Y-108676725D01*
X143579548Y-108683188D01*
X143581677Y-108690207D01*
X143583000Y-108703640D01*
X143583000Y-109572000D01*
X143585402Y-109596386D01*
X143592515Y-109619835D01*
X143604066Y-109641446D01*
X143619612Y-109660388D01*
X143638554Y-109675934D01*
X143660165Y-109687485D01*
X143683614Y-109694598D01*
X143708000Y-109697000D01*
X144576360Y-109697000D01*
X144589793Y-109698323D01*
X144596812Y-109700452D01*
X144603275Y-109703907D01*
X144608942Y-109708558D01*
X144613593Y-109714225D01*
X144617048Y-109720688D01*
X144619177Y-109727707D01*
X144620500Y-109741140D01*
X144620500Y-110054860D01*
X144619177Y-110068293D01*
X144617048Y-110075311D01*
X144609689Y-110089080D01*
X144600313Y-110111719D01*
X144595533Y-110135753D01*
X144595534Y-110160257D01*
X144600316Y-110184290D01*
X144609689Y-110206920D01*
X144617048Y-110220689D01*
X144619177Y-110227707D01*
X144620500Y-110241140D01*
X144620500Y-110554860D01*
X144619177Y-110568293D01*
X144617048Y-110575311D01*
X144609689Y-110589080D01*
X144600313Y-110611719D01*
X144595533Y-110635753D01*
X144595534Y-110660257D01*
X144600316Y-110684290D01*
X144609689Y-110706920D01*
X144617048Y-110720689D01*
X144619177Y-110727707D01*
X144620500Y-110741140D01*
X144620500Y-111054860D01*
X144619177Y-111068293D01*
X144617048Y-111075311D01*
X144609689Y-111089080D01*
X144600313Y-111111719D01*
X144595533Y-111135753D01*
X144595534Y-111160257D01*
X144600316Y-111184290D01*
X144609689Y-111206920D01*
X144617048Y-111220689D01*
X144619177Y-111227707D01*
X144620500Y-111241140D01*
X144620500Y-111554860D01*
X144619177Y-111568293D01*
X144617048Y-111575311D01*
X144609689Y-111589080D01*
X144600313Y-111611719D01*
X144595533Y-111635753D01*
X144595534Y-111660257D01*
X144600316Y-111684290D01*
X144609689Y-111706920D01*
X144617048Y-111720689D01*
X144619177Y-111727707D01*
X144620500Y-111741140D01*
X144620500Y-112054860D01*
X144619177Y-112068293D01*
X144617048Y-112075311D01*
X144609689Y-112089080D01*
X144600313Y-112111719D01*
X144595533Y-112135753D01*
X144595534Y-112160257D01*
X144600316Y-112184290D01*
X144609689Y-112206920D01*
X144617048Y-112220689D01*
X144619177Y-112227707D01*
X144620500Y-112241140D01*
X144620500Y-112554860D01*
X144619177Y-112568293D01*
X144617048Y-112575311D01*
X144609689Y-112589080D01*
X144600313Y-112611719D01*
X144595533Y-112635753D01*
X144595534Y-112660257D01*
X144600316Y-112684290D01*
X144609689Y-112706920D01*
X144617048Y-112720689D01*
X144619177Y-112727707D01*
X144620500Y-112741140D01*
X144620500Y-113054860D01*
X144619177Y-113068293D01*
X144617048Y-113075311D01*
X144609689Y-113089080D01*
X144600313Y-113111719D01*
X144595533Y-113135753D01*
X144595534Y-113160257D01*
X144600316Y-113184290D01*
X144609689Y-113206920D01*
X144617048Y-113220689D01*
X144619177Y-113227707D01*
X144620500Y-113241140D01*
X144620500Y-113554860D01*
X144619177Y-113568293D01*
X144617048Y-113575312D01*
X144613593Y-113581775D01*
X144608942Y-113587442D01*
X144603275Y-113592093D01*
X144596812Y-113595548D01*
X144589793Y-113597677D01*
X144576360Y-113599000D01*
X143708000Y-113599000D01*
X143683614Y-113601402D01*
X143660165Y-113608515D01*
X143638554Y-113620066D01*
X143619612Y-113635612D01*
X143604066Y-113654554D01*
X143592515Y-113676165D01*
X143585402Y-113699614D01*
X143583000Y-113724000D01*
X143583000Y-114592360D01*
X143581677Y-114605793D01*
X143579548Y-114612812D01*
X143576093Y-114619275D01*
X143571442Y-114624942D01*
X143565775Y-114629593D01*
X143559312Y-114633048D01*
X143552293Y-114635177D01*
X143538860Y-114636500D01*
X143225140Y-114636500D01*
X143211707Y-114635177D01*
X143204689Y-114633048D01*
X143190920Y-114625689D01*
X143168281Y-114616313D01*
X143144247Y-114611533D01*
X143119743Y-114611534D01*
X143095710Y-114616316D01*
X143073080Y-114625689D01*
X143059311Y-114633048D01*
X143052293Y-114635177D01*
X143038860Y-114636500D01*
X142725140Y-114636500D01*
X142711707Y-114635177D01*
X142704689Y-114633048D01*
X142690920Y-114625689D01*
X142668281Y-114616313D01*
X142644247Y-114611533D01*
X142619743Y-114611534D01*
X142595710Y-114616316D01*
X142573080Y-114625689D01*
X142559311Y-114633048D01*
X142552293Y-114635177D01*
X142538860Y-114636500D01*
X142225140Y-114636500D01*
X142211707Y-114635177D01*
X142204689Y-114633048D01*
X142190920Y-114625689D01*
X142168281Y-114616313D01*
X142144247Y-114611533D01*
X142119743Y-114611534D01*
X142095710Y-114616316D01*
X142073080Y-114625689D01*
X142059311Y-114633048D01*
X142052293Y-114635177D01*
X142038860Y-114636500D01*
X141725140Y-114636500D01*
X141711707Y-114635177D01*
X141704689Y-114633048D01*
X141690920Y-114625689D01*
X141668281Y-114616313D01*
X141644247Y-114611533D01*
X141619743Y-114611534D01*
X141595710Y-114616316D01*
X141573080Y-114625689D01*
X141559311Y-114633048D01*
X141552293Y-114635177D01*
X141538860Y-114636500D01*
X141225140Y-114636500D01*
X141211707Y-114635177D01*
X141204689Y-114633048D01*
X141190920Y-114625689D01*
X141168281Y-114616313D01*
X141144247Y-114611533D01*
X141119743Y-114611534D01*
X141095710Y-114616316D01*
X141073080Y-114625689D01*
X141059311Y-114633048D01*
X141052293Y-114635177D01*
X141038860Y-114636500D01*
X140725140Y-114636500D01*
X140711707Y-114635177D01*
X140704689Y-114633048D01*
X140690920Y-114625689D01*
X140668281Y-114616313D01*
X140644247Y-114611533D01*
X140619743Y-114611534D01*
X140595710Y-114616316D01*
X140573080Y-114625689D01*
X140559311Y-114633048D01*
X140552293Y-114635177D01*
X140538860Y-114636500D01*
X140225140Y-114636500D01*
X140211707Y-114635177D01*
X140204689Y-114633048D01*
X140190920Y-114625689D01*
X140168281Y-114616313D01*
X140144247Y-114611533D01*
X140119743Y-114611534D01*
X140095710Y-114616316D01*
X140073080Y-114625689D01*
X140059311Y-114633048D01*
X140052293Y-114635177D01*
X140038860Y-114636500D01*
X139725140Y-114636500D01*
X139711707Y-114635177D01*
X139704688Y-114633048D01*
X139698225Y-114629593D01*
X139692558Y-114624942D01*
X139687907Y-114619275D01*
X139684452Y-114612812D01*
X139682323Y-114605793D01*
X139681000Y-114592360D01*
X139681000Y-113724000D01*
X139678598Y-113699614D01*
X139671485Y-113676165D01*
X139659934Y-113654554D01*
X139644388Y-113635612D01*
X139625446Y-113620066D01*
X139603835Y-113608515D01*
X139580386Y-113601402D01*
X139556000Y-113599000D01*
X138687640Y-113599000D01*
X138674207Y-113597677D01*
X138667188Y-113595548D01*
X138660725Y-113592093D01*
X138655058Y-113587442D01*
X138650407Y-113581775D01*
X138646952Y-113575312D01*
X138644823Y-113568293D01*
X138643500Y-113554860D01*
X138643500Y-113241140D01*
X138644823Y-113227707D01*
X138646952Y-113220689D01*
X138654311Y-113206920D01*
X138663687Y-113184281D01*
X138668467Y-113160247D01*
X138668466Y-113135743D01*
X138663684Y-113111710D01*
X138654311Y-113089080D01*
X138646952Y-113075311D01*
X138644823Y-113068293D01*
X138643500Y-113054860D01*
X138643500Y-112741140D01*
X138644823Y-112727707D01*
X138646952Y-112720689D01*
X138654311Y-112706920D01*
X138663687Y-112684281D01*
X138668467Y-112660247D01*
X138668466Y-112635743D01*
X138663684Y-112611710D01*
X138654311Y-112589080D01*
X138646952Y-112575311D01*
X138644823Y-112568293D01*
X138643500Y-112554860D01*
X138643500Y-112241140D01*
X138644823Y-112227707D01*
X138646952Y-112220689D01*
X138654311Y-112206920D01*
X138663687Y-112184281D01*
X138668467Y-112160247D01*
X138668466Y-112135743D01*
X138663684Y-112111710D01*
X138654311Y-112089080D01*
X138646952Y-112075311D01*
X138644823Y-112068293D01*
X138643500Y-112054860D01*
X138643500Y-111741140D01*
X138644823Y-111727707D01*
X138646952Y-111720689D01*
X138654311Y-111706920D01*
X138663687Y-111684281D01*
X138668467Y-111660247D01*
X138668466Y-111635743D01*
X138663684Y-111611710D01*
X138654311Y-111589080D01*
X138646952Y-111575311D01*
X138644823Y-111568293D01*
X138643500Y-111554860D01*
X138643500Y-111241140D01*
X138644823Y-111227707D01*
X138646952Y-111220689D01*
X138654311Y-111206920D01*
X138663687Y-111184281D01*
X138668467Y-111160247D01*
X138668466Y-111135743D01*
X138663684Y-111111710D01*
X138654311Y-111089080D01*
X138646952Y-111075311D01*
X138644823Y-111068293D01*
X138643500Y-111054860D01*
X138643500Y-110741140D01*
X138644823Y-110727707D01*
X138646952Y-110720689D01*
X138654311Y-110706920D01*
X138663687Y-110684281D01*
X138668467Y-110660247D01*
X138668466Y-110635743D01*
X138663684Y-110611710D01*
X138654311Y-110589080D01*
X138646952Y-110575311D01*
X138644823Y-110568293D01*
X138643500Y-110554860D01*
X138643500Y-110241140D01*
X138644823Y-110227707D01*
X138646952Y-110220689D01*
X138654311Y-110206920D01*
X138663687Y-110184281D01*
X138668467Y-110160247D01*
X138668467Y-110135753D01*
X139720533Y-110135753D01*
X139720534Y-110160257D01*
X139725316Y-110184290D01*
X139734689Y-110206920D01*
X139742048Y-110220689D01*
X139744177Y-110227707D01*
X139745500Y-110241140D01*
X139745500Y-110554860D01*
X139744177Y-110568293D01*
X139742048Y-110575311D01*
X139734689Y-110589080D01*
X139725313Y-110611719D01*
X139720533Y-110635753D01*
X139720534Y-110660257D01*
X139725316Y-110684290D01*
X139734689Y-110706920D01*
X139742048Y-110720689D01*
X139744177Y-110727707D01*
X139745500Y-110741140D01*
X139745500Y-111054860D01*
X139744177Y-111068293D01*
X139742048Y-111075311D01*
X139734689Y-111089080D01*
X139725313Y-111111719D01*
X139720533Y-111135753D01*
X139720534Y-111160257D01*
X139725316Y-111184290D01*
X139734689Y-111206920D01*
X139742048Y-111220689D01*
X139744177Y-111227707D01*
X139745500Y-111241140D01*
X139745500Y-111554860D01*
X139744177Y-111568293D01*
X139742048Y-111575311D01*
X139734689Y-111589080D01*
X139725313Y-111611719D01*
X139720533Y-111635753D01*
X139720534Y-111660257D01*
X139725316Y-111684290D01*
X139734689Y-111706920D01*
X139742048Y-111720689D01*
X139744177Y-111727707D01*
X139745500Y-111741140D01*
X139745500Y-112054860D01*
X139744177Y-112068293D01*
X139742048Y-112075311D01*
X139734689Y-112089080D01*
X139725313Y-112111719D01*
X139720533Y-112135753D01*
X139720534Y-112160257D01*
X139725316Y-112184290D01*
X139734689Y-112206920D01*
X139742048Y-112220689D01*
X139744177Y-112227707D01*
X139745500Y-112241140D01*
X139745500Y-112554860D01*
X139744177Y-112568293D01*
X139742048Y-112575311D01*
X139734689Y-112589080D01*
X139725313Y-112611719D01*
X139720533Y-112635753D01*
X139720534Y-112660257D01*
X139725316Y-112684290D01*
X139734689Y-112706920D01*
X139742048Y-112720689D01*
X139744177Y-112727707D01*
X139745500Y-112741140D01*
X139745500Y-113054860D01*
X139744177Y-113068293D01*
X139742048Y-113075311D01*
X139734689Y-113089080D01*
X139725313Y-113111719D01*
X139720533Y-113135753D01*
X139720534Y-113160257D01*
X139725316Y-113184290D01*
X139734689Y-113206920D01*
X139742048Y-113220689D01*
X139744177Y-113227707D01*
X139745500Y-113241140D01*
X139745500Y-113409500D01*
X139747902Y-113433886D01*
X139755015Y-113457335D01*
X139766566Y-113478946D01*
X139782112Y-113497888D01*
X139801054Y-113513434D01*
X139822665Y-113524985D01*
X139846114Y-113532098D01*
X139870500Y-113534500D01*
X140038860Y-113534500D01*
X140052293Y-113535823D01*
X140059311Y-113537952D01*
X140073080Y-113545311D01*
X140095719Y-113554687D01*
X140119753Y-113559467D01*
X140144257Y-113559466D01*
X140168290Y-113554684D01*
X140190920Y-113545311D01*
X140204689Y-113537952D01*
X140211707Y-113535823D01*
X140225140Y-113534500D01*
X140538860Y-113534500D01*
X140552293Y-113535823D01*
X140559311Y-113537952D01*
X140573080Y-113545311D01*
X140595719Y-113554687D01*
X140619753Y-113559467D01*
X140644257Y-113559466D01*
X140668290Y-113554684D01*
X140690920Y-113545311D01*
X140704689Y-113537952D01*
X140711707Y-113535823D01*
X140725140Y-113534500D01*
X141038860Y-113534500D01*
X141052293Y-113535823D01*
X141059311Y-113537952D01*
X141073080Y-113545311D01*
X141095719Y-113554687D01*
X141119753Y-113559467D01*
X141144257Y-113559466D01*
X141168290Y-113554684D01*
X141190920Y-113545311D01*
X141204689Y-113537952D01*
X141211707Y-113535823D01*
X141225140Y-113534500D01*
X141538860Y-113534500D01*
X141552293Y-113535823D01*
X141559311Y-113537952D01*
X141573080Y-113545311D01*
X141595719Y-113554687D01*
X141619753Y-113559467D01*
X141644257Y-113559466D01*
X141668290Y-113554684D01*
X141690920Y-113545311D01*
X141704689Y-113537952D01*
X141711707Y-113535823D01*
X141725140Y-113534500D01*
X142038860Y-113534500D01*
X142052293Y-113535823D01*
X142059311Y-113537952D01*
X142073080Y-113545311D01*
X142095719Y-113554687D01*
X142119753Y-113559467D01*
X142144257Y-113559466D01*
X142168290Y-113554684D01*
X142190920Y-113545311D01*
X142204689Y-113537952D01*
X142211707Y-113535823D01*
X142225140Y-113534500D01*
X142538860Y-113534500D01*
X142552293Y-113535823D01*
X142559311Y-113537952D01*
X142573080Y-113545311D01*
X142595719Y-113554687D01*
X142619753Y-113559467D01*
X142644257Y-113559466D01*
X142668290Y-113554684D01*
X142690920Y-113545311D01*
X142704689Y-113537952D01*
X142711707Y-113535823D01*
X142725140Y-113534500D01*
X143038860Y-113534500D01*
X143052293Y-113535823D01*
X143059311Y-113537952D01*
X143073080Y-113545311D01*
X143095719Y-113554687D01*
X143119753Y-113559467D01*
X143144257Y-113559466D01*
X143168290Y-113554684D01*
X143190920Y-113545311D01*
X143204689Y-113537952D01*
X143211707Y-113535823D01*
X143225140Y-113534500D01*
X143393500Y-113534500D01*
X143417886Y-113532098D01*
X143441335Y-113524985D01*
X143462946Y-113513434D01*
X143481888Y-113497888D01*
X143497434Y-113478946D01*
X143508985Y-113457335D01*
X143516098Y-113433886D01*
X143518500Y-113409500D01*
X143518500Y-113241140D01*
X143519823Y-113227707D01*
X143521952Y-113220689D01*
X143529311Y-113206920D01*
X143538687Y-113184281D01*
X143543467Y-113160247D01*
X143543466Y-113135743D01*
X143538684Y-113111710D01*
X143529311Y-113089080D01*
X143521952Y-113075311D01*
X143519823Y-113068293D01*
X143518500Y-113054860D01*
X143518500Y-112741140D01*
X143519823Y-112727707D01*
X143521952Y-112720689D01*
X143529311Y-112706920D01*
X143538687Y-112684281D01*
X143543467Y-112660247D01*
X143543466Y-112635743D01*
X143538684Y-112611710D01*
X143529311Y-112589080D01*
X143521952Y-112575311D01*
X143519823Y-112568293D01*
X143518500Y-112554860D01*
X143518500Y-112241140D01*
X143519823Y-112227707D01*
X143521952Y-112220689D01*
X143529311Y-112206920D01*
X143538687Y-112184281D01*
X143543467Y-112160247D01*
X143543466Y-112135743D01*
X143538684Y-112111710D01*
X143529311Y-112089080D01*
X143521952Y-112075311D01*
X143519823Y-112068293D01*
X143518500Y-112054860D01*
X143518500Y-111741140D01*
X143519823Y-111727707D01*
X143521952Y-111720689D01*
X143529311Y-111706920D01*
X143538687Y-111684281D01*
X143543467Y-111660247D01*
X143543466Y-111635743D01*
X143538684Y-111611710D01*
X143529311Y-111589080D01*
X143521952Y-111575311D01*
X143519823Y-111568293D01*
X143518500Y-111554860D01*
X143518500Y-111241140D01*
X143519823Y-111227707D01*
X143521952Y-111220689D01*
X143529311Y-111206920D01*
X143538687Y-111184281D01*
X143543467Y-111160247D01*
X143543466Y-111135743D01*
X143538684Y-111111710D01*
X143529311Y-111089080D01*
X143521952Y-111075311D01*
X143519823Y-111068293D01*
X143518500Y-111054860D01*
X143518500Y-110741140D01*
X143519823Y-110727707D01*
X143521952Y-110720689D01*
X143529311Y-110706920D01*
X143538687Y-110684281D01*
X143543467Y-110660247D01*
X143543466Y-110635743D01*
X143538684Y-110611710D01*
X143529311Y-110589080D01*
X143521952Y-110575311D01*
X143519823Y-110568293D01*
X143518500Y-110554860D01*
X143518500Y-110241140D01*
X143519823Y-110227707D01*
X143521952Y-110220689D01*
X143529311Y-110206920D01*
X143538687Y-110184281D01*
X143543467Y-110160247D01*
X143543466Y-110135743D01*
X143538684Y-110111710D01*
X143529311Y-110089080D01*
X143521952Y-110075311D01*
X143519823Y-110068293D01*
X143518500Y-110054860D01*
X143518500Y-109886500D01*
X143516098Y-109862114D01*
X143508985Y-109838665D01*
X143497434Y-109817054D01*
X143481888Y-109798112D01*
X143462946Y-109782566D01*
X143441335Y-109771015D01*
X143417886Y-109763902D01*
X143393500Y-109761500D01*
X143225140Y-109761500D01*
X143211707Y-109760177D01*
X143204689Y-109758048D01*
X143190920Y-109750689D01*
X143168281Y-109741313D01*
X143144247Y-109736533D01*
X143119743Y-109736534D01*
X143095710Y-109741316D01*
X143073080Y-109750689D01*
X143059311Y-109758048D01*
X143052293Y-109760177D01*
X143038860Y-109761500D01*
X142725140Y-109761500D01*
X142711707Y-109760177D01*
X142704689Y-109758048D01*
X142690920Y-109750689D01*
X142668281Y-109741313D01*
X142644247Y-109736533D01*
X142619743Y-109736534D01*
X142595710Y-109741316D01*
X142573080Y-109750689D01*
X142559311Y-109758048D01*
X142552293Y-109760177D01*
X142538860Y-109761500D01*
X142225140Y-109761500D01*
X142211707Y-109760177D01*
X142204689Y-109758048D01*
X142190920Y-109750689D01*
X142168281Y-109741313D01*
X142144247Y-109736533D01*
X142119743Y-109736534D01*
X142095710Y-109741316D01*
X142073080Y-109750689D01*
X142059311Y-109758048D01*
X142052293Y-109760177D01*
X142038860Y-109761500D01*
X141725140Y-109761500D01*
X141711707Y-109760177D01*
X141704689Y-109758048D01*
X141690920Y-109750689D01*
X141668281Y-109741313D01*
X141644247Y-109736533D01*
X141619743Y-109736534D01*
X141595710Y-109741316D01*
X141573080Y-109750689D01*
X141559311Y-109758048D01*
X141552293Y-109760177D01*
X141538860Y-109761500D01*
X141225140Y-109761500D01*
X141211707Y-109760177D01*
X141204689Y-109758048D01*
X141190920Y-109750689D01*
X141168281Y-109741313D01*
X141144247Y-109736533D01*
X141119743Y-109736534D01*
X141095710Y-109741316D01*
X141073080Y-109750689D01*
X141059311Y-109758048D01*
X141052293Y-109760177D01*
X141038860Y-109761500D01*
X140725140Y-109761500D01*
X140711707Y-109760177D01*
X140704689Y-109758048D01*
X140690920Y-109750689D01*
X140668281Y-109741313D01*
X140644247Y-109736533D01*
X140619743Y-109736534D01*
X140595710Y-109741316D01*
X140573080Y-109750689D01*
X140559311Y-109758048D01*
X140552293Y-109760177D01*
X140538860Y-109761500D01*
X140225140Y-109761500D01*
X140211707Y-109760177D01*
X140204689Y-109758048D01*
X140190920Y-109750689D01*
X140168281Y-109741313D01*
X140144247Y-109736533D01*
X140119743Y-109736534D01*
X140095710Y-109741316D01*
X140073080Y-109750689D01*
X140059311Y-109758048D01*
X140052293Y-109760177D01*
X140038860Y-109761500D01*
X139870500Y-109761500D01*
X139846114Y-109763902D01*
X139822665Y-109771015D01*
X139801054Y-109782566D01*
X139782112Y-109798112D01*
X139766566Y-109817054D01*
X139755015Y-109838665D01*
X139747902Y-109862114D01*
X139745500Y-109886500D01*
X139745500Y-110054860D01*
X139744177Y-110068293D01*
X139742048Y-110075311D01*
X139734689Y-110089080D01*
X139725313Y-110111719D01*
X139720533Y-110135753D01*
X138668467Y-110135753D01*
X138668466Y-110135743D01*
X138663684Y-110111710D01*
X138654311Y-110089080D01*
X138646952Y-110075311D01*
X138644823Y-110068293D01*
X138643500Y-110054860D01*
X138643500Y-109741140D01*
X138644823Y-109727707D01*
X138646952Y-109720688D01*
X138650407Y-109714225D01*
X138655058Y-109708558D01*
X138660725Y-109703907D01*
X138667188Y-109700452D01*
X138674207Y-109698323D01*
X138687640Y-109697000D01*
X139556000Y-109697000D01*
X139580386Y-109694598D01*
X139603835Y-109687485D01*
X139625446Y-109675934D01*
X139644388Y-109660388D01*
X139659934Y-109641446D01*
X139671485Y-109619835D01*
X139678598Y-109596386D01*
X139681000Y-109572000D01*
X139681000Y-108703640D01*
X139682323Y-108690207D01*
X139684452Y-108683188D01*
X139687907Y-108676725D01*
X139692558Y-108671058D01*
X139698225Y-108666407D01*
X139704688Y-108662952D01*
X139711707Y-108660823D01*
X139725140Y-108659500D01*
X140038860Y-108659500D01*
X140052293Y-108660823D01*
X140052293Y-108660823D01*
G37*
G36*
X143108432Y-110050564D02*
X143137325Y-110059328D01*
X143163951Y-110073560D01*
X143187288Y-110092712D01*
X143206440Y-110116049D01*
X143220672Y-110142675D01*
X143229436Y-110171568D01*
X143233000Y-110207753D01*
X143233000Y-113088247D01*
X143229436Y-113124432D01*
X143220672Y-113153325D01*
X143206440Y-113179951D01*
X143187288Y-113203288D01*
X143163951Y-113222440D01*
X143137325Y-113236672D01*
X143108432Y-113245436D01*
X143072247Y-113249000D01*
X140191753Y-113249000D01*
X140155568Y-113245436D01*
X140126675Y-113236672D01*
X140100049Y-113222440D01*
X140076712Y-113203288D01*
X140057560Y-113179951D01*
X140043328Y-113153325D01*
X140034564Y-113124432D01*
X140031000Y-113088247D01*
X140031000Y-110207753D01*
X140034564Y-110171568D01*
X140043328Y-110142675D01*
X140057560Y-110116049D01*
X140076712Y-110092712D01*
X140100049Y-110073560D01*
X140126675Y-110059328D01*
X140155568Y-110050564D01*
X140191753Y-110047000D01*
X143072247Y-110047000D01*
X143108432Y-110050564D01*
X143108432Y-110050564D01*
G37*
G36*
X177451000Y-114626000D02*
X174549000Y-114626000D01*
X174549000Y-113874000D01*
X177451000Y-113874000D01*
X177451000Y-114626000D01*
X177451000Y-114626000D01*
G37*
G36*
X126218638Y-112146780D02*
X126312627Y-112156037D01*
X126425853Y-112190384D01*
X126482467Y-112207557D01*
X126578783Y-112259040D01*
X126638991Y-112291222D01*
X126674729Y-112320552D01*
X126776186Y-112403814D01*
X126853892Y-112498500D01*
X126888778Y-112541009D01*
X126888779Y-112541011D01*
X126972443Y-112697533D01*
X126972443Y-112697534D01*
X127023963Y-112867373D01*
X127041359Y-113044000D01*
X127023963Y-113220627D01*
X127000644Y-113297500D01*
X126972443Y-113390467D01*
X126925149Y-113478946D01*
X126888778Y-113546991D01*
X126865535Y-113575312D01*
X126776186Y-113684186D01*
X126674729Y-113767448D01*
X126638991Y-113796778D01*
X126638989Y-113796779D01*
X126482467Y-113880443D01*
X126425853Y-113897616D01*
X126312627Y-113931963D01*
X126246442Y-113938482D01*
X126180260Y-113945000D01*
X126091740Y-113945000D01*
X126025558Y-113938482D01*
X125959373Y-113931963D01*
X125846147Y-113897616D01*
X125789533Y-113880443D01*
X125633011Y-113796779D01*
X125633009Y-113796778D01*
X125597271Y-113767448D01*
X125495814Y-113684186D01*
X125406465Y-113575312D01*
X125383222Y-113546991D01*
X125346851Y-113478946D01*
X125299557Y-113390467D01*
X125271356Y-113297500D01*
X125248037Y-113220627D01*
X125230641Y-113044000D01*
X125248037Y-112867373D01*
X125299557Y-112697534D01*
X125299557Y-112697533D01*
X125383221Y-112541011D01*
X125383222Y-112541009D01*
X125418108Y-112498500D01*
X125495814Y-112403814D01*
X125597271Y-112320552D01*
X125633009Y-112291222D01*
X125693217Y-112259040D01*
X125789533Y-112207557D01*
X125846147Y-112190384D01*
X125959373Y-112156037D01*
X126053362Y-112146780D01*
X126091740Y-112143000D01*
X126180260Y-112143000D01*
X126218638Y-112146780D01*
X126218638Y-112146780D01*
G37*
G36*
X147662091Y-112000085D02*
X147696069Y-112010393D01*
X147727387Y-112027133D01*
X147754839Y-112049661D01*
X147777367Y-112077113D01*
X147794107Y-112108431D01*
X147804415Y-112142409D01*
X147808500Y-112183890D01*
X147808500Y-112860110D01*
X147804415Y-112901591D01*
X147794107Y-112935569D01*
X147777367Y-112966887D01*
X147754839Y-112994339D01*
X147727387Y-113016867D01*
X147696069Y-113033607D01*
X147662091Y-113043915D01*
X147620610Y-113048000D01*
X147019390Y-113048000D01*
X146977909Y-113043915D01*
X146943931Y-113033607D01*
X146912613Y-113016867D01*
X146885161Y-112994339D01*
X146862633Y-112966887D01*
X146845893Y-112935569D01*
X146835585Y-112901591D01*
X146831500Y-112860110D01*
X146831500Y-112183890D01*
X146835585Y-112142409D01*
X146845893Y-112108431D01*
X146862633Y-112077113D01*
X146885161Y-112049661D01*
X146912613Y-112027133D01*
X146943931Y-112010393D01*
X146977909Y-112000085D01*
X147019390Y-111996000D01*
X147620610Y-111996000D01*
X147662091Y-112000085D01*
X147662091Y-112000085D01*
G37*
G36*
X149237091Y-112000085D02*
X149271069Y-112010393D01*
X149302387Y-112027133D01*
X149329839Y-112049661D01*
X149352367Y-112077113D01*
X149369107Y-112108431D01*
X149379415Y-112142409D01*
X149383500Y-112183890D01*
X149383500Y-112860110D01*
X149379415Y-112901591D01*
X149369107Y-112935569D01*
X149352367Y-112966887D01*
X149329839Y-112994339D01*
X149302387Y-113016867D01*
X149271069Y-113033607D01*
X149237091Y-113043915D01*
X149195610Y-113048000D01*
X148594390Y-113048000D01*
X148552909Y-113043915D01*
X148518931Y-113033607D01*
X148487613Y-113016867D01*
X148460161Y-112994339D01*
X148437633Y-112966887D01*
X148420893Y-112935569D01*
X148410585Y-112901591D01*
X148406500Y-112860110D01*
X148406500Y-112183890D01*
X148410585Y-112142409D01*
X148420893Y-112108431D01*
X148437633Y-112077113D01*
X148460161Y-112049661D01*
X148487613Y-112027133D01*
X148518931Y-112010393D01*
X148552909Y-112000085D01*
X148594390Y-111996000D01*
X149195610Y-111996000D01*
X149237091Y-112000085D01*
X149237091Y-112000085D01*
G37*
G36*
X191706565Y-110589389D02*
X191897834Y-110668615D01*
X192069976Y-110783637D01*
X192216363Y-110930024D01*
X192331385Y-111102166D01*
X192410611Y-111293435D01*
X192451000Y-111496484D01*
X192451000Y-111703516D01*
X192410611Y-111906565D01*
X192331385Y-112097834D01*
X192216363Y-112269976D01*
X192069976Y-112416363D01*
X191897834Y-112531385D01*
X191706565Y-112610611D01*
X191503516Y-112651000D01*
X191296484Y-112651000D01*
X191093435Y-112610611D01*
X190902166Y-112531385D01*
X190730024Y-112416363D01*
X190583637Y-112269976D01*
X190468615Y-112097834D01*
X190389389Y-111906565D01*
X190349000Y-111703516D01*
X190349000Y-111496484D01*
X190389389Y-111293435D01*
X190468615Y-111102166D01*
X190583637Y-110930024D01*
X190730024Y-110783637D01*
X190902166Y-110668615D01*
X191093435Y-110589389D01*
X191296484Y-110549000D01*
X191503516Y-110549000D01*
X191706565Y-110589389D01*
X191706565Y-110589389D01*
G37*
G36*
X126246442Y-109609518D02*
X126312627Y-109616037D01*
X126396389Y-109641446D01*
X126482467Y-109667557D01*
X126592620Y-109726436D01*
X126638991Y-109751222D01*
X126666746Y-109774000D01*
X126776186Y-109863814D01*
X126859448Y-109965271D01*
X126888778Y-110001009D01*
X126888779Y-110001011D01*
X126972443Y-110157533D01*
X126987424Y-110206920D01*
X127023963Y-110327373D01*
X127041359Y-110504000D01*
X127023963Y-110680627D01*
X127005447Y-110741665D01*
X126972443Y-110850467D01*
X126898348Y-110989087D01*
X126888778Y-111006991D01*
X126879655Y-111018107D01*
X126776186Y-111144186D01*
X126702509Y-111204650D01*
X126638991Y-111256778D01*
X126638989Y-111256779D01*
X126482467Y-111340443D01*
X126425853Y-111357616D01*
X126312627Y-111391963D01*
X126246443Y-111398481D01*
X126180260Y-111405000D01*
X126091740Y-111405000D01*
X126025557Y-111398481D01*
X125959373Y-111391963D01*
X125846147Y-111357616D01*
X125789533Y-111340443D01*
X125633011Y-111256779D01*
X125633009Y-111256778D01*
X125569491Y-111204650D01*
X125495814Y-111144186D01*
X125392345Y-111018107D01*
X125383222Y-111006991D01*
X125373652Y-110989087D01*
X125299557Y-110850467D01*
X125266553Y-110741665D01*
X125248037Y-110680627D01*
X125230641Y-110504000D01*
X125248037Y-110327373D01*
X125284576Y-110206920D01*
X125299557Y-110157533D01*
X125383221Y-110001011D01*
X125383222Y-110001009D01*
X125412552Y-109965271D01*
X125495814Y-109863814D01*
X125605254Y-109774000D01*
X125633009Y-109751222D01*
X125679380Y-109726436D01*
X125789533Y-109667557D01*
X125875611Y-109641446D01*
X125959373Y-109616037D01*
X126025558Y-109609518D01*
X126091740Y-109603000D01*
X126180260Y-109603000D01*
X126246442Y-109609518D01*
X126246442Y-109609518D01*
G37*
G36*
X177451000Y-110526000D02*
X174549000Y-110526000D01*
X174549000Y-109774000D01*
X177451000Y-109774000D01*
X177451000Y-110526000D01*
X177451000Y-110526000D01*
G37*
G36*
X179703591Y-109294585D02*
X179737569Y-109304893D01*
X179768887Y-109321633D01*
X179796339Y-109344161D01*
X179818867Y-109371613D01*
X179835607Y-109402931D01*
X179845915Y-109436909D01*
X179850000Y-109478390D01*
X179850000Y-110079610D01*
X179845915Y-110121091D01*
X179835607Y-110155069D01*
X179818867Y-110186387D01*
X179796339Y-110213839D01*
X179768887Y-110236367D01*
X179737569Y-110253107D01*
X179703591Y-110263415D01*
X179662110Y-110267500D01*
X178985890Y-110267500D01*
X178944409Y-110263415D01*
X178910431Y-110253107D01*
X178879113Y-110236367D01*
X178851661Y-110213839D01*
X178829133Y-110186387D01*
X178812393Y-110155069D01*
X178802085Y-110121091D01*
X178798000Y-110079610D01*
X178798000Y-109478390D01*
X178802085Y-109436909D01*
X178812393Y-109402931D01*
X178829133Y-109371613D01*
X178851661Y-109344161D01*
X178879113Y-109321633D01*
X178910431Y-109304893D01*
X178944409Y-109294585D01*
X178985890Y-109290500D01*
X179662110Y-109290500D01*
X179703591Y-109294585D01*
X179703591Y-109294585D01*
G37*
G36*
X177481000Y-109501000D02*
X174519000Y-109501000D01*
X174519000Y-107699000D01*
X177481000Y-107699000D01*
X177481000Y-109501000D01*
X177481000Y-109501000D01*
G37*
G36*
X191706565Y-107089389D02*
X191897834Y-107168615D01*
X192069976Y-107283637D01*
X192216363Y-107430024D01*
X192331385Y-107602166D01*
X192410611Y-107793435D01*
X192451000Y-107996484D01*
X192451000Y-108203516D01*
X192410611Y-108406565D01*
X192331385Y-108597834D01*
X192216363Y-108769976D01*
X192069976Y-108916363D01*
X191897834Y-109031385D01*
X191706565Y-109110611D01*
X191503516Y-109151000D01*
X191296484Y-109151000D01*
X191093435Y-109110611D01*
X190902166Y-109031385D01*
X190730024Y-108916363D01*
X190583637Y-108769976D01*
X190468615Y-108597834D01*
X190389389Y-108406565D01*
X190349000Y-108203516D01*
X190349000Y-107996484D01*
X190389389Y-107793435D01*
X190468615Y-107602166D01*
X190583637Y-107430024D01*
X190730024Y-107283637D01*
X190902166Y-107168615D01*
X191093435Y-107089389D01*
X191296484Y-107049000D01*
X191503516Y-107049000D01*
X191706565Y-107089389D01*
X191706565Y-107089389D01*
G37*
G36*
X126238335Y-107068720D02*
X126312627Y-107076037D01*
X126414926Y-107107069D01*
X126482467Y-107127557D01*
X126561871Y-107170000D01*
X126638991Y-107211222D01*
X126674729Y-107240552D01*
X126776186Y-107323814D01*
X126850404Y-107414250D01*
X126888778Y-107461009D01*
X126888779Y-107461011D01*
X126972443Y-107617533D01*
X126972443Y-107617534D01*
X127023963Y-107787373D01*
X127041359Y-107964000D01*
X127023963Y-108140627D01*
X127004886Y-108203514D01*
X126972443Y-108310467D01*
X126921077Y-108406565D01*
X126888778Y-108466991D01*
X126865052Y-108495901D01*
X126776186Y-108604186D01*
X126684190Y-108679684D01*
X126638991Y-108716778D01*
X126638989Y-108716779D01*
X126482467Y-108800443D01*
X126425853Y-108817616D01*
X126312627Y-108851963D01*
X126246443Y-108858481D01*
X126180260Y-108865000D01*
X126091740Y-108865000D01*
X126025557Y-108858481D01*
X125959373Y-108851963D01*
X125846147Y-108817616D01*
X125789533Y-108800443D01*
X125633011Y-108716779D01*
X125633009Y-108716778D01*
X125587810Y-108679684D01*
X125495814Y-108604186D01*
X125406948Y-108495901D01*
X125383222Y-108466991D01*
X125350923Y-108406565D01*
X125299557Y-108310467D01*
X125267114Y-108203514D01*
X125248037Y-108140627D01*
X125230641Y-107964000D01*
X125248037Y-107787373D01*
X125299557Y-107617534D01*
X125299557Y-107617533D01*
X125383221Y-107461011D01*
X125383222Y-107461009D01*
X125421596Y-107414250D01*
X125495814Y-107323814D01*
X125597271Y-107240552D01*
X125633009Y-107211222D01*
X125710129Y-107170000D01*
X125789533Y-107127557D01*
X125857074Y-107107069D01*
X125959373Y-107076037D01*
X126033665Y-107068720D01*
X126091740Y-107063000D01*
X126180260Y-107063000D01*
X126238335Y-107068720D01*
X126238335Y-107068720D01*
G37*
G36*
X179703591Y-107719585D02*
X179737569Y-107729893D01*
X179768887Y-107746633D01*
X179796339Y-107769161D01*
X179818867Y-107796613D01*
X179835607Y-107827931D01*
X179845915Y-107861909D01*
X179850000Y-107903390D01*
X179850000Y-108504610D01*
X179845915Y-108546091D01*
X179835607Y-108580069D01*
X179818867Y-108611387D01*
X179796339Y-108638839D01*
X179768887Y-108661367D01*
X179737569Y-108678107D01*
X179703591Y-108688415D01*
X179662110Y-108692500D01*
X178985890Y-108692500D01*
X178944409Y-108688415D01*
X178910431Y-108678107D01*
X178879113Y-108661367D01*
X178851661Y-108638839D01*
X178829133Y-108611387D01*
X178812393Y-108580069D01*
X178802085Y-108546091D01*
X178798000Y-108504610D01*
X178798000Y-107903390D01*
X178802085Y-107861909D01*
X178812393Y-107827931D01*
X178829133Y-107796613D01*
X178851661Y-107769161D01*
X178879113Y-107746633D01*
X178910431Y-107729893D01*
X178944409Y-107719585D01*
X178985890Y-107715500D01*
X179662110Y-107715500D01*
X179703591Y-107719585D01*
X179703591Y-107719585D01*
G37*
G36*
X138569091Y-107174085D02*
X138603069Y-107184393D01*
X138634387Y-107201133D01*
X138661839Y-107223661D01*
X138684367Y-107251113D01*
X138701107Y-107282431D01*
X138711415Y-107316409D01*
X138715500Y-107357890D01*
X138715500Y-108034110D01*
X138711415Y-108075591D01*
X138701107Y-108109569D01*
X138684367Y-108140887D01*
X138661839Y-108168339D01*
X138634387Y-108190867D01*
X138603069Y-108207607D01*
X138569091Y-108217915D01*
X138527610Y-108222000D01*
X137926390Y-108222000D01*
X137884909Y-108217915D01*
X137850931Y-108207607D01*
X137819613Y-108190867D01*
X137792161Y-108168339D01*
X137769633Y-108140887D01*
X137752893Y-108109569D01*
X137742585Y-108075591D01*
X137738500Y-108034110D01*
X137738500Y-107357890D01*
X137742585Y-107316409D01*
X137752893Y-107282431D01*
X137769633Y-107251113D01*
X137792161Y-107223661D01*
X137819613Y-107201133D01*
X137850931Y-107184393D01*
X137884909Y-107174085D01*
X137926390Y-107170000D01*
X138527610Y-107170000D01*
X138569091Y-107174085D01*
X138569091Y-107174085D01*
G37*
G36*
X136994091Y-107174085D02*
X137028069Y-107184393D01*
X137059387Y-107201133D01*
X137086839Y-107223661D01*
X137109367Y-107251113D01*
X137126107Y-107282431D01*
X137136415Y-107316409D01*
X137140500Y-107357890D01*
X137140500Y-108034110D01*
X137136415Y-108075591D01*
X137126107Y-108109569D01*
X137109367Y-108140887D01*
X137086839Y-108168339D01*
X137059387Y-108190867D01*
X137028069Y-108207607D01*
X136994091Y-108217915D01*
X136952610Y-108222000D01*
X136351390Y-108222000D01*
X136309909Y-108217915D01*
X136275931Y-108207607D01*
X136244613Y-108190867D01*
X136217161Y-108168339D01*
X136194633Y-108140887D01*
X136177893Y-108109569D01*
X136167585Y-108075591D01*
X136163500Y-108034110D01*
X136163500Y-107357890D01*
X136167585Y-107316409D01*
X136177893Y-107282431D01*
X136194633Y-107251113D01*
X136217161Y-107223661D01*
X136244613Y-107201133D01*
X136275931Y-107184393D01*
X136309909Y-107174085D01*
X136351390Y-107170000D01*
X136952610Y-107170000D01*
X136994091Y-107174085D01*
X136994091Y-107174085D01*
G37*
G36*
X177451000Y-107426000D02*
X174549000Y-107426000D01*
X174549000Y-106674000D01*
X177451000Y-106674000D01*
X177451000Y-107426000D01*
X177451000Y-107426000D01*
G37*
G36*
X148888466Y-106247565D02*
X148927137Y-106259296D01*
X148962779Y-106278348D01*
X148994017Y-106303983D01*
X149019652Y-106335221D01*
X149038704Y-106370863D01*
X149050435Y-106409534D01*
X149055000Y-106455888D01*
X149055000Y-107107112D01*
X149050435Y-107153466D01*
X149038704Y-107192137D01*
X149019652Y-107227779D01*
X148994017Y-107259017D01*
X148962779Y-107284652D01*
X148927137Y-107303704D01*
X148888466Y-107315435D01*
X148842112Y-107320000D01*
X147765888Y-107320000D01*
X147719534Y-107315435D01*
X147680863Y-107303704D01*
X147645221Y-107284652D01*
X147613983Y-107259017D01*
X147588348Y-107227779D01*
X147569296Y-107192137D01*
X147557565Y-107153466D01*
X147553000Y-107107112D01*
X147553000Y-106455888D01*
X147557565Y-106409534D01*
X147569296Y-106370863D01*
X147588348Y-106335221D01*
X147613983Y-106303983D01*
X147645221Y-106278348D01*
X147680863Y-106259296D01*
X147719534Y-106247565D01*
X147765888Y-106243000D01*
X148842112Y-106243000D01*
X148888466Y-106247565D01*
X148888466Y-106247565D01*
G37*
G36*
X146175591Y-106246585D02*
X146209569Y-106256893D01*
X146240887Y-106273633D01*
X146268339Y-106296161D01*
X146290867Y-106323613D01*
X146307607Y-106354931D01*
X146317915Y-106388909D01*
X146322000Y-106430390D01*
X146322000Y-107031610D01*
X146317915Y-107073091D01*
X146307607Y-107107069D01*
X146290867Y-107138387D01*
X146268339Y-107165839D01*
X146240887Y-107188367D01*
X146209569Y-107205107D01*
X146175591Y-107215415D01*
X146134110Y-107219500D01*
X145457890Y-107219500D01*
X145416409Y-107215415D01*
X145382431Y-107205107D01*
X145351113Y-107188367D01*
X145323661Y-107165839D01*
X145301133Y-107138387D01*
X145284393Y-107107069D01*
X145274085Y-107073091D01*
X145270000Y-107031610D01*
X145270000Y-106430390D01*
X145274085Y-106388909D01*
X145284393Y-106354931D01*
X145301133Y-106323613D01*
X145323661Y-106296161D01*
X145351113Y-106273633D01*
X145382431Y-106256893D01*
X145416409Y-106246585D01*
X145457890Y-106242500D01*
X146134110Y-106242500D01*
X146175591Y-106246585D01*
X146175591Y-106246585D01*
G37*
G36*
X127037000Y-106325000D02*
X125235000Y-106325000D01*
X125235000Y-104523000D01*
X127037000Y-104523000D01*
X127037000Y-106325000D01*
X127037000Y-106325000D01*
G37*
G36*
X146175591Y-104671585D02*
X146209569Y-104681893D01*
X146240887Y-104698633D01*
X146268339Y-104721161D01*
X146290867Y-104748613D01*
X146307607Y-104779931D01*
X146317915Y-104813909D01*
X146322000Y-104855390D01*
X146322000Y-105456610D01*
X146317915Y-105498091D01*
X146307607Y-105532069D01*
X146290867Y-105563387D01*
X146268339Y-105590839D01*
X146240887Y-105613367D01*
X146209569Y-105630107D01*
X146175591Y-105640415D01*
X146134110Y-105644500D01*
X145457890Y-105644500D01*
X145416409Y-105640415D01*
X145382431Y-105630107D01*
X145351113Y-105613367D01*
X145323661Y-105590839D01*
X145301133Y-105563387D01*
X145284393Y-105532069D01*
X145274085Y-105498091D01*
X145270000Y-105456610D01*
X145270000Y-104855390D01*
X145274085Y-104813909D01*
X145284393Y-104779931D01*
X145301133Y-104748613D01*
X145323661Y-104721161D01*
X145351113Y-104698633D01*
X145382431Y-104681893D01*
X145416409Y-104671585D01*
X145457890Y-104667500D01*
X146134110Y-104667500D01*
X146175591Y-104671585D01*
X146175591Y-104671585D01*
G37*
G36*
X142941466Y-104101565D02*
X142980137Y-104113296D01*
X143015779Y-104132348D01*
X143047017Y-104157983D01*
X143072652Y-104189221D01*
X143091704Y-104224863D01*
X143103435Y-104263534D01*
X143108000Y-104309888D01*
X143108000Y-105386112D01*
X143103435Y-105432466D01*
X143091704Y-105471137D01*
X143072652Y-105506779D01*
X143047017Y-105538017D01*
X143015779Y-105563652D01*
X142980137Y-105582704D01*
X142941466Y-105594435D01*
X142895112Y-105599000D01*
X142243888Y-105599000D01*
X142197534Y-105594435D01*
X142158863Y-105582704D01*
X142123221Y-105563652D01*
X142091983Y-105538017D01*
X142066348Y-105506779D01*
X142047296Y-105471137D01*
X142035565Y-105432466D01*
X142031000Y-105386112D01*
X142031000Y-104309888D01*
X142035565Y-104263534D01*
X142047296Y-104224863D01*
X142066348Y-104189221D01*
X142091983Y-104157983D01*
X142123221Y-104132348D01*
X142158863Y-104113296D01*
X142197534Y-104101565D01*
X142243888Y-104097000D01*
X142895112Y-104097000D01*
X142941466Y-104101565D01*
X142941466Y-104101565D01*
G37*
G36*
X141066466Y-104101565D02*
X141105137Y-104113296D01*
X141140779Y-104132348D01*
X141172017Y-104157983D01*
X141197652Y-104189221D01*
X141216704Y-104224863D01*
X141228435Y-104263534D01*
X141233000Y-104309888D01*
X141233000Y-105386112D01*
X141228435Y-105432466D01*
X141216704Y-105471137D01*
X141197652Y-105506779D01*
X141172017Y-105538017D01*
X141140779Y-105563652D01*
X141105137Y-105582704D01*
X141066466Y-105594435D01*
X141020112Y-105599000D01*
X140368888Y-105599000D01*
X140322534Y-105594435D01*
X140283863Y-105582704D01*
X140248221Y-105563652D01*
X140216983Y-105538017D01*
X140191348Y-105506779D01*
X140172296Y-105471137D01*
X140160565Y-105432466D01*
X140156000Y-105386112D01*
X140156000Y-104309888D01*
X140160565Y-104263534D01*
X140172296Y-104224863D01*
X140191348Y-104189221D01*
X140216983Y-104157983D01*
X140248221Y-104132348D01*
X140283863Y-104113296D01*
X140322534Y-104101565D01*
X140368888Y-104097000D01*
X141020112Y-104097000D01*
X141066466Y-104101565D01*
X141066466Y-104101565D01*
G37*
G36*
X148888466Y-104372565D02*
X148927137Y-104384296D01*
X148962779Y-104403348D01*
X148994017Y-104428983D01*
X149019652Y-104460221D01*
X149038704Y-104495863D01*
X149050435Y-104534534D01*
X149055000Y-104580888D01*
X149055000Y-105232112D01*
X149050435Y-105278466D01*
X149038704Y-105317137D01*
X149019652Y-105352779D01*
X148994017Y-105384017D01*
X148962779Y-105409652D01*
X148927137Y-105428704D01*
X148888466Y-105440435D01*
X148842112Y-105445000D01*
X147765888Y-105445000D01*
X147719534Y-105440435D01*
X147680863Y-105428704D01*
X147645221Y-105409652D01*
X147613983Y-105384017D01*
X147588348Y-105352779D01*
X147569296Y-105317137D01*
X147557565Y-105278466D01*
X147553000Y-105232112D01*
X147553000Y-104580888D01*
X147557565Y-104534534D01*
X147569296Y-104495863D01*
X147588348Y-104460221D01*
X147613983Y-104428983D01*
X147645221Y-104403348D01*
X147680863Y-104384296D01*
X147719534Y-104372565D01*
X147765888Y-104368000D01*
X148842112Y-104368000D01*
X148888466Y-104372565D01*
X148888466Y-104372565D01*
G37*
G36*
X144961591Y-101526085D02*
X144995569Y-101536393D01*
X145026887Y-101553133D01*
X145054339Y-101575661D01*
X145076867Y-101603113D01*
X145093607Y-101634431D01*
X145103915Y-101668409D01*
X145108000Y-101709890D01*
X145108000Y-102386110D01*
X145103915Y-102427591D01*
X145093607Y-102461569D01*
X145076867Y-102492887D01*
X145054339Y-102520339D01*
X145026887Y-102542867D01*
X144995569Y-102559607D01*
X144961591Y-102569915D01*
X144920110Y-102574000D01*
X144318890Y-102574000D01*
X144277409Y-102569915D01*
X144243431Y-102559607D01*
X144212113Y-102542867D01*
X144184661Y-102520339D01*
X144162133Y-102492887D01*
X144145393Y-102461569D01*
X144135085Y-102427591D01*
X144131000Y-102386110D01*
X144131000Y-101709890D01*
X144135085Y-101668409D01*
X144145393Y-101634431D01*
X144162133Y-101603113D01*
X144184661Y-101575661D01*
X144212113Y-101553133D01*
X144243431Y-101536393D01*
X144277409Y-101526085D01*
X144318890Y-101522000D01*
X144920110Y-101522000D01*
X144961591Y-101526085D01*
X144961591Y-101526085D01*
G37*
G36*
X143386591Y-101526085D02*
X143420569Y-101536393D01*
X143451887Y-101553133D01*
X143479339Y-101575661D01*
X143501867Y-101603113D01*
X143518607Y-101634431D01*
X143528915Y-101668409D01*
X143533000Y-101709890D01*
X143533000Y-102386110D01*
X143528915Y-102427591D01*
X143518607Y-102461569D01*
X143501867Y-102492887D01*
X143479339Y-102520339D01*
X143451887Y-102542867D01*
X143420569Y-102559607D01*
X143386591Y-102569915D01*
X143345110Y-102574000D01*
X142743890Y-102574000D01*
X142702409Y-102569915D01*
X142668431Y-102559607D01*
X142637113Y-102542867D01*
X142609661Y-102520339D01*
X142587133Y-102492887D01*
X142570393Y-102461569D01*
X142560085Y-102427591D01*
X142556000Y-102386110D01*
X142556000Y-101709890D01*
X142560085Y-101668409D01*
X142570393Y-101634431D01*
X142587133Y-101603113D01*
X142609661Y-101575661D01*
X142637113Y-101553133D01*
X142668431Y-101536393D01*
X142702409Y-101526085D01*
X142743890Y-101522000D01*
X143345110Y-101522000D01*
X143386591Y-101526085D01*
X143386591Y-101526085D01*
G37*
G36*
X132422091Y-101078085D02*
X132456069Y-101088393D01*
X132487387Y-101105133D01*
X132514839Y-101127661D01*
X132537367Y-101155113D01*
X132554107Y-101186431D01*
X132564415Y-101220409D01*
X132568500Y-101261890D01*
X132568500Y-101938110D01*
X132564415Y-101979591D01*
X132554107Y-102013569D01*
X132537367Y-102044887D01*
X132514839Y-102072339D01*
X132487387Y-102094867D01*
X132456069Y-102111607D01*
X132422091Y-102121915D01*
X132380610Y-102126000D01*
X131779390Y-102126000D01*
X131737909Y-102121915D01*
X131703931Y-102111607D01*
X131672613Y-102094867D01*
X131645161Y-102072339D01*
X131622633Y-102044887D01*
X131605893Y-102013569D01*
X131595585Y-101979591D01*
X131591500Y-101938110D01*
X131591500Y-101261890D01*
X131595585Y-101220409D01*
X131605893Y-101186431D01*
X131622633Y-101155113D01*
X131645161Y-101127661D01*
X131672613Y-101105133D01*
X131703931Y-101088393D01*
X131737909Y-101078085D01*
X131779390Y-101074000D01*
X132380610Y-101074000D01*
X132422091Y-101078085D01*
X132422091Y-101078085D01*
G37*
G36*
X133997091Y-101078085D02*
X134031069Y-101088393D01*
X134062387Y-101105133D01*
X134089839Y-101127661D01*
X134112367Y-101155113D01*
X134129107Y-101186431D01*
X134139415Y-101220409D01*
X134143500Y-101261890D01*
X134143500Y-101938110D01*
X134139415Y-101979591D01*
X134129107Y-102013569D01*
X134112367Y-102044887D01*
X134089839Y-102072339D01*
X134062387Y-102094867D01*
X134031069Y-102111607D01*
X133997091Y-102121915D01*
X133955610Y-102126000D01*
X133354390Y-102126000D01*
X133312909Y-102121915D01*
X133278931Y-102111607D01*
X133247613Y-102094867D01*
X133220161Y-102072339D01*
X133197633Y-102044887D01*
X133180893Y-102013569D01*
X133170585Y-101979591D01*
X133166500Y-101938110D01*
X133166500Y-101261890D01*
X133170585Y-101220409D01*
X133180893Y-101186431D01*
X133197633Y-101155113D01*
X133220161Y-101127661D01*
X133247613Y-101105133D01*
X133278931Y-101088393D01*
X133312909Y-101078085D01*
X133354390Y-101074000D01*
X133955610Y-101074000D01*
X133997091Y-101078085D01*
X133997091Y-101078085D01*
G37*
G36*
X139063591Y-99642585D02*
X139097569Y-99652893D01*
X139128887Y-99669633D01*
X139156339Y-99692161D01*
X139178867Y-99719613D01*
X139195607Y-99750931D01*
X139205915Y-99784909D01*
X139210000Y-99826390D01*
X139210000Y-100427610D01*
X139205915Y-100469091D01*
X139195607Y-100503069D01*
X139178867Y-100534387D01*
X139156339Y-100561839D01*
X139128887Y-100584367D01*
X139097569Y-100601107D01*
X139063591Y-100611415D01*
X139022110Y-100615500D01*
X138345890Y-100615500D01*
X138304409Y-100611415D01*
X138270431Y-100601107D01*
X138239113Y-100584367D01*
X138211661Y-100561839D01*
X138189133Y-100534387D01*
X138172393Y-100503069D01*
X138162085Y-100469091D01*
X138158000Y-100427610D01*
X138158000Y-99826390D01*
X138162085Y-99784909D01*
X138172393Y-99750931D01*
X138189133Y-99719613D01*
X138211661Y-99692161D01*
X138239113Y-99669633D01*
X138270431Y-99652893D01*
X138304409Y-99642585D01*
X138345890Y-99638500D01*
X139022110Y-99638500D01*
X139063591Y-99642585D01*
X139063591Y-99642585D01*
G37*
G36*
X137031591Y-99591585D02*
X137065569Y-99601893D01*
X137096887Y-99618633D01*
X137124339Y-99641161D01*
X137146867Y-99668613D01*
X137163607Y-99699931D01*
X137173915Y-99733909D01*
X137178000Y-99775390D01*
X137178000Y-100376610D01*
X137173915Y-100418091D01*
X137163607Y-100452069D01*
X137146867Y-100483387D01*
X137124339Y-100510839D01*
X137096887Y-100533367D01*
X137065569Y-100550107D01*
X137031591Y-100560415D01*
X136990110Y-100564500D01*
X136313890Y-100564500D01*
X136272409Y-100560415D01*
X136238431Y-100550107D01*
X136207113Y-100533367D01*
X136179661Y-100510839D01*
X136157133Y-100483387D01*
X136140393Y-100452069D01*
X136130085Y-100418091D01*
X136126000Y-100376610D01*
X136126000Y-99775390D01*
X136130085Y-99733909D01*
X136140393Y-99699931D01*
X136157133Y-99668613D01*
X136179661Y-99641161D01*
X136207113Y-99618633D01*
X136238431Y-99601893D01*
X136272409Y-99591585D01*
X136313890Y-99587500D01*
X136990110Y-99587500D01*
X137031591Y-99591585D01*
X137031591Y-99591585D01*
G37*
G36*
X146047000Y-100061000D02*
X145545000Y-100061000D01*
X145545000Y-98059000D01*
X146047000Y-98059000D01*
X146047000Y-100061000D01*
X146047000Y-100061000D01*
G37*
G36*
X148447000Y-100061000D02*
X147945000Y-100061000D01*
X147945000Y-98059000D01*
X148447000Y-98059000D01*
X148447000Y-100061000D01*
X148447000Y-100061000D01*
G37*
G36*
X147247000Y-100061000D02*
X146745000Y-100061000D01*
X146745000Y-98059000D01*
X147247000Y-98059000D01*
X147247000Y-100061000D01*
X147247000Y-100061000D01*
G37*
G36*
X133742091Y-98878085D02*
X133776069Y-98888393D01*
X133807387Y-98905133D01*
X133834839Y-98927661D01*
X133857367Y-98955113D01*
X133874107Y-98986431D01*
X133884415Y-99020409D01*
X133888500Y-99061890D01*
X133888500Y-99738110D01*
X133884415Y-99779591D01*
X133874107Y-99813569D01*
X133857367Y-99844887D01*
X133834839Y-99872339D01*
X133807387Y-99894867D01*
X133776069Y-99911607D01*
X133742091Y-99921915D01*
X133700610Y-99926000D01*
X133099390Y-99926000D01*
X133057909Y-99921915D01*
X133023931Y-99911607D01*
X132992613Y-99894867D01*
X132965161Y-99872339D01*
X132942633Y-99844887D01*
X132925893Y-99813569D01*
X132915585Y-99779591D01*
X132911500Y-99738110D01*
X132911500Y-99061890D01*
X132915585Y-99020409D01*
X132925893Y-98986431D01*
X132942633Y-98955113D01*
X132965161Y-98927661D01*
X132992613Y-98905133D01*
X133023931Y-98888393D01*
X133057909Y-98878085D01*
X133099390Y-98874000D01*
X133700610Y-98874000D01*
X133742091Y-98878085D01*
X133742091Y-98878085D01*
G37*
G36*
X132167091Y-98878085D02*
X132201069Y-98888393D01*
X132232387Y-98905133D01*
X132259839Y-98927661D01*
X132282367Y-98955113D01*
X132299107Y-98986431D01*
X132309415Y-99020409D01*
X132313500Y-99061890D01*
X132313500Y-99738110D01*
X132309415Y-99779591D01*
X132299107Y-99813569D01*
X132282367Y-99844887D01*
X132259839Y-99872339D01*
X132232387Y-99894867D01*
X132201069Y-99911607D01*
X132167091Y-99921915D01*
X132125610Y-99926000D01*
X131524390Y-99926000D01*
X131482909Y-99921915D01*
X131448931Y-99911607D01*
X131417613Y-99894867D01*
X131390161Y-99872339D01*
X131367633Y-99844887D01*
X131350893Y-99813569D01*
X131340585Y-99779591D01*
X131336500Y-99738110D01*
X131336500Y-99061890D01*
X131340585Y-99020409D01*
X131350893Y-98986431D01*
X131367633Y-98955113D01*
X131390161Y-98927661D01*
X131417613Y-98905133D01*
X131448931Y-98888393D01*
X131482909Y-98878085D01*
X131524390Y-98874000D01*
X132125610Y-98874000D01*
X132167091Y-98878085D01*
X132167091Y-98878085D01*
G37*
G36*
X185870466Y-98313565D02*
X185909137Y-98325296D01*
X185944779Y-98344348D01*
X185976017Y-98369983D01*
X186001652Y-98401221D01*
X186020704Y-98436863D01*
X186032435Y-98475534D01*
X186037000Y-98521888D01*
X186037000Y-99598112D01*
X186032435Y-99644466D01*
X186020704Y-99683137D01*
X186001652Y-99718779D01*
X185976017Y-99750017D01*
X185944779Y-99775652D01*
X185909137Y-99794704D01*
X185870466Y-99806435D01*
X185824112Y-99811000D01*
X185172888Y-99811000D01*
X185126534Y-99806435D01*
X185087863Y-99794704D01*
X185052221Y-99775652D01*
X185020983Y-99750017D01*
X184995348Y-99718779D01*
X184976296Y-99683137D01*
X184964565Y-99644466D01*
X184960000Y-99598112D01*
X184960000Y-98521888D01*
X184964565Y-98475534D01*
X184976296Y-98436863D01*
X184995348Y-98401221D01*
X185020983Y-98369983D01*
X185052221Y-98344348D01*
X185087863Y-98325296D01*
X185126534Y-98313565D01*
X185172888Y-98309000D01*
X185824112Y-98309000D01*
X185870466Y-98313565D01*
X185870466Y-98313565D01*
G37*
G36*
X187745466Y-98313565D02*
X187784137Y-98325296D01*
X187819779Y-98344348D01*
X187851017Y-98369983D01*
X187876652Y-98401221D01*
X187895704Y-98436863D01*
X187907435Y-98475534D01*
X187912000Y-98521888D01*
X187912000Y-99598112D01*
X187907435Y-99644466D01*
X187895704Y-99683137D01*
X187876652Y-99718779D01*
X187851017Y-99750017D01*
X187819779Y-99775652D01*
X187784137Y-99794704D01*
X187745466Y-99806435D01*
X187699112Y-99811000D01*
X187047888Y-99811000D01*
X187001534Y-99806435D01*
X186962863Y-99794704D01*
X186927221Y-99775652D01*
X186895983Y-99750017D01*
X186870348Y-99718779D01*
X186851296Y-99683137D01*
X186839565Y-99644466D01*
X186835000Y-99598112D01*
X186835000Y-98521888D01*
X186839565Y-98475534D01*
X186851296Y-98436863D01*
X186870348Y-98401221D01*
X186895983Y-98369983D01*
X186927221Y-98344348D01*
X186962863Y-98325296D01*
X187001534Y-98313565D01*
X187047888Y-98309000D01*
X187699112Y-98309000D01*
X187745466Y-98313565D01*
X187745466Y-98313565D01*
G37*
G36*
X139063591Y-98067585D02*
X139097569Y-98077893D01*
X139128887Y-98094633D01*
X139156339Y-98117161D01*
X139178867Y-98144613D01*
X139195607Y-98175931D01*
X139205915Y-98209909D01*
X139210000Y-98251390D01*
X139210000Y-98852610D01*
X139205915Y-98894091D01*
X139195607Y-98928069D01*
X139178867Y-98959387D01*
X139156339Y-98986839D01*
X139128887Y-99009367D01*
X139097569Y-99026107D01*
X139063591Y-99036415D01*
X139022110Y-99040500D01*
X138345890Y-99040500D01*
X138304409Y-99036415D01*
X138270431Y-99026107D01*
X138239113Y-99009367D01*
X138211661Y-98986839D01*
X138189133Y-98959387D01*
X138172393Y-98928069D01*
X138162085Y-98894091D01*
X138158000Y-98852610D01*
X138158000Y-98251390D01*
X138162085Y-98209909D01*
X138172393Y-98175931D01*
X138189133Y-98144613D01*
X138211661Y-98117161D01*
X138239113Y-98094633D01*
X138270431Y-98077893D01*
X138304409Y-98067585D01*
X138345890Y-98063500D01*
X139022110Y-98063500D01*
X139063591Y-98067585D01*
X139063591Y-98067585D01*
G37*
G36*
X137031591Y-98016585D02*
X137065569Y-98026893D01*
X137096887Y-98043633D01*
X137124339Y-98066161D01*
X137146867Y-98093613D01*
X137163607Y-98124931D01*
X137173915Y-98158909D01*
X137178000Y-98200390D01*
X137178000Y-98801610D01*
X137173915Y-98843091D01*
X137163607Y-98877069D01*
X137146867Y-98908387D01*
X137124339Y-98935839D01*
X137096887Y-98958367D01*
X137065569Y-98975107D01*
X137031591Y-98985415D01*
X136990110Y-98989500D01*
X136313890Y-98989500D01*
X136272409Y-98985415D01*
X136238431Y-98975107D01*
X136207113Y-98958367D01*
X136179661Y-98935839D01*
X136157133Y-98908387D01*
X136140393Y-98877069D01*
X136130085Y-98843091D01*
X136126000Y-98801610D01*
X136126000Y-98200390D01*
X136130085Y-98158909D01*
X136140393Y-98124931D01*
X136157133Y-98093613D01*
X136179661Y-98066161D01*
X136207113Y-98043633D01*
X136238431Y-98026893D01*
X136272409Y-98016585D01*
X136313890Y-98012500D01*
X136990110Y-98012500D01*
X137031591Y-98016585D01*
X137031591Y-98016585D01*
G37*
G36*
X143167091Y-97903085D02*
X143201069Y-97913393D01*
X143232387Y-97930133D01*
X143259839Y-97952661D01*
X143282367Y-97980113D01*
X143299107Y-98011431D01*
X143309415Y-98045409D01*
X143313500Y-98086890D01*
X143313500Y-98763110D01*
X143309415Y-98804591D01*
X143299107Y-98838569D01*
X143282367Y-98869887D01*
X143259839Y-98897339D01*
X143232387Y-98919867D01*
X143201069Y-98936607D01*
X143167091Y-98946915D01*
X143125610Y-98951000D01*
X142524390Y-98951000D01*
X142482909Y-98946915D01*
X142448931Y-98936607D01*
X142417613Y-98919867D01*
X142390161Y-98897339D01*
X142367633Y-98869887D01*
X142350893Y-98838569D01*
X142340585Y-98804591D01*
X142336500Y-98763110D01*
X142336500Y-98086890D01*
X142340585Y-98045409D01*
X142350893Y-98011431D01*
X142367633Y-97980113D01*
X142390161Y-97952661D01*
X142417613Y-97930133D01*
X142448931Y-97913393D01*
X142482909Y-97903085D01*
X142524390Y-97899000D01*
X143125610Y-97899000D01*
X143167091Y-97903085D01*
X143167091Y-97903085D01*
G37*
G36*
X144742091Y-97903085D02*
X144776069Y-97913393D01*
X144807387Y-97930133D01*
X144834839Y-97952661D01*
X144857367Y-97980113D01*
X144874107Y-98011431D01*
X144884415Y-98045409D01*
X144888500Y-98086890D01*
X144888500Y-98763110D01*
X144884415Y-98804591D01*
X144874107Y-98838569D01*
X144857367Y-98869887D01*
X144834839Y-98897339D01*
X144807387Y-98919867D01*
X144776069Y-98936607D01*
X144742091Y-98946915D01*
X144700610Y-98951000D01*
X144099390Y-98951000D01*
X144057909Y-98946915D01*
X144023931Y-98936607D01*
X143992613Y-98919867D01*
X143965161Y-98897339D01*
X143942633Y-98869887D01*
X143925893Y-98838569D01*
X143915585Y-98804591D01*
X143911500Y-98763110D01*
X143911500Y-98086890D01*
X143915585Y-98045409D01*
X143925893Y-98011431D01*
X143942633Y-97980113D01*
X143965161Y-97952661D01*
X143992613Y-97930133D01*
X144023931Y-97913393D01*
X144057909Y-97903085D01*
X144099390Y-97899000D01*
X144700610Y-97899000D01*
X144742091Y-97903085D01*
X144742091Y-97903085D01*
G37*
G36*
X185948966Y-95773565D02*
X185987637Y-95785296D01*
X186023279Y-95804348D01*
X186054517Y-95829983D01*
X186080152Y-95861221D01*
X186099204Y-95896863D01*
X186110935Y-95935534D01*
X186115500Y-95981888D01*
X186115500Y-97058112D01*
X186110935Y-97104466D01*
X186099204Y-97143137D01*
X186080152Y-97178779D01*
X186054517Y-97210017D01*
X186023279Y-97235652D01*
X185987637Y-97254704D01*
X185948966Y-97266435D01*
X185902612Y-97271000D01*
X185251388Y-97271000D01*
X185205034Y-97266435D01*
X185166363Y-97254704D01*
X185130721Y-97235652D01*
X185099483Y-97210017D01*
X185073848Y-97178779D01*
X185054796Y-97143137D01*
X185043065Y-97104466D01*
X185038500Y-97058112D01*
X185038500Y-95981888D01*
X185043065Y-95935534D01*
X185054796Y-95896863D01*
X185073848Y-95861221D01*
X185099483Y-95829983D01*
X185130721Y-95804348D01*
X185166363Y-95785296D01*
X185205034Y-95773565D01*
X185251388Y-95769000D01*
X185902612Y-95769000D01*
X185948966Y-95773565D01*
X185948966Y-95773565D01*
G37*
G36*
X187823966Y-95773565D02*
X187862637Y-95785296D01*
X187898279Y-95804348D01*
X187929517Y-95829983D01*
X187955152Y-95861221D01*
X187974204Y-95896863D01*
X187985935Y-95935534D01*
X187990500Y-95981888D01*
X187990500Y-97058112D01*
X187985935Y-97104466D01*
X187974204Y-97143137D01*
X187955152Y-97178779D01*
X187929517Y-97210017D01*
X187898279Y-97235652D01*
X187862637Y-97254704D01*
X187823966Y-97266435D01*
X187777612Y-97271000D01*
X187126388Y-97271000D01*
X187080034Y-97266435D01*
X187041363Y-97254704D01*
X187005721Y-97235652D01*
X186974483Y-97210017D01*
X186948848Y-97178779D01*
X186929796Y-97143137D01*
X186918065Y-97104466D01*
X186913500Y-97058112D01*
X186913500Y-95981888D01*
X186918065Y-95935534D01*
X186929796Y-95896863D01*
X186948848Y-95861221D01*
X186974483Y-95829983D01*
X187005721Y-95804348D01*
X187041363Y-95785296D01*
X187080034Y-95773565D01*
X187126388Y-95769000D01*
X187777612Y-95769000D01*
X187823966Y-95773565D01*
X187823966Y-95773565D01*
G37*
G36*
X137401000Y-96701000D02*
X136399000Y-96701000D01*
X136399000Y-94899000D01*
X137401000Y-94899000D01*
X137401000Y-96701000D01*
X137401000Y-96701000D01*
G37*
G36*
X134001000Y-96701000D02*
X132999000Y-96701000D01*
X132999000Y-94899000D01*
X134001000Y-94899000D01*
X134001000Y-96701000D01*
X134001000Y-96701000D01*
G37*
G36*
X143455357Y-90475083D02*
X143460028Y-90476500D01*
X143464330Y-90478800D01*
X143470705Y-90484031D01*
X143491080Y-90497644D01*
X143513719Y-90507020D01*
X143537753Y-90511800D01*
X143562257Y-90511799D01*
X143586291Y-90507017D01*
X143608929Y-90497639D01*
X143629295Y-90484031D01*
X143635670Y-90478800D01*
X143639972Y-90476500D01*
X143644643Y-90475083D01*
X143655641Y-90474000D01*
X143944359Y-90474000D01*
X143955357Y-90475083D01*
X143960028Y-90476500D01*
X143964330Y-90478800D01*
X143970705Y-90484031D01*
X143991080Y-90497644D01*
X144013719Y-90507020D01*
X144037753Y-90511800D01*
X144062257Y-90511799D01*
X144086291Y-90507017D01*
X144108929Y-90497639D01*
X144129295Y-90484031D01*
X144135670Y-90478800D01*
X144139972Y-90476500D01*
X144144643Y-90475083D01*
X144155641Y-90474000D01*
X144444359Y-90474000D01*
X144455357Y-90475083D01*
X144460028Y-90476500D01*
X144464330Y-90478800D01*
X144470705Y-90484031D01*
X144491080Y-90497644D01*
X144513719Y-90507020D01*
X144537753Y-90511800D01*
X144562257Y-90511799D01*
X144586291Y-90507017D01*
X144608929Y-90497639D01*
X144629295Y-90484031D01*
X144635670Y-90478800D01*
X144639972Y-90476500D01*
X144644643Y-90475083D01*
X144655641Y-90474000D01*
X144944359Y-90474000D01*
X144955357Y-90475083D01*
X144960028Y-90476500D01*
X144964330Y-90478800D01*
X144970705Y-90484031D01*
X144991080Y-90497644D01*
X145013719Y-90507020D01*
X145037753Y-90511800D01*
X145062257Y-90511799D01*
X145086291Y-90507017D01*
X145108929Y-90497639D01*
X145129295Y-90484031D01*
X145135670Y-90478800D01*
X145139972Y-90476500D01*
X145144643Y-90475083D01*
X145155641Y-90474000D01*
X145444359Y-90474000D01*
X145455357Y-90475083D01*
X145460028Y-90476500D01*
X145464330Y-90478800D01*
X145470705Y-90484031D01*
X145491080Y-90497644D01*
X145513719Y-90507020D01*
X145537753Y-90511800D01*
X145562257Y-90511799D01*
X145586291Y-90507017D01*
X145608929Y-90497639D01*
X145629295Y-90484031D01*
X145635670Y-90478800D01*
X145639972Y-90476500D01*
X145644643Y-90475083D01*
X145655641Y-90474000D01*
X145944359Y-90474000D01*
X145955357Y-90475083D01*
X145960028Y-90476500D01*
X145964330Y-90478800D01*
X145970705Y-90484031D01*
X145991080Y-90497644D01*
X146013719Y-90507020D01*
X146037753Y-90511800D01*
X146062257Y-90511799D01*
X146086291Y-90507017D01*
X146108929Y-90497639D01*
X146129295Y-90484031D01*
X146135670Y-90478800D01*
X146139972Y-90476500D01*
X146144643Y-90475083D01*
X146155641Y-90474000D01*
X146444359Y-90474000D01*
X146455357Y-90475083D01*
X146460028Y-90476500D01*
X146464330Y-90478800D01*
X146470705Y-90484031D01*
X146491080Y-90497644D01*
X146513719Y-90507020D01*
X146537753Y-90511800D01*
X146562257Y-90511799D01*
X146586291Y-90507017D01*
X146608929Y-90497639D01*
X146629295Y-90484031D01*
X146635670Y-90478800D01*
X146639972Y-90476500D01*
X146644643Y-90475083D01*
X146655641Y-90474000D01*
X146944359Y-90474000D01*
X146955357Y-90475083D01*
X146960028Y-90476500D01*
X146964330Y-90478800D01*
X146968104Y-90481896D01*
X146971200Y-90485670D01*
X146973500Y-90489972D01*
X146974917Y-90494643D01*
X146976000Y-90505641D01*
X146976000Y-91311500D01*
X146978402Y-91335886D01*
X146985515Y-91359335D01*
X146997066Y-91380946D01*
X147012612Y-91399888D01*
X147031554Y-91415434D01*
X147053165Y-91426985D01*
X147076614Y-91434098D01*
X147101000Y-91436500D01*
X147906859Y-91436500D01*
X147917857Y-91437583D01*
X147922528Y-91439000D01*
X147926830Y-91441300D01*
X147930604Y-91444396D01*
X147933700Y-91448170D01*
X147936000Y-91452472D01*
X147937417Y-91457143D01*
X147938500Y-91468141D01*
X147938500Y-91756859D01*
X147937417Y-91767857D01*
X147936000Y-91772528D01*
X147933700Y-91776830D01*
X147928469Y-91783205D01*
X147914856Y-91803580D01*
X147905480Y-91826219D01*
X147900700Y-91850253D01*
X147900701Y-91874757D01*
X147905483Y-91898791D01*
X147914861Y-91921429D01*
X147928469Y-91941795D01*
X147933700Y-91948170D01*
X147936000Y-91952472D01*
X147937417Y-91957143D01*
X147938500Y-91968141D01*
X147938500Y-92256859D01*
X147937417Y-92267857D01*
X147936000Y-92272528D01*
X147933700Y-92276830D01*
X147928469Y-92283205D01*
X147914856Y-92303580D01*
X147905480Y-92326219D01*
X147900700Y-92350253D01*
X147900701Y-92374757D01*
X147905483Y-92398791D01*
X147914861Y-92421429D01*
X147928469Y-92441795D01*
X147933700Y-92448170D01*
X147936000Y-92452472D01*
X147937417Y-92457143D01*
X147938500Y-92468141D01*
X147938500Y-92756859D01*
X147937417Y-92767857D01*
X147936000Y-92772528D01*
X147933700Y-92776830D01*
X147928469Y-92783205D01*
X147914856Y-92803580D01*
X147905480Y-92826219D01*
X147900700Y-92850253D01*
X147900701Y-92874757D01*
X147905483Y-92898791D01*
X147914861Y-92921429D01*
X147928469Y-92941795D01*
X147933700Y-92948170D01*
X147936000Y-92952472D01*
X147937417Y-92957143D01*
X147938500Y-92968141D01*
X147938500Y-93256859D01*
X147937417Y-93267857D01*
X147936000Y-93272528D01*
X147933700Y-93276830D01*
X147928469Y-93283205D01*
X147914856Y-93303580D01*
X147905480Y-93326219D01*
X147900700Y-93350253D01*
X147900701Y-93374757D01*
X147905483Y-93398791D01*
X147914861Y-93421429D01*
X147928469Y-93441795D01*
X147933700Y-93448170D01*
X147936000Y-93452472D01*
X147937417Y-93457143D01*
X147938500Y-93468141D01*
X147938500Y-93756859D01*
X147937417Y-93767857D01*
X147936000Y-93772528D01*
X147933700Y-93776830D01*
X147928469Y-93783205D01*
X147914856Y-93803580D01*
X147905480Y-93826219D01*
X147900700Y-93850253D01*
X147900701Y-93874757D01*
X147905483Y-93898791D01*
X147914861Y-93921429D01*
X147928469Y-93941795D01*
X147933700Y-93948170D01*
X147936000Y-93952472D01*
X147937417Y-93957143D01*
X147938500Y-93968141D01*
X147938500Y-94256859D01*
X147937417Y-94267857D01*
X147936000Y-94272528D01*
X147933700Y-94276830D01*
X147928469Y-94283205D01*
X147914856Y-94303580D01*
X147905480Y-94326219D01*
X147900700Y-94350253D01*
X147900701Y-94374757D01*
X147905483Y-94398791D01*
X147914861Y-94421429D01*
X147928469Y-94441795D01*
X147933700Y-94448170D01*
X147936000Y-94452472D01*
X147937417Y-94457143D01*
X147938500Y-94468141D01*
X147938500Y-94756859D01*
X147937417Y-94767857D01*
X147936000Y-94772528D01*
X147933700Y-94776830D01*
X147928469Y-94783205D01*
X147914856Y-94803580D01*
X147905480Y-94826219D01*
X147900700Y-94850253D01*
X147900701Y-94874757D01*
X147905483Y-94898791D01*
X147914861Y-94921429D01*
X147928469Y-94941795D01*
X147933700Y-94948170D01*
X147936000Y-94952472D01*
X147937417Y-94957143D01*
X147938500Y-94968141D01*
X147938500Y-95256859D01*
X147937417Y-95267857D01*
X147936000Y-95272528D01*
X147933700Y-95276830D01*
X147930604Y-95280604D01*
X147926830Y-95283700D01*
X147922528Y-95286000D01*
X147917857Y-95287417D01*
X147906859Y-95288500D01*
X147101000Y-95288500D01*
X147076614Y-95290902D01*
X147053165Y-95298015D01*
X147031554Y-95309566D01*
X147012612Y-95325112D01*
X146997066Y-95344054D01*
X146985515Y-95365665D01*
X146978402Y-95389114D01*
X146976000Y-95413500D01*
X146976000Y-96219359D01*
X146974917Y-96230357D01*
X146973500Y-96235028D01*
X146971200Y-96239330D01*
X146968104Y-96243104D01*
X146964330Y-96246200D01*
X146960028Y-96248500D01*
X146955357Y-96249917D01*
X146944359Y-96251000D01*
X146655641Y-96251000D01*
X146644643Y-96249917D01*
X146639972Y-96248500D01*
X146635670Y-96246200D01*
X146629295Y-96240969D01*
X146608920Y-96227356D01*
X146586281Y-96217980D01*
X146562247Y-96213200D01*
X146537743Y-96213201D01*
X146513709Y-96217983D01*
X146491071Y-96227361D01*
X146470705Y-96240969D01*
X146464330Y-96246200D01*
X146460028Y-96248500D01*
X146455357Y-96249917D01*
X146444359Y-96251000D01*
X146155641Y-96251000D01*
X146144643Y-96249917D01*
X146139972Y-96248500D01*
X146135670Y-96246200D01*
X146129295Y-96240969D01*
X146108920Y-96227356D01*
X146086281Y-96217980D01*
X146062247Y-96213200D01*
X146037743Y-96213201D01*
X146013709Y-96217983D01*
X145991071Y-96227361D01*
X145970705Y-96240969D01*
X145964330Y-96246200D01*
X145960028Y-96248500D01*
X145955357Y-96249917D01*
X145944359Y-96251000D01*
X145655641Y-96251000D01*
X145644643Y-96249917D01*
X145639972Y-96248500D01*
X145635670Y-96246200D01*
X145629295Y-96240969D01*
X145608920Y-96227356D01*
X145586281Y-96217980D01*
X145562247Y-96213200D01*
X145537743Y-96213201D01*
X145513709Y-96217983D01*
X145491071Y-96227361D01*
X145470705Y-96240969D01*
X145464330Y-96246200D01*
X145460028Y-96248500D01*
X145455357Y-96249917D01*
X145444359Y-96251000D01*
X145155641Y-96251000D01*
X145144643Y-96249917D01*
X145139972Y-96248500D01*
X145135670Y-96246200D01*
X145129295Y-96240969D01*
X145108920Y-96227356D01*
X145086281Y-96217980D01*
X145062247Y-96213200D01*
X145037743Y-96213201D01*
X145013709Y-96217983D01*
X144991071Y-96227361D01*
X144970705Y-96240969D01*
X144964330Y-96246200D01*
X144960028Y-96248500D01*
X144955357Y-96249917D01*
X144944359Y-96251000D01*
X144655641Y-96251000D01*
X144644643Y-96249917D01*
X144639972Y-96248500D01*
X144635670Y-96246200D01*
X144629295Y-96240969D01*
X144608920Y-96227356D01*
X144586281Y-96217980D01*
X144562247Y-96213200D01*
X144537743Y-96213201D01*
X144513709Y-96217983D01*
X144491071Y-96227361D01*
X144470705Y-96240969D01*
X144464330Y-96246200D01*
X144460028Y-96248500D01*
X144455357Y-96249917D01*
X144444359Y-96251000D01*
X144155641Y-96251000D01*
X144144643Y-96249917D01*
X144139972Y-96248500D01*
X144135670Y-96246200D01*
X144129295Y-96240969D01*
X144108920Y-96227356D01*
X144086281Y-96217980D01*
X144062247Y-96213200D01*
X144037743Y-96213201D01*
X144013709Y-96217983D01*
X143991071Y-96227361D01*
X143970705Y-96240969D01*
X143964330Y-96246200D01*
X143960028Y-96248500D01*
X143955357Y-96249917D01*
X143944359Y-96251000D01*
X143655641Y-96251000D01*
X143644643Y-96249917D01*
X143639972Y-96248500D01*
X143635670Y-96246200D01*
X143629295Y-96240969D01*
X143608920Y-96227356D01*
X143586281Y-96217980D01*
X143562247Y-96213200D01*
X143537743Y-96213201D01*
X143513709Y-96217983D01*
X143491071Y-96227361D01*
X143470705Y-96240969D01*
X143464330Y-96246200D01*
X143460028Y-96248500D01*
X143455357Y-96249917D01*
X143444359Y-96251000D01*
X143155641Y-96251000D01*
X143144643Y-96249917D01*
X143139972Y-96248500D01*
X143135670Y-96246200D01*
X143131896Y-96243104D01*
X143128800Y-96239330D01*
X143126500Y-96235028D01*
X143125083Y-96230357D01*
X143124000Y-96219359D01*
X143124000Y-95413500D01*
X143121598Y-95389114D01*
X143114485Y-95365665D01*
X143102934Y-95344054D01*
X143087388Y-95325112D01*
X143068446Y-95309566D01*
X143046835Y-95298015D01*
X143023386Y-95290902D01*
X142999000Y-95288500D01*
X142193141Y-95288500D01*
X142182143Y-95287417D01*
X142177472Y-95286000D01*
X142173170Y-95283700D01*
X142169396Y-95280604D01*
X142166300Y-95276830D01*
X142164000Y-95272528D01*
X142162583Y-95267857D01*
X142161500Y-95256859D01*
X142161500Y-94968141D01*
X142162583Y-94957143D01*
X142164000Y-94952472D01*
X142166300Y-94948170D01*
X142171531Y-94941795D01*
X142185144Y-94921420D01*
X142194520Y-94898781D01*
X142199300Y-94874747D01*
X142199299Y-94850243D01*
X142194517Y-94826209D01*
X142185139Y-94803571D01*
X142171531Y-94783205D01*
X142166300Y-94776830D01*
X142164000Y-94772528D01*
X142162583Y-94767857D01*
X142161500Y-94756859D01*
X142161500Y-94468141D01*
X142162583Y-94457143D01*
X142164000Y-94452472D01*
X142166300Y-94448170D01*
X142171531Y-94441795D01*
X142185144Y-94421420D01*
X142194520Y-94398781D01*
X142199300Y-94374747D01*
X142199299Y-94350243D01*
X142194517Y-94326209D01*
X142185139Y-94303571D01*
X142171531Y-94283205D01*
X142166300Y-94276830D01*
X142164000Y-94272528D01*
X142162583Y-94267857D01*
X142161500Y-94256859D01*
X142161500Y-93968141D01*
X142162583Y-93957143D01*
X142164000Y-93952472D01*
X142166300Y-93948170D01*
X142171531Y-93941795D01*
X142185144Y-93921420D01*
X142194520Y-93898781D01*
X142199300Y-93874747D01*
X142199299Y-93850243D01*
X142194517Y-93826209D01*
X142185139Y-93803571D01*
X142171531Y-93783205D01*
X142166300Y-93776830D01*
X142164000Y-93772528D01*
X142162583Y-93767857D01*
X142161500Y-93756859D01*
X142161500Y-93468141D01*
X142162583Y-93457143D01*
X142164000Y-93452472D01*
X142166300Y-93448170D01*
X142171531Y-93441795D01*
X142185144Y-93421420D01*
X142194520Y-93398781D01*
X142199300Y-93374747D01*
X142199299Y-93350243D01*
X142194517Y-93326209D01*
X142185139Y-93303571D01*
X142171531Y-93283205D01*
X142166300Y-93276830D01*
X142164000Y-93272528D01*
X142162583Y-93267857D01*
X142161500Y-93256859D01*
X142161500Y-92968141D01*
X142162583Y-92957143D01*
X142164000Y-92952472D01*
X142166300Y-92948170D01*
X142171531Y-92941795D01*
X142185144Y-92921420D01*
X142194520Y-92898781D01*
X142199300Y-92874747D01*
X142199299Y-92850243D01*
X142194517Y-92826209D01*
X142185139Y-92803571D01*
X142171531Y-92783205D01*
X142166300Y-92776830D01*
X142164000Y-92772528D01*
X142162583Y-92767857D01*
X142161500Y-92756859D01*
X142161500Y-92468141D01*
X142162583Y-92457143D01*
X142164000Y-92452472D01*
X142166300Y-92448170D01*
X142171531Y-92441795D01*
X142185144Y-92421420D01*
X142194520Y-92398781D01*
X142199300Y-92374747D01*
X142199299Y-92350243D01*
X142194517Y-92326209D01*
X142185139Y-92303571D01*
X142171531Y-92283205D01*
X142166300Y-92276830D01*
X142164000Y-92272528D01*
X142162583Y-92267857D01*
X142161500Y-92256859D01*
X142161500Y-91968141D01*
X142162583Y-91957143D01*
X142164000Y-91952472D01*
X142166300Y-91948170D01*
X142171531Y-91941795D01*
X142185144Y-91921420D01*
X142194520Y-91898781D01*
X142199300Y-91874747D01*
X142199300Y-91850253D01*
X143025700Y-91850253D01*
X143025701Y-91874757D01*
X143030483Y-91898791D01*
X143039861Y-91921429D01*
X143053469Y-91941795D01*
X143058700Y-91948170D01*
X143061000Y-91952472D01*
X143062417Y-91957143D01*
X143063500Y-91968141D01*
X143063500Y-92256859D01*
X143062417Y-92267857D01*
X143061000Y-92272528D01*
X143058700Y-92276830D01*
X143053469Y-92283205D01*
X143039856Y-92303580D01*
X143030480Y-92326219D01*
X143025700Y-92350253D01*
X143025701Y-92374757D01*
X143030483Y-92398791D01*
X143039861Y-92421429D01*
X143053469Y-92441795D01*
X143058700Y-92448170D01*
X143061000Y-92452472D01*
X143062417Y-92457143D01*
X143063500Y-92468141D01*
X143063500Y-92756859D01*
X143062417Y-92767857D01*
X143061000Y-92772528D01*
X143058700Y-92776830D01*
X143053469Y-92783205D01*
X143039856Y-92803580D01*
X143030480Y-92826219D01*
X143025700Y-92850253D01*
X143025701Y-92874757D01*
X143030483Y-92898791D01*
X143039861Y-92921429D01*
X143053469Y-92941795D01*
X143058700Y-92948170D01*
X143061000Y-92952472D01*
X143062417Y-92957143D01*
X143063500Y-92968141D01*
X143063500Y-93256859D01*
X143062417Y-93267857D01*
X143061000Y-93272528D01*
X143058700Y-93276830D01*
X143053469Y-93283205D01*
X143039856Y-93303580D01*
X143030480Y-93326219D01*
X143025700Y-93350253D01*
X143025701Y-93374757D01*
X143030483Y-93398791D01*
X143039861Y-93421429D01*
X143053469Y-93441795D01*
X143058700Y-93448170D01*
X143061000Y-93452472D01*
X143062417Y-93457143D01*
X143063500Y-93468141D01*
X143063500Y-93756859D01*
X143062417Y-93767857D01*
X143061000Y-93772528D01*
X143058700Y-93776830D01*
X143053469Y-93783205D01*
X143039856Y-93803580D01*
X143030480Y-93826219D01*
X143025700Y-93850253D01*
X143025701Y-93874757D01*
X143030483Y-93898791D01*
X143039861Y-93921429D01*
X143053469Y-93941795D01*
X143058700Y-93948170D01*
X143061000Y-93952472D01*
X143062417Y-93957143D01*
X143063500Y-93968141D01*
X143063500Y-94256859D01*
X143062417Y-94267857D01*
X143061000Y-94272528D01*
X143058700Y-94276830D01*
X143053469Y-94283205D01*
X143039856Y-94303580D01*
X143030480Y-94326219D01*
X143025700Y-94350253D01*
X143025701Y-94374757D01*
X143030483Y-94398791D01*
X143039861Y-94421429D01*
X143053469Y-94441795D01*
X143058700Y-94448170D01*
X143061000Y-94452472D01*
X143062417Y-94457143D01*
X143063500Y-94468141D01*
X143063500Y-94756859D01*
X143062417Y-94767857D01*
X143061000Y-94772528D01*
X143058700Y-94776830D01*
X143053469Y-94783205D01*
X143039856Y-94803580D01*
X143030480Y-94826219D01*
X143025700Y-94850253D01*
X143025701Y-94874757D01*
X143030483Y-94898791D01*
X143039861Y-94921429D01*
X143053469Y-94941795D01*
X143058700Y-94948170D01*
X143061000Y-94952472D01*
X143062417Y-94957143D01*
X143063500Y-94968141D01*
X143063500Y-95224000D01*
X143065902Y-95248386D01*
X143073015Y-95271835D01*
X143084566Y-95293446D01*
X143100112Y-95312388D01*
X143119054Y-95327934D01*
X143140665Y-95339485D01*
X143164114Y-95346598D01*
X143188500Y-95349000D01*
X143444359Y-95349000D01*
X143455357Y-95350083D01*
X143460028Y-95351500D01*
X143464330Y-95353800D01*
X143470705Y-95359031D01*
X143491080Y-95372644D01*
X143513719Y-95382020D01*
X143537753Y-95386800D01*
X143562257Y-95386799D01*
X143586291Y-95382017D01*
X143608929Y-95372639D01*
X143629295Y-95359031D01*
X143635670Y-95353800D01*
X143639972Y-95351500D01*
X143644643Y-95350083D01*
X143655641Y-95349000D01*
X143944359Y-95349000D01*
X143955357Y-95350083D01*
X143960028Y-95351500D01*
X143964330Y-95353800D01*
X143970705Y-95359031D01*
X143991080Y-95372644D01*
X144013719Y-95382020D01*
X144037753Y-95386800D01*
X144062257Y-95386799D01*
X144086291Y-95382017D01*
X144108929Y-95372639D01*
X144129295Y-95359031D01*
X144135670Y-95353800D01*
X144139972Y-95351500D01*
X144144643Y-95350083D01*
X144155641Y-95349000D01*
X144444359Y-95349000D01*
X144455357Y-95350083D01*
X144460028Y-95351500D01*
X144464330Y-95353800D01*
X144470705Y-95359031D01*
X144491080Y-95372644D01*
X144513719Y-95382020D01*
X144537753Y-95386800D01*
X144562257Y-95386799D01*
X144586291Y-95382017D01*
X144608929Y-95372639D01*
X144629295Y-95359031D01*
X144635670Y-95353800D01*
X144639972Y-95351500D01*
X144644643Y-95350083D01*
X144655641Y-95349000D01*
X144944359Y-95349000D01*
X144955357Y-95350083D01*
X144960028Y-95351500D01*
X144964330Y-95353800D01*
X144970705Y-95359031D01*
X144991080Y-95372644D01*
X145013719Y-95382020D01*
X145037753Y-95386800D01*
X145062257Y-95386799D01*
X145086291Y-95382017D01*
X145108929Y-95372639D01*
X145129295Y-95359031D01*
X145135670Y-95353800D01*
X145139972Y-95351500D01*
X145144643Y-95350083D01*
X145155641Y-95349000D01*
X145444359Y-95349000D01*
X145455357Y-95350083D01*
X145460028Y-95351500D01*
X145464330Y-95353800D01*
X145470705Y-95359031D01*
X145491080Y-95372644D01*
X145513719Y-95382020D01*
X145537753Y-95386800D01*
X145562257Y-95386799D01*
X145586291Y-95382017D01*
X145608929Y-95372639D01*
X145629295Y-95359031D01*
X145635670Y-95353800D01*
X145639972Y-95351500D01*
X145644643Y-95350083D01*
X145655641Y-95349000D01*
X145944359Y-95349000D01*
X145955357Y-95350083D01*
X145960028Y-95351500D01*
X145964330Y-95353800D01*
X145970705Y-95359031D01*
X145991080Y-95372644D01*
X146013719Y-95382020D01*
X146037753Y-95386800D01*
X146062257Y-95386799D01*
X146086291Y-95382017D01*
X146108929Y-95372639D01*
X146129295Y-95359031D01*
X146135670Y-95353800D01*
X146139972Y-95351500D01*
X146144643Y-95350083D01*
X146155641Y-95349000D01*
X146444359Y-95349000D01*
X146455357Y-95350083D01*
X146460028Y-95351500D01*
X146464330Y-95353800D01*
X146470705Y-95359031D01*
X146491080Y-95372644D01*
X146513719Y-95382020D01*
X146537753Y-95386800D01*
X146562257Y-95386799D01*
X146586291Y-95382017D01*
X146608929Y-95372639D01*
X146629295Y-95359031D01*
X146635670Y-95353800D01*
X146639972Y-95351500D01*
X146644643Y-95350083D01*
X146655641Y-95349000D01*
X146911500Y-95349000D01*
X146935886Y-95346598D01*
X146959335Y-95339485D01*
X146980946Y-95327934D01*
X146999888Y-95312388D01*
X147015434Y-95293446D01*
X147026985Y-95271835D01*
X147034098Y-95248386D01*
X147036500Y-95224000D01*
X147036500Y-94968141D01*
X147037583Y-94957143D01*
X147039000Y-94952472D01*
X147041300Y-94948170D01*
X147046531Y-94941795D01*
X147060144Y-94921420D01*
X147069520Y-94898781D01*
X147074300Y-94874747D01*
X147074299Y-94850243D01*
X147069517Y-94826209D01*
X147060139Y-94803571D01*
X147046531Y-94783205D01*
X147041300Y-94776830D01*
X147039000Y-94772528D01*
X147037583Y-94767857D01*
X147036500Y-94756859D01*
X147036500Y-94468141D01*
X147037583Y-94457143D01*
X147039000Y-94452472D01*
X147041300Y-94448170D01*
X147046531Y-94441795D01*
X147060144Y-94421420D01*
X147069520Y-94398781D01*
X147074300Y-94374747D01*
X147074299Y-94350243D01*
X147069517Y-94326209D01*
X147060139Y-94303571D01*
X147046531Y-94283205D01*
X147041300Y-94276830D01*
X147039000Y-94272528D01*
X147037583Y-94267857D01*
X147036500Y-94256859D01*
X147036500Y-93968141D01*
X147037583Y-93957143D01*
X147039000Y-93952472D01*
X147041300Y-93948170D01*
X147046531Y-93941795D01*
X147060144Y-93921420D01*
X147069520Y-93898781D01*
X147074300Y-93874747D01*
X147074299Y-93850243D01*
X147069517Y-93826209D01*
X147060139Y-93803571D01*
X147046531Y-93783205D01*
X147041300Y-93776830D01*
X147039000Y-93772528D01*
X147037583Y-93767857D01*
X147036500Y-93756859D01*
X147036500Y-93468141D01*
X147037583Y-93457143D01*
X147039000Y-93452472D01*
X147041300Y-93448170D01*
X147046531Y-93441795D01*
X147060144Y-93421420D01*
X147069520Y-93398781D01*
X147074300Y-93374747D01*
X147074299Y-93350243D01*
X147069517Y-93326209D01*
X147060139Y-93303571D01*
X147046531Y-93283205D01*
X147041300Y-93276830D01*
X147039000Y-93272528D01*
X147037583Y-93267857D01*
X147036500Y-93256859D01*
X147036500Y-92968141D01*
X147037583Y-92957143D01*
X147039000Y-92952472D01*
X147041300Y-92948170D01*
X147046531Y-92941795D01*
X147060144Y-92921420D01*
X147069520Y-92898781D01*
X147074300Y-92874747D01*
X147074299Y-92850243D01*
X147069517Y-92826209D01*
X147060139Y-92803571D01*
X147046531Y-92783205D01*
X147041300Y-92776830D01*
X147039000Y-92772528D01*
X147037583Y-92767857D01*
X147036500Y-92756859D01*
X147036500Y-92468141D01*
X147037583Y-92457143D01*
X147039000Y-92452472D01*
X147041300Y-92448170D01*
X147046531Y-92441795D01*
X147060144Y-92421420D01*
X147069520Y-92398781D01*
X147074300Y-92374747D01*
X147074299Y-92350243D01*
X147069517Y-92326209D01*
X147060139Y-92303571D01*
X147046531Y-92283205D01*
X147041300Y-92276830D01*
X147039000Y-92272528D01*
X147037583Y-92267857D01*
X147036500Y-92256859D01*
X147036500Y-91968141D01*
X147037583Y-91957143D01*
X147039000Y-91952472D01*
X147041300Y-91948170D01*
X147046531Y-91941795D01*
X147060144Y-91921420D01*
X147069520Y-91898781D01*
X147074300Y-91874747D01*
X147074299Y-91850243D01*
X147069517Y-91826209D01*
X147060139Y-91803571D01*
X147046531Y-91783205D01*
X147041300Y-91776830D01*
X147039000Y-91772528D01*
X147037583Y-91767857D01*
X147036500Y-91756859D01*
X147036500Y-91501000D01*
X147034098Y-91476614D01*
X147026985Y-91453165D01*
X147015434Y-91431554D01*
X146999888Y-91412612D01*
X146980946Y-91397066D01*
X146959335Y-91385515D01*
X146935886Y-91378402D01*
X146911500Y-91376000D01*
X146655641Y-91376000D01*
X146644643Y-91374917D01*
X146639972Y-91373500D01*
X146635670Y-91371200D01*
X146629295Y-91365969D01*
X146608920Y-91352356D01*
X146586281Y-91342980D01*
X146562247Y-91338200D01*
X146537743Y-91338201D01*
X146513709Y-91342983D01*
X146491071Y-91352361D01*
X146470705Y-91365969D01*
X146464330Y-91371200D01*
X146460028Y-91373500D01*
X146455357Y-91374917D01*
X146444359Y-91376000D01*
X146155641Y-91376000D01*
X146144643Y-91374917D01*
X146139972Y-91373500D01*
X146135670Y-91371200D01*
X146129295Y-91365969D01*
X146108920Y-91352356D01*
X146086281Y-91342980D01*
X146062247Y-91338200D01*
X146037743Y-91338201D01*
X146013709Y-91342983D01*
X145991071Y-91352361D01*
X145970705Y-91365969D01*
X145964330Y-91371200D01*
X145960028Y-91373500D01*
X145955357Y-91374917D01*
X145944359Y-91376000D01*
X145655641Y-91376000D01*
X145644643Y-91374917D01*
X145639972Y-91373500D01*
X145635670Y-91371200D01*
X145629295Y-91365969D01*
X145608920Y-91352356D01*
X145586281Y-91342980D01*
X145562247Y-91338200D01*
X145537743Y-91338201D01*
X145513709Y-91342983D01*
X145491071Y-91352361D01*
X145470705Y-91365969D01*
X145464330Y-91371200D01*
X145460028Y-91373500D01*
X145455357Y-91374917D01*
X145444359Y-91376000D01*
X145155641Y-91376000D01*
X145144643Y-91374917D01*
X145139972Y-91373500D01*
X145135670Y-91371200D01*
X145129295Y-91365969D01*
X145108920Y-91352356D01*
X145086281Y-91342980D01*
X145062247Y-91338200D01*
X145037743Y-91338201D01*
X145013709Y-91342983D01*
X144991071Y-91352361D01*
X144970705Y-91365969D01*
X144964330Y-91371200D01*
X144960028Y-91373500D01*
X144955357Y-91374917D01*
X144944359Y-91376000D01*
X144655641Y-91376000D01*
X144644643Y-91374917D01*
X144639972Y-91373500D01*
X144635670Y-91371200D01*
X144629295Y-91365969D01*
X144608920Y-91352356D01*
X144586281Y-91342980D01*
X144562247Y-91338200D01*
X144537743Y-91338201D01*
X144513709Y-91342983D01*
X144491071Y-91352361D01*
X144470705Y-91365969D01*
X144464330Y-91371200D01*
X144460028Y-91373500D01*
X144455357Y-91374917D01*
X144444359Y-91376000D01*
X144155641Y-91376000D01*
X144144643Y-91374917D01*
X144139972Y-91373500D01*
X144135670Y-91371200D01*
X144129295Y-91365969D01*
X144108920Y-91352356D01*
X144086281Y-91342980D01*
X144062247Y-91338200D01*
X144037743Y-91338201D01*
X144013709Y-91342983D01*
X143991071Y-91352361D01*
X143970705Y-91365969D01*
X143964330Y-91371200D01*
X143960028Y-91373500D01*
X143955357Y-91374917D01*
X143944359Y-91376000D01*
X143655641Y-91376000D01*
X143644643Y-91374917D01*
X143639972Y-91373500D01*
X143635670Y-91371200D01*
X143629295Y-91365969D01*
X143608920Y-91352356D01*
X143586281Y-91342980D01*
X143562247Y-91338200D01*
X143537743Y-91338201D01*
X143513709Y-91342983D01*
X143491071Y-91352361D01*
X143470705Y-91365969D01*
X143464330Y-91371200D01*
X143460028Y-91373500D01*
X143455357Y-91374917D01*
X143444359Y-91376000D01*
X143188500Y-91376000D01*
X143164114Y-91378402D01*
X143140665Y-91385515D01*
X143119054Y-91397066D01*
X143100112Y-91412612D01*
X143084566Y-91431554D01*
X143073015Y-91453165D01*
X143065902Y-91476614D01*
X143063500Y-91501000D01*
X143063500Y-91756859D01*
X143062417Y-91767857D01*
X143061000Y-91772528D01*
X143058700Y-91776830D01*
X143053469Y-91783205D01*
X143039856Y-91803580D01*
X143030480Y-91826219D01*
X143025700Y-91850253D01*
X142199300Y-91850253D01*
X142199299Y-91850243D01*
X142194517Y-91826209D01*
X142185139Y-91803571D01*
X142171531Y-91783205D01*
X142166300Y-91776830D01*
X142164000Y-91772528D01*
X142162583Y-91767857D01*
X142161500Y-91756859D01*
X142161500Y-91468141D01*
X142162583Y-91457143D01*
X142164000Y-91452472D01*
X142166300Y-91448170D01*
X142169396Y-91444396D01*
X142173170Y-91441300D01*
X142177472Y-91439000D01*
X142182143Y-91437583D01*
X142193141Y-91436500D01*
X142999000Y-91436500D01*
X143023386Y-91434098D01*
X143046835Y-91426985D01*
X143068446Y-91415434D01*
X143087388Y-91399888D01*
X143102934Y-91380946D01*
X143114485Y-91359335D01*
X143121598Y-91335886D01*
X143124000Y-91311500D01*
X143124000Y-90505641D01*
X143125083Y-90494643D01*
X143126500Y-90489972D01*
X143128800Y-90485670D01*
X143131896Y-90481896D01*
X143135670Y-90478800D01*
X143139972Y-90476500D01*
X143144643Y-90475083D01*
X143155641Y-90474000D01*
X143444359Y-90474000D01*
X143455357Y-90475083D01*
X143455357Y-90475083D01*
G37*
G36*
X146526432Y-91765064D02*
X146555325Y-91773828D01*
X146581951Y-91788060D01*
X146605288Y-91807212D01*
X146624440Y-91830549D01*
X146638672Y-91857175D01*
X146647436Y-91886068D01*
X146651000Y-91922253D01*
X146651000Y-94802747D01*
X146647436Y-94838932D01*
X146638672Y-94867825D01*
X146624440Y-94894451D01*
X146605288Y-94917788D01*
X146581951Y-94936940D01*
X146555325Y-94951172D01*
X146526432Y-94959936D01*
X146490247Y-94963500D01*
X143609753Y-94963500D01*
X143573568Y-94959936D01*
X143544675Y-94951172D01*
X143518049Y-94936940D01*
X143494712Y-94917788D01*
X143475560Y-94894451D01*
X143461328Y-94867825D01*
X143452564Y-94838932D01*
X143449000Y-94802747D01*
X143449000Y-91922253D01*
X143452564Y-91886068D01*
X143461328Y-91857175D01*
X143475560Y-91830549D01*
X143494712Y-91807212D01*
X143518049Y-91788060D01*
X143544675Y-91773828D01*
X143573568Y-91765064D01*
X143609753Y-91761500D01*
X146490247Y-91761500D01*
X146526432Y-91765064D01*
X146526432Y-91765064D01*
G37*
G36*
X162035443Y-94245519D02*
X162101627Y-94252037D01*
X162199746Y-94281801D01*
X162271467Y-94303557D01*
X162404652Y-94374747D01*
X162427991Y-94387222D01*
X162463729Y-94416552D01*
X162565186Y-94499814D01*
X162648448Y-94601271D01*
X162677778Y-94637009D01*
X162677779Y-94637011D01*
X162761443Y-94793533D01*
X162771355Y-94826209D01*
X162812963Y-94963373D01*
X162830359Y-95140000D01*
X162812963Y-95316627D01*
X162791676Y-95386800D01*
X162761443Y-95486467D01*
X162687348Y-95625087D01*
X162677778Y-95642991D01*
X162648448Y-95678729D01*
X162565186Y-95780186D01*
X162466443Y-95861221D01*
X162427991Y-95892778D01*
X162410087Y-95902348D01*
X162271467Y-95976443D01*
X162214853Y-95993616D01*
X162101627Y-96027963D01*
X162035442Y-96034482D01*
X161969260Y-96041000D01*
X161880740Y-96041000D01*
X161814558Y-96034482D01*
X161748373Y-96027963D01*
X161635147Y-95993616D01*
X161578533Y-95976443D01*
X161439913Y-95902348D01*
X161422009Y-95892778D01*
X161383557Y-95861221D01*
X161284814Y-95780186D01*
X161201552Y-95678729D01*
X161172222Y-95642991D01*
X161162652Y-95625087D01*
X161088557Y-95486467D01*
X161058324Y-95386800D01*
X161037037Y-95316627D01*
X161019641Y-95140000D01*
X161037037Y-94963373D01*
X161078645Y-94826209D01*
X161088557Y-94793533D01*
X161172221Y-94637011D01*
X161172222Y-94637009D01*
X161201552Y-94601271D01*
X161284814Y-94499814D01*
X161386271Y-94416552D01*
X161422009Y-94387222D01*
X161445348Y-94374747D01*
X161578533Y-94303557D01*
X161650254Y-94281801D01*
X161748373Y-94252037D01*
X161814557Y-94245519D01*
X161880740Y-94239000D01*
X161969260Y-94239000D01*
X162035443Y-94245519D01*
X162035443Y-94245519D01*
G37*
G36*
X164575443Y-94245519D02*
X164641627Y-94252037D01*
X164739746Y-94281801D01*
X164811467Y-94303557D01*
X164944652Y-94374747D01*
X164967991Y-94387222D01*
X165003729Y-94416552D01*
X165105186Y-94499814D01*
X165188448Y-94601271D01*
X165217778Y-94637009D01*
X165217779Y-94637011D01*
X165301443Y-94793533D01*
X165311355Y-94826209D01*
X165352963Y-94963373D01*
X165370359Y-95140000D01*
X165352963Y-95316627D01*
X165331676Y-95386800D01*
X165301443Y-95486467D01*
X165227348Y-95625087D01*
X165217778Y-95642991D01*
X165188448Y-95678729D01*
X165105186Y-95780186D01*
X165006443Y-95861221D01*
X164967991Y-95892778D01*
X164950087Y-95902348D01*
X164811467Y-95976443D01*
X164754853Y-95993616D01*
X164641627Y-96027963D01*
X164575442Y-96034482D01*
X164509260Y-96041000D01*
X164420740Y-96041000D01*
X164354558Y-96034482D01*
X164288373Y-96027963D01*
X164175147Y-95993616D01*
X164118533Y-95976443D01*
X163979913Y-95902348D01*
X163962009Y-95892778D01*
X163923557Y-95861221D01*
X163824814Y-95780186D01*
X163741552Y-95678729D01*
X163712222Y-95642991D01*
X163702652Y-95625087D01*
X163628557Y-95486467D01*
X163598324Y-95386800D01*
X163577037Y-95316627D01*
X163559641Y-95140000D01*
X163577037Y-94963373D01*
X163618645Y-94826209D01*
X163628557Y-94793533D01*
X163712221Y-94637011D01*
X163712222Y-94637009D01*
X163741552Y-94601271D01*
X163824814Y-94499814D01*
X163926271Y-94416552D01*
X163962009Y-94387222D01*
X163985348Y-94374747D01*
X164118533Y-94303557D01*
X164190254Y-94281801D01*
X164288373Y-94252037D01*
X164354557Y-94245519D01*
X164420740Y-94239000D01*
X164509260Y-94239000D01*
X164575443Y-94245519D01*
X164575443Y-94245519D01*
G37*
G36*
X192106565Y-92489389D02*
X192297834Y-92568615D01*
X192469976Y-92683637D01*
X192616363Y-92830024D01*
X192731385Y-93002166D01*
X192810611Y-93193435D01*
X192851000Y-93396484D01*
X192851000Y-93603516D01*
X192810611Y-93806565D01*
X192731385Y-93997834D01*
X192616363Y-94169976D01*
X192469976Y-94316363D01*
X192297834Y-94431385D01*
X192106565Y-94510611D01*
X191903516Y-94551000D01*
X191696484Y-94551000D01*
X191493435Y-94510611D01*
X191302166Y-94431385D01*
X191130024Y-94316363D01*
X190983637Y-94169976D01*
X190868615Y-93997834D01*
X190789389Y-93806565D01*
X190749000Y-93603516D01*
X190749000Y-93396484D01*
X190789389Y-93193435D01*
X190868615Y-93002166D01*
X190983637Y-92830024D01*
X191130024Y-92683637D01*
X191302166Y-92568615D01*
X191493435Y-92489389D01*
X191696484Y-92449000D01*
X191903516Y-92449000D01*
X192106565Y-92489389D01*
X192106565Y-92489389D01*
G37*
G36*
X153112966Y-92857565D02*
X153151637Y-92869296D01*
X153187279Y-92888348D01*
X153218517Y-92913983D01*
X153244152Y-92945221D01*
X153263204Y-92980863D01*
X153274935Y-93019534D01*
X153279500Y-93065888D01*
X153279500Y-94142112D01*
X153274935Y-94188466D01*
X153263204Y-94227137D01*
X153244152Y-94262779D01*
X153218517Y-94294017D01*
X153187279Y-94319652D01*
X153151637Y-94338704D01*
X153112966Y-94350435D01*
X153066612Y-94355000D01*
X152415388Y-94355000D01*
X152369034Y-94350435D01*
X152330363Y-94338704D01*
X152294721Y-94319652D01*
X152263483Y-94294017D01*
X152237848Y-94262779D01*
X152218796Y-94227137D01*
X152207065Y-94188466D01*
X152202500Y-94142112D01*
X152202500Y-93065888D01*
X152207065Y-93019534D01*
X152218796Y-92980863D01*
X152237848Y-92945221D01*
X152263483Y-92913983D01*
X152294721Y-92888348D01*
X152330363Y-92869296D01*
X152369034Y-92857565D01*
X152415388Y-92853000D01*
X153066612Y-92853000D01*
X153112966Y-92857565D01*
X153112966Y-92857565D01*
G37*
G36*
X154987966Y-92857565D02*
X155026637Y-92869296D01*
X155062279Y-92888348D01*
X155093517Y-92913983D01*
X155119152Y-92945221D01*
X155138204Y-92980863D01*
X155149935Y-93019534D01*
X155154500Y-93065888D01*
X155154500Y-94142112D01*
X155149935Y-94188466D01*
X155138204Y-94227137D01*
X155119152Y-94262779D01*
X155093517Y-94294017D01*
X155062279Y-94319652D01*
X155026637Y-94338704D01*
X154987966Y-94350435D01*
X154941612Y-94355000D01*
X154290388Y-94355000D01*
X154244034Y-94350435D01*
X154205363Y-94338704D01*
X154169721Y-94319652D01*
X154138483Y-94294017D01*
X154112848Y-94262779D01*
X154093796Y-94227137D01*
X154082065Y-94188466D01*
X154077500Y-94142112D01*
X154077500Y-93065888D01*
X154082065Y-93019534D01*
X154093796Y-92980863D01*
X154112848Y-92945221D01*
X154138483Y-92913983D01*
X154169721Y-92888348D01*
X154205363Y-92869296D01*
X154244034Y-92857565D01*
X154290388Y-92853000D01*
X154941612Y-92853000D01*
X154987966Y-92857565D01*
X154987966Y-92857565D01*
G37*
G36*
X162035442Y-91705518D02*
X162101627Y-91712037D01*
X162214853Y-91746384D01*
X162271467Y-91763557D01*
X162396798Y-91830549D01*
X162427991Y-91847222D01*
X162461530Y-91874747D01*
X162565186Y-91959814D01*
X162648448Y-92061271D01*
X162677778Y-92097009D01*
X162677779Y-92097011D01*
X162761443Y-92253533D01*
X162761443Y-92253534D01*
X162812963Y-92423373D01*
X162830359Y-92600000D01*
X162812963Y-92776627D01*
X162788411Y-92857565D01*
X162761443Y-92946467D01*
X162737733Y-92990824D01*
X162677778Y-93102991D01*
X162661972Y-93122250D01*
X162565186Y-93240186D01*
X162487939Y-93303580D01*
X162427991Y-93352778D01*
X162427989Y-93352779D01*
X162271467Y-93436443D01*
X162222387Y-93451331D01*
X162101627Y-93487963D01*
X162035442Y-93494482D01*
X161969260Y-93501000D01*
X161880740Y-93501000D01*
X161814557Y-93494481D01*
X161748373Y-93487963D01*
X161627613Y-93451331D01*
X161578533Y-93436443D01*
X161422011Y-93352779D01*
X161422009Y-93352778D01*
X161362061Y-93303580D01*
X161284814Y-93240186D01*
X161188028Y-93122250D01*
X161172222Y-93102991D01*
X161112267Y-92990824D01*
X161088557Y-92946467D01*
X161061589Y-92857565D01*
X161037037Y-92776627D01*
X161019641Y-92600000D01*
X161037037Y-92423373D01*
X161088557Y-92253534D01*
X161088557Y-92253533D01*
X161172221Y-92097011D01*
X161172222Y-92097009D01*
X161201552Y-92061271D01*
X161284814Y-91959814D01*
X161388470Y-91874747D01*
X161422009Y-91847222D01*
X161453202Y-91830549D01*
X161578533Y-91763557D01*
X161635147Y-91746384D01*
X161748373Y-91712037D01*
X161814558Y-91705518D01*
X161880740Y-91699000D01*
X161969260Y-91699000D01*
X162035442Y-91705518D01*
X162035442Y-91705518D01*
G37*
G36*
X164575442Y-91705518D02*
X164641627Y-91712037D01*
X164754853Y-91746384D01*
X164811467Y-91763557D01*
X164936798Y-91830549D01*
X164967991Y-91847222D01*
X165001530Y-91874747D01*
X165105186Y-91959814D01*
X165188448Y-92061271D01*
X165217778Y-92097009D01*
X165217779Y-92097011D01*
X165301443Y-92253533D01*
X165301443Y-92253534D01*
X165352963Y-92423373D01*
X165370359Y-92600000D01*
X165352963Y-92776627D01*
X165328411Y-92857565D01*
X165301443Y-92946467D01*
X165277733Y-92990824D01*
X165217778Y-93102991D01*
X165201972Y-93122250D01*
X165105186Y-93240186D01*
X165027939Y-93303580D01*
X164967991Y-93352778D01*
X164967989Y-93352779D01*
X164811467Y-93436443D01*
X164762387Y-93451331D01*
X164641627Y-93487963D01*
X164575442Y-93494482D01*
X164509260Y-93501000D01*
X164420740Y-93501000D01*
X164354557Y-93494481D01*
X164288373Y-93487963D01*
X164167613Y-93451331D01*
X164118533Y-93436443D01*
X163962011Y-93352779D01*
X163962009Y-93352778D01*
X163902061Y-93303580D01*
X163824814Y-93240186D01*
X163728028Y-93122250D01*
X163712222Y-93102991D01*
X163652267Y-92990824D01*
X163628557Y-92946467D01*
X163601589Y-92857565D01*
X163577037Y-92776627D01*
X163559641Y-92600000D01*
X163577037Y-92423373D01*
X163628557Y-92253534D01*
X163628557Y-92253533D01*
X163712221Y-92097011D01*
X163712222Y-92097009D01*
X163741552Y-92061271D01*
X163824814Y-91959814D01*
X163928470Y-91874747D01*
X163962009Y-91847222D01*
X163993202Y-91830549D01*
X164118533Y-91763557D01*
X164175147Y-91746384D01*
X164288373Y-91712037D01*
X164354558Y-91705518D01*
X164420740Y-91699000D01*
X164509260Y-91699000D01*
X164575442Y-91705518D01*
X164575442Y-91705518D01*
G37*
G36*
X153183091Y-90882085D02*
X153217069Y-90892393D01*
X153248387Y-90909133D01*
X153275839Y-90931661D01*
X153298367Y-90959113D01*
X153315107Y-90990431D01*
X153325415Y-91024409D01*
X153329500Y-91065890D01*
X153329500Y-91742110D01*
X153325415Y-91783591D01*
X153315107Y-91817569D01*
X153298367Y-91848887D01*
X153275839Y-91876339D01*
X153248387Y-91898867D01*
X153217069Y-91915607D01*
X153183091Y-91925915D01*
X153141610Y-91930000D01*
X152540390Y-91930000D01*
X152498909Y-91925915D01*
X152464931Y-91915607D01*
X152433613Y-91898867D01*
X152406161Y-91876339D01*
X152383633Y-91848887D01*
X152366893Y-91817569D01*
X152356585Y-91783591D01*
X152352500Y-91742110D01*
X152352500Y-91065890D01*
X152356585Y-91024409D01*
X152366893Y-90990431D01*
X152383633Y-90959113D01*
X152406161Y-90931661D01*
X152433613Y-90909133D01*
X152464931Y-90892393D01*
X152498909Y-90882085D01*
X152540390Y-90878000D01*
X153141610Y-90878000D01*
X153183091Y-90882085D01*
X153183091Y-90882085D01*
G37*
G36*
X154758091Y-90882085D02*
X154792069Y-90892393D01*
X154823387Y-90909133D01*
X154850839Y-90931661D01*
X154873367Y-90959113D01*
X154890107Y-90990431D01*
X154900415Y-91024409D01*
X154904500Y-91065890D01*
X154904500Y-91742110D01*
X154900415Y-91783591D01*
X154890107Y-91817569D01*
X154873367Y-91848887D01*
X154850839Y-91876339D01*
X154823387Y-91898867D01*
X154792069Y-91915607D01*
X154758091Y-91925915D01*
X154716610Y-91930000D01*
X154115390Y-91930000D01*
X154073909Y-91925915D01*
X154039931Y-91915607D01*
X154008613Y-91898867D01*
X153981161Y-91876339D01*
X153958633Y-91848887D01*
X153941893Y-91817569D01*
X153931585Y-91783591D01*
X153927500Y-91742110D01*
X153927500Y-91065890D01*
X153931585Y-91024409D01*
X153941893Y-90990431D01*
X153958633Y-90959113D01*
X153981161Y-90931661D01*
X154008613Y-90909133D01*
X154039931Y-90892393D01*
X154073909Y-90882085D01*
X154115390Y-90878000D01*
X154716610Y-90878000D01*
X154758091Y-90882085D01*
X154758091Y-90882085D01*
G37*
G36*
X192106565Y-88989389D02*
X192297834Y-89068615D01*
X192469976Y-89183637D01*
X192616363Y-89330024D01*
X192731385Y-89502166D01*
X192810611Y-89693435D01*
X192851000Y-89896484D01*
X192851000Y-90103516D01*
X192810611Y-90306565D01*
X192731385Y-90497834D01*
X192616363Y-90669976D01*
X192469976Y-90816363D01*
X192297834Y-90931385D01*
X192106565Y-91010611D01*
X191903516Y-91051000D01*
X191696484Y-91051000D01*
X191493435Y-91010611D01*
X191302166Y-90931385D01*
X191130024Y-90816363D01*
X190983637Y-90669976D01*
X190868615Y-90497834D01*
X190789389Y-90306565D01*
X190749000Y-90103516D01*
X190749000Y-89896484D01*
X190789389Y-89693435D01*
X190868615Y-89502166D01*
X190983637Y-89330024D01*
X191130024Y-89183637D01*
X191302166Y-89068615D01*
X191493435Y-88989389D01*
X191696484Y-88949000D01*
X191903516Y-88949000D01*
X192106565Y-88989389D01*
X192106565Y-88989389D01*
G37*
G36*
X164575442Y-89165518D02*
X164641627Y-89172037D01*
X164737105Y-89201000D01*
X164811467Y-89223557D01*
X164950087Y-89297652D01*
X164967991Y-89307222D01*
X164995775Y-89330024D01*
X165105186Y-89419814D01*
X165188448Y-89521271D01*
X165217778Y-89557009D01*
X165217779Y-89557011D01*
X165301443Y-89713533D01*
X165301443Y-89713534D01*
X165352963Y-89883373D01*
X165370359Y-90060000D01*
X165352963Y-90236627D01*
X165318616Y-90349853D01*
X165301443Y-90406467D01*
X165245141Y-90511799D01*
X165217778Y-90562991D01*
X165188448Y-90598729D01*
X165105186Y-90700186D01*
X165003729Y-90783448D01*
X164967991Y-90812778D01*
X164967989Y-90812779D01*
X164811467Y-90896443D01*
X164769633Y-90909133D01*
X164641627Y-90947963D01*
X164575443Y-90954481D01*
X164509260Y-90961000D01*
X164420740Y-90961000D01*
X164354558Y-90954482D01*
X164288373Y-90947963D01*
X164160367Y-90909133D01*
X164118533Y-90896443D01*
X163962011Y-90812779D01*
X163962009Y-90812778D01*
X163926271Y-90783448D01*
X163824814Y-90700186D01*
X163741552Y-90598729D01*
X163712222Y-90562991D01*
X163684859Y-90511799D01*
X163628557Y-90406467D01*
X163611384Y-90349853D01*
X163577037Y-90236627D01*
X163559641Y-90060000D01*
X163577037Y-89883373D01*
X163628557Y-89713534D01*
X163628557Y-89713533D01*
X163712221Y-89557011D01*
X163712222Y-89557009D01*
X163741552Y-89521271D01*
X163824814Y-89419814D01*
X163934225Y-89330024D01*
X163962009Y-89307222D01*
X163979913Y-89297652D01*
X164118533Y-89223557D01*
X164192895Y-89201000D01*
X164288373Y-89172037D01*
X164354558Y-89165518D01*
X164420740Y-89159000D01*
X164509260Y-89159000D01*
X164575442Y-89165518D01*
X164575442Y-89165518D01*
G37*
G36*
X162826000Y-90961000D02*
X161024000Y-90961000D01*
X161024000Y-89159000D01*
X162826000Y-89159000D01*
X162826000Y-90961000D01*
X162826000Y-90961000D01*
G37*
G36*
X145159591Y-88974585D02*
X145193569Y-88984893D01*
X145224887Y-89001633D01*
X145252339Y-89024161D01*
X145274867Y-89051613D01*
X145291607Y-89082931D01*
X145301915Y-89116909D01*
X145306000Y-89158390D01*
X145306000Y-89759610D01*
X145301915Y-89801091D01*
X145291607Y-89835069D01*
X145274867Y-89866387D01*
X145252339Y-89893839D01*
X145224887Y-89916367D01*
X145193569Y-89933107D01*
X145159591Y-89943415D01*
X145118110Y-89947500D01*
X144441890Y-89947500D01*
X144400409Y-89943415D01*
X144366431Y-89933107D01*
X144335113Y-89916367D01*
X144307661Y-89893839D01*
X144285133Y-89866387D01*
X144268393Y-89835069D01*
X144258085Y-89801091D01*
X144254000Y-89759610D01*
X144254000Y-89158390D01*
X144258085Y-89116909D01*
X144268393Y-89082931D01*
X144285133Y-89051613D01*
X144307661Y-89024161D01*
X144335113Y-89001633D01*
X144366431Y-88984893D01*
X144400409Y-88974585D01*
X144441890Y-88970500D01*
X145118110Y-88970500D01*
X145159591Y-88974585D01*
X145159591Y-88974585D01*
G37*
G36*
X147408091Y-88632085D02*
X147442069Y-88642393D01*
X147473387Y-88659133D01*
X147500839Y-88681661D01*
X147523367Y-88709113D01*
X147540107Y-88740431D01*
X147550415Y-88774409D01*
X147554500Y-88815890D01*
X147554500Y-89492110D01*
X147550415Y-89533591D01*
X147540107Y-89567569D01*
X147523367Y-89598887D01*
X147500839Y-89626339D01*
X147473387Y-89648867D01*
X147442069Y-89665607D01*
X147408091Y-89675915D01*
X147366610Y-89680000D01*
X146765390Y-89680000D01*
X146723909Y-89675915D01*
X146689931Y-89665607D01*
X146658613Y-89648867D01*
X146631161Y-89626339D01*
X146608633Y-89598887D01*
X146591893Y-89567569D01*
X146581585Y-89533591D01*
X146577500Y-89492110D01*
X146577500Y-88815890D01*
X146581585Y-88774409D01*
X146591893Y-88740431D01*
X146608633Y-88709113D01*
X146631161Y-88681661D01*
X146658613Y-88659133D01*
X146689931Y-88642393D01*
X146723909Y-88632085D01*
X146765390Y-88628000D01*
X147366610Y-88628000D01*
X147408091Y-88632085D01*
X147408091Y-88632085D01*
G37*
G36*
X148983091Y-88632085D02*
X149017069Y-88642393D01*
X149048387Y-88659133D01*
X149075839Y-88681661D01*
X149098367Y-88709113D01*
X149115107Y-88740431D01*
X149125415Y-88774409D01*
X149129500Y-88815890D01*
X149129500Y-89492110D01*
X149125415Y-89533591D01*
X149115107Y-89567569D01*
X149098367Y-89598887D01*
X149075839Y-89626339D01*
X149048387Y-89648867D01*
X149017069Y-89665607D01*
X148983091Y-89675915D01*
X148941610Y-89680000D01*
X148340390Y-89680000D01*
X148298909Y-89675915D01*
X148264931Y-89665607D01*
X148233613Y-89648867D01*
X148206161Y-89626339D01*
X148183633Y-89598887D01*
X148166893Y-89567569D01*
X148156585Y-89533591D01*
X148152500Y-89492110D01*
X148152500Y-88815890D01*
X148156585Y-88774409D01*
X148166893Y-88740431D01*
X148183633Y-88709113D01*
X148206161Y-88681661D01*
X148233613Y-88659133D01*
X148264931Y-88642393D01*
X148298909Y-88632085D01*
X148340390Y-88628000D01*
X148941610Y-88628000D01*
X148983091Y-88632085D01*
X148983091Y-88632085D01*
G37*
G36*
X127306565Y-87139389D02*
X127497834Y-87218615D01*
X127669976Y-87333637D01*
X127816363Y-87480024D01*
X127931385Y-87652166D01*
X128010611Y-87843435D01*
X128051000Y-88046484D01*
X128051000Y-88253516D01*
X128010611Y-88456565D01*
X127931385Y-88647834D01*
X127816363Y-88819976D01*
X127669976Y-88966363D01*
X127497834Y-89081385D01*
X127306565Y-89160611D01*
X127103516Y-89201000D01*
X126896484Y-89201000D01*
X126693435Y-89160611D01*
X126502166Y-89081385D01*
X126330024Y-88966363D01*
X126183637Y-88819976D01*
X126068615Y-88647834D01*
X125989389Y-88456565D01*
X125949000Y-88253516D01*
X125949000Y-88046484D01*
X125989389Y-87843435D01*
X126068615Y-87652166D01*
X126183637Y-87480024D01*
X126330024Y-87333637D01*
X126502166Y-87218615D01*
X126693435Y-87139389D01*
X126896484Y-87099000D01*
X127103516Y-87099000D01*
X127306565Y-87139389D01*
X127306565Y-87139389D01*
G37*
G36*
X145159591Y-87399585D02*
X145193569Y-87409893D01*
X145224887Y-87426633D01*
X145252339Y-87449161D01*
X145274867Y-87476613D01*
X145291607Y-87507931D01*
X145301915Y-87541909D01*
X145306000Y-87583390D01*
X145306000Y-88184610D01*
X145301915Y-88226091D01*
X145291607Y-88260069D01*
X145274867Y-88291387D01*
X145252339Y-88318839D01*
X145224887Y-88341367D01*
X145193569Y-88358107D01*
X145159591Y-88368415D01*
X145118110Y-88372500D01*
X144441890Y-88372500D01*
X144400409Y-88368415D01*
X144366431Y-88358107D01*
X144335113Y-88341367D01*
X144307661Y-88318839D01*
X144285133Y-88291387D01*
X144268393Y-88260069D01*
X144258085Y-88226091D01*
X144254000Y-88184610D01*
X144254000Y-87583390D01*
X144258085Y-87541909D01*
X144268393Y-87507931D01*
X144285133Y-87476613D01*
X144307661Y-87449161D01*
X144335113Y-87426633D01*
X144366431Y-87409893D01*
X144400409Y-87399585D01*
X144441890Y-87395500D01*
X145118110Y-87395500D01*
X145159591Y-87399585D01*
X145159591Y-87399585D01*
G37*
G36*
X192106565Y-85489389D02*
X192297834Y-85568615D01*
X192469976Y-85683637D01*
X192616363Y-85830024D01*
X192731385Y-86002166D01*
X192810611Y-86193435D01*
X192851000Y-86396484D01*
X192851000Y-86603516D01*
X192810611Y-86806565D01*
X192731385Y-86997834D01*
X192616363Y-87169976D01*
X192469976Y-87316363D01*
X192297834Y-87431385D01*
X192106565Y-87510611D01*
X191903516Y-87551000D01*
X191696484Y-87551000D01*
X191493435Y-87510611D01*
X191302166Y-87431385D01*
X191130024Y-87316363D01*
X190983637Y-87169976D01*
X190868615Y-86997834D01*
X190789389Y-86806565D01*
X190749000Y-86603516D01*
X190749000Y-86396484D01*
X190789389Y-86193435D01*
X190868615Y-86002166D01*
X190983637Y-85830024D01*
X191130024Y-85683637D01*
X191302166Y-85568615D01*
X191493435Y-85489389D01*
X191696484Y-85449000D01*
X191903516Y-85449000D01*
X192106565Y-85489389D01*
X192106565Y-85489389D01*
G37*
G36*
X127306565Y-83639389D02*
X127497834Y-83718615D01*
X127669976Y-83833637D01*
X127816363Y-83980024D01*
X127931385Y-84152166D01*
X128010611Y-84343435D01*
X128051000Y-84546484D01*
X128051000Y-84753516D01*
X128010611Y-84956565D01*
X127931385Y-85147834D01*
X127816363Y-85319976D01*
X127669976Y-85466363D01*
X127497834Y-85581385D01*
X127306565Y-85660611D01*
X127103516Y-85701000D01*
X126896484Y-85701000D01*
X126693435Y-85660611D01*
X126502166Y-85581385D01*
X126330024Y-85466363D01*
X126183637Y-85319976D01*
X126068615Y-85147834D01*
X125989389Y-84956565D01*
X125949000Y-84753516D01*
X125949000Y-84546484D01*
X125989389Y-84343435D01*
X126068615Y-84152166D01*
X126183637Y-83980024D01*
X126330024Y-83833637D01*
X126502166Y-83718615D01*
X126693435Y-83639389D01*
X126896484Y-83599000D01*
X127103516Y-83599000D01*
X127306565Y-83639389D01*
X127306565Y-83639389D01*
G37*
G36*
X192106565Y-81989389D02*
X192297834Y-82068615D01*
X192469976Y-82183637D01*
X192616363Y-82330024D01*
X192731385Y-82502166D01*
X192810611Y-82693435D01*
X192851000Y-82896484D01*
X192851000Y-83103516D01*
X192810611Y-83306565D01*
X192731385Y-83497834D01*
X192616363Y-83669976D01*
X192469976Y-83816363D01*
X192297834Y-83931385D01*
X192106565Y-84010611D01*
X191903516Y-84051000D01*
X191696484Y-84051000D01*
X191493435Y-84010611D01*
X191302166Y-83931385D01*
X191130024Y-83816363D01*
X190983637Y-83669976D01*
X190868615Y-83497834D01*
X190789389Y-83306565D01*
X190749000Y-83103516D01*
X190749000Y-82896484D01*
X190789389Y-82693435D01*
X190868615Y-82502166D01*
X190983637Y-82330024D01*
X191130024Y-82183637D01*
X191302166Y-82068615D01*
X191493435Y-81989389D01*
X191696484Y-81949000D01*
X191903516Y-81949000D01*
X192106565Y-81989389D01*
X192106565Y-81989389D01*
G37*
G36*
X192106565Y-78489389D02*
X192297834Y-78568615D01*
X192469976Y-78683637D01*
X192616363Y-78830024D01*
X192731385Y-79002166D01*
X192810611Y-79193435D01*
X192851000Y-79396484D01*
X192851000Y-79603516D01*
X192810611Y-79806565D01*
X192731385Y-79997834D01*
X192616363Y-80169976D01*
X192469976Y-80316363D01*
X192297834Y-80431385D01*
X192106565Y-80510611D01*
X191903516Y-80551000D01*
X191696484Y-80551000D01*
X191493435Y-80510611D01*
X191302166Y-80431385D01*
X191130024Y-80316363D01*
X190983637Y-80169976D01*
X190868615Y-79997834D01*
X190789389Y-79806565D01*
X190749000Y-79603516D01*
X190749000Y-79396484D01*
X190789389Y-79193435D01*
X190868615Y-79002166D01*
X190983637Y-78830024D01*
X191130024Y-78683637D01*
X191302166Y-78568615D01*
X191493435Y-78489389D01*
X191696484Y-78449000D01*
X191903516Y-78449000D01*
X192106565Y-78489389D01*
X192106565Y-78489389D01*
G37*
G36*
X157151000Y-79951000D02*
X153249000Y-79951000D01*
X153249000Y-78849000D01*
X157151000Y-78849000D01*
X157151000Y-79951000D01*
X157151000Y-79951000D01*
G37*
G36*
X157151000Y-78251000D02*
X156846412Y-78251000D01*
X156839485Y-78228165D01*
X156827934Y-78206554D01*
X156812388Y-78187612D01*
X156793446Y-78172066D01*
X156771835Y-78160515D01*
X156748386Y-78153402D01*
X156724000Y-78151000D01*
X153249000Y-78151000D01*
X153249000Y-77049000D01*
X157151000Y-77049000D01*
X157151000Y-78251000D01*
X157151000Y-78251000D01*
G37*
G36*
X169984466Y-76741065D02*
X170023137Y-76752796D01*
X170058779Y-76771848D01*
X170090017Y-76797483D01*
X170115652Y-76828721D01*
X170134704Y-76864363D01*
X170146435Y-76903034D01*
X170151000Y-76949388D01*
X170151000Y-77600612D01*
X170146435Y-77646966D01*
X170134704Y-77685637D01*
X170115652Y-77721279D01*
X170090017Y-77752517D01*
X170058779Y-77778152D01*
X170023137Y-77797204D01*
X169984466Y-77808935D01*
X169938112Y-77813500D01*
X168861888Y-77813500D01*
X168815534Y-77808935D01*
X168776863Y-77797204D01*
X168741221Y-77778152D01*
X168709983Y-77752517D01*
X168684348Y-77721279D01*
X168665296Y-77685637D01*
X168653565Y-77646966D01*
X168649000Y-77600612D01*
X168649000Y-76949388D01*
X168653565Y-76903034D01*
X168665296Y-76864363D01*
X168684348Y-76828721D01*
X168709983Y-76797483D01*
X168741221Y-76771848D01*
X168776863Y-76752796D01*
X168815534Y-76741065D01*
X168861888Y-76736500D01*
X169938112Y-76736500D01*
X169984466Y-76741065D01*
X169984466Y-76741065D01*
G37*
G36*
X171779591Y-76490585D02*
X171813569Y-76500893D01*
X171844887Y-76517633D01*
X171872339Y-76540161D01*
X171894867Y-76567613D01*
X171911607Y-76598931D01*
X171921915Y-76632909D01*
X171926000Y-76674390D01*
X171926000Y-77275610D01*
X171921915Y-77317091D01*
X171911607Y-77351069D01*
X171894867Y-77382387D01*
X171872339Y-77409839D01*
X171844887Y-77432367D01*
X171813569Y-77449107D01*
X171779591Y-77459415D01*
X171738110Y-77463500D01*
X171061890Y-77463500D01*
X171020409Y-77459415D01*
X170986431Y-77449107D01*
X170955113Y-77432367D01*
X170927661Y-77409839D01*
X170905133Y-77382387D01*
X170888393Y-77351069D01*
X170878085Y-77317091D01*
X170874000Y-77275610D01*
X170874000Y-76674390D01*
X170878085Y-76632909D01*
X170888393Y-76598931D01*
X170905133Y-76567613D01*
X170927661Y-76540161D01*
X170955113Y-76517633D01*
X170986431Y-76500893D01*
X171020409Y-76490585D01*
X171061890Y-76486500D01*
X171738110Y-76486500D01*
X171779591Y-76490585D01*
X171779591Y-76490585D01*
G37*
G36*
X192106565Y-74989389D02*
X192297834Y-75068615D01*
X192469976Y-75183637D01*
X192616363Y-75330024D01*
X192731385Y-75502166D01*
X192810611Y-75693435D01*
X192851000Y-75896484D01*
X192851000Y-76103516D01*
X192810611Y-76306565D01*
X192731385Y-76497834D01*
X192616363Y-76669976D01*
X192469976Y-76816363D01*
X192297834Y-76931385D01*
X192106565Y-77010611D01*
X191903516Y-77051000D01*
X191696484Y-77051000D01*
X191493435Y-77010611D01*
X191302166Y-76931385D01*
X191130024Y-76816363D01*
X190983637Y-76669976D01*
X190868615Y-76497834D01*
X190789389Y-76306565D01*
X190749000Y-76103516D01*
X190749000Y-75896484D01*
X190789389Y-75693435D01*
X190868615Y-75502166D01*
X190983637Y-75330024D01*
X191130024Y-75183637D01*
X191302166Y-75068615D01*
X191493435Y-74989389D01*
X191696484Y-74949000D01*
X191903516Y-74949000D01*
X192106565Y-74989389D01*
X192106565Y-74989389D01*
G37*
G36*
X169984466Y-74866065D02*
X170023137Y-74877796D01*
X170058779Y-74896848D01*
X170090017Y-74922483D01*
X170115652Y-74953721D01*
X170134704Y-74989363D01*
X170146435Y-75028034D01*
X170151000Y-75074388D01*
X170151000Y-75725612D01*
X170146435Y-75771966D01*
X170134704Y-75810637D01*
X170115652Y-75846279D01*
X170090017Y-75877517D01*
X170058779Y-75903152D01*
X170023137Y-75922204D01*
X169984466Y-75933935D01*
X169938112Y-75938500D01*
X168861888Y-75938500D01*
X168815534Y-75933935D01*
X168776863Y-75922204D01*
X168741221Y-75903152D01*
X168709983Y-75877517D01*
X168684348Y-75846279D01*
X168665296Y-75810637D01*
X168653565Y-75771966D01*
X168649000Y-75725612D01*
X168649000Y-75074388D01*
X168653565Y-75028034D01*
X168665296Y-74989363D01*
X168684348Y-74953721D01*
X168709983Y-74922483D01*
X168741221Y-74896848D01*
X168776863Y-74877796D01*
X168815534Y-74866065D01*
X168861888Y-74861500D01*
X169938112Y-74861500D01*
X169984466Y-74866065D01*
X169984466Y-74866065D01*
G37*
G36*
X171779591Y-74915585D02*
X171813569Y-74925893D01*
X171844887Y-74942633D01*
X171872339Y-74965161D01*
X171894867Y-74992613D01*
X171911607Y-75023931D01*
X171921915Y-75057909D01*
X171926000Y-75099390D01*
X171926000Y-75700610D01*
X171921915Y-75742091D01*
X171911607Y-75776069D01*
X171894867Y-75807387D01*
X171872339Y-75834839D01*
X171844887Y-75857367D01*
X171813569Y-75874107D01*
X171779591Y-75884415D01*
X171738110Y-75888500D01*
X171061890Y-75888500D01*
X171020409Y-75884415D01*
X170986431Y-75874107D01*
X170955113Y-75857367D01*
X170927661Y-75834839D01*
X170905133Y-75807387D01*
X170888393Y-75776069D01*
X170878085Y-75742091D01*
X170874000Y-75700610D01*
X170874000Y-75099390D01*
X170878085Y-75057909D01*
X170888393Y-75023931D01*
X170905133Y-74992613D01*
X170927661Y-74965161D01*
X170955113Y-74942633D01*
X170986431Y-74925893D01*
X171020409Y-74915585D01*
X171061890Y-74911500D01*
X171738110Y-74911500D01*
X171779591Y-74915585D01*
X171779591Y-74915585D01*
G37*
G36*
X182346466Y-73421565D02*
X182385137Y-73433296D01*
X182420779Y-73452348D01*
X182452017Y-73477983D01*
X182477652Y-73509221D01*
X182496704Y-73544863D01*
X182508435Y-73583534D01*
X182513000Y-73629888D01*
X182513000Y-74706112D01*
X182508435Y-74752466D01*
X182496704Y-74791137D01*
X182477652Y-74826779D01*
X182452017Y-74858017D01*
X182420779Y-74883652D01*
X182385137Y-74902704D01*
X182346466Y-74914435D01*
X182300112Y-74919000D01*
X181648888Y-74919000D01*
X181602534Y-74914435D01*
X181563863Y-74902704D01*
X181528221Y-74883652D01*
X181496983Y-74858017D01*
X181471348Y-74826779D01*
X181452296Y-74791137D01*
X181440565Y-74752466D01*
X181436000Y-74706112D01*
X181436000Y-73629888D01*
X181440565Y-73583534D01*
X181452296Y-73544863D01*
X181471348Y-73509221D01*
X181496983Y-73477983D01*
X181528221Y-73452348D01*
X181563863Y-73433296D01*
X181602534Y-73421565D01*
X181648888Y-73417000D01*
X182300112Y-73417000D01*
X182346466Y-73421565D01*
X182346466Y-73421565D01*
G37*
G36*
X184221466Y-73421565D02*
X184260137Y-73433296D01*
X184295779Y-73452348D01*
X184327017Y-73477983D01*
X184352652Y-73509221D01*
X184371704Y-73544863D01*
X184383435Y-73583534D01*
X184388000Y-73629888D01*
X184388000Y-74706112D01*
X184383435Y-74752466D01*
X184371704Y-74791137D01*
X184352652Y-74826779D01*
X184327017Y-74858017D01*
X184295779Y-74883652D01*
X184260137Y-74902704D01*
X184221466Y-74914435D01*
X184175112Y-74919000D01*
X183523888Y-74919000D01*
X183477534Y-74914435D01*
X183438863Y-74902704D01*
X183403221Y-74883652D01*
X183371983Y-74858017D01*
X183346348Y-74826779D01*
X183327296Y-74791137D01*
X183315565Y-74752466D01*
X183311000Y-74706112D01*
X183311000Y-73629888D01*
X183315565Y-73583534D01*
X183327296Y-73544863D01*
X183346348Y-73509221D01*
X183371983Y-73477983D01*
X183403221Y-73452348D01*
X183438863Y-73433296D01*
X183477534Y-73421565D01*
X183523888Y-73417000D01*
X184175112Y-73417000D01*
X184221466Y-73421565D01*
X184221466Y-73421565D01*
G37*
G36*
X167683966Y-72797565D02*
X167722637Y-72809296D01*
X167758279Y-72828348D01*
X167789517Y-72853983D01*
X167815152Y-72885221D01*
X167834204Y-72920863D01*
X167845935Y-72959534D01*
X167850500Y-73005888D01*
X167850500Y-74082112D01*
X167845935Y-74128466D01*
X167834204Y-74167137D01*
X167815152Y-74202779D01*
X167789517Y-74234017D01*
X167758279Y-74259652D01*
X167722637Y-74278704D01*
X167683966Y-74290435D01*
X167637612Y-74295000D01*
X166986388Y-74295000D01*
X166940034Y-74290435D01*
X166901363Y-74278704D01*
X166865721Y-74259652D01*
X166834483Y-74234017D01*
X166808848Y-74202779D01*
X166789796Y-74167137D01*
X166778065Y-74128466D01*
X166773500Y-74082112D01*
X166773500Y-73005888D01*
X166778065Y-72959534D01*
X166789796Y-72920863D01*
X166808848Y-72885221D01*
X166834483Y-72853983D01*
X166865721Y-72828348D01*
X166901363Y-72809296D01*
X166940034Y-72797565D01*
X166986388Y-72793000D01*
X167637612Y-72793000D01*
X167683966Y-72797565D01*
X167683966Y-72797565D01*
G37*
G36*
X165808966Y-72797565D02*
X165847637Y-72809296D01*
X165883279Y-72828348D01*
X165914517Y-72853983D01*
X165940152Y-72885221D01*
X165959204Y-72920863D01*
X165970935Y-72959534D01*
X165975500Y-73005888D01*
X165975500Y-74082112D01*
X165970935Y-74128466D01*
X165959204Y-74167137D01*
X165940152Y-74202779D01*
X165914517Y-74234017D01*
X165883279Y-74259652D01*
X165847637Y-74278704D01*
X165808966Y-74290435D01*
X165762612Y-74295000D01*
X165111388Y-74295000D01*
X165065034Y-74290435D01*
X165026363Y-74278704D01*
X164990721Y-74259652D01*
X164959483Y-74234017D01*
X164933848Y-74202779D01*
X164914796Y-74167137D01*
X164903065Y-74128466D01*
X164898500Y-74082112D01*
X164898500Y-73005888D01*
X164903065Y-72959534D01*
X164914796Y-72920863D01*
X164933848Y-72885221D01*
X164959483Y-72853983D01*
X164990721Y-72828348D01*
X165026363Y-72809296D01*
X165065034Y-72797565D01*
X165111388Y-72793000D01*
X165762612Y-72793000D01*
X165808966Y-72797565D01*
X165808966Y-72797565D01*
G37*
G36*
X171513000Y-73745000D02*
X170711000Y-73745000D01*
X170711000Y-72143000D01*
X171513000Y-72143000D01*
X171513000Y-73745000D01*
X171513000Y-73745000D01*
G37*
G36*
X176313000Y-73745000D02*
X175511000Y-73745000D01*
X175511000Y-72143000D01*
X176313000Y-72143000D01*
X176313000Y-73745000D01*
X176313000Y-73745000D01*
G37*
G36*
X175113000Y-73745000D02*
X174311000Y-73745000D01*
X174311000Y-72143000D01*
X175113000Y-72143000D01*
X175113000Y-73745000D01*
X175113000Y-73745000D01*
G37*
G36*
X173913000Y-73745000D02*
X173111000Y-73745000D01*
X173111000Y-72143000D01*
X173913000Y-72143000D01*
X173913000Y-73745000D01*
X173913000Y-73745000D01*
G37*
G36*
X172713000Y-73745000D02*
X171911000Y-73745000D01*
X171911000Y-72143000D01*
X172713000Y-72143000D01*
X172713000Y-73745000D01*
X172713000Y-73745000D01*
G37*
G36*
X177513000Y-73745000D02*
X176711000Y-73745000D01*
X176711000Y-72143000D01*
X177513000Y-72143000D01*
X177513000Y-73745000D01*
X177513000Y-73745000D01*
G37*
G36*
X192106565Y-71489389D02*
X192297834Y-71568615D01*
X192469976Y-71683637D01*
X192616363Y-71830024D01*
X192731385Y-72002166D01*
X192810611Y-72193435D01*
X192851000Y-72396484D01*
X192851000Y-72603516D01*
X192810611Y-72806565D01*
X192731385Y-72997834D01*
X192616363Y-73169976D01*
X192469976Y-73316363D01*
X192297834Y-73431385D01*
X192106565Y-73510611D01*
X191903516Y-73551000D01*
X191696484Y-73551000D01*
X191493435Y-73510611D01*
X191302166Y-73431385D01*
X191130024Y-73316363D01*
X190983637Y-73169976D01*
X190868615Y-72997834D01*
X190789389Y-72806565D01*
X190749000Y-72603516D01*
X190749000Y-72396484D01*
X190789389Y-72193435D01*
X190868615Y-72002166D01*
X190983637Y-71830024D01*
X191130024Y-71683637D01*
X191302166Y-71568615D01*
X191493435Y-71489389D01*
X191696484Y-71449000D01*
X191903516Y-71449000D01*
X192106565Y-71489389D01*
X192106565Y-71489389D01*
G37*
G36*
X183857091Y-71741085D02*
X183891069Y-71751393D01*
X183922387Y-71768133D01*
X183949839Y-71790661D01*
X183972367Y-71818113D01*
X183989107Y-71849431D01*
X183999415Y-71883409D01*
X184003500Y-71924890D01*
X184003500Y-72601110D01*
X183999415Y-72642591D01*
X183989107Y-72676569D01*
X183972367Y-72707887D01*
X183949839Y-72735339D01*
X183922387Y-72757867D01*
X183891069Y-72774607D01*
X183857091Y-72784915D01*
X183815610Y-72789000D01*
X183214390Y-72789000D01*
X183172909Y-72784915D01*
X183138931Y-72774607D01*
X183107613Y-72757867D01*
X183080161Y-72735339D01*
X183057633Y-72707887D01*
X183040893Y-72676569D01*
X183030585Y-72642591D01*
X183026500Y-72601110D01*
X183026500Y-71924890D01*
X183030585Y-71883409D01*
X183040893Y-71849431D01*
X183057633Y-71818113D01*
X183080161Y-71790661D01*
X183107613Y-71768133D01*
X183138931Y-71751393D01*
X183172909Y-71741085D01*
X183214390Y-71737000D01*
X183815610Y-71737000D01*
X183857091Y-71741085D01*
X183857091Y-71741085D01*
G37*
G36*
X182282091Y-71741085D02*
X182316069Y-71751393D01*
X182347387Y-71768133D01*
X182374839Y-71790661D01*
X182397367Y-71818113D01*
X182414107Y-71849431D01*
X182424415Y-71883409D01*
X182428500Y-71924890D01*
X182428500Y-72601110D01*
X182424415Y-72642591D01*
X182414107Y-72676569D01*
X182397367Y-72707887D01*
X182374839Y-72735339D01*
X182347387Y-72757867D01*
X182316069Y-72774607D01*
X182282091Y-72784915D01*
X182240610Y-72789000D01*
X181639390Y-72789000D01*
X181597909Y-72784915D01*
X181563931Y-72774607D01*
X181532613Y-72757867D01*
X181505161Y-72735339D01*
X181482633Y-72707887D01*
X181465893Y-72676569D01*
X181455585Y-72642591D01*
X181451500Y-72601110D01*
X181451500Y-71924890D01*
X181455585Y-71883409D01*
X181465893Y-71849431D01*
X181482633Y-71818113D01*
X181505161Y-71790661D01*
X181532613Y-71768133D01*
X181563931Y-71751393D01*
X181597909Y-71741085D01*
X181639390Y-71737000D01*
X182240610Y-71737000D01*
X182282091Y-71741085D01*
X182282091Y-71741085D01*
G37*
G36*
X150876000Y-69749000D02*
X150878402Y-69773386D01*
X150885515Y-69796835D01*
X150897066Y-69818446D01*
X150912612Y-69837388D01*
X150931554Y-69852934D01*
X150953165Y-69864485D01*
X150976614Y-69871598D01*
X151001000Y-69874000D01*
X151851000Y-69874000D01*
X151851000Y-71726000D01*
X151001000Y-71726000D01*
X150976614Y-71728402D01*
X150953165Y-71735515D01*
X150931554Y-71747066D01*
X150912612Y-71762612D01*
X150897066Y-71781554D01*
X150885515Y-71803165D01*
X150878402Y-71826614D01*
X150876000Y-71851000D01*
X150876000Y-72201000D01*
X149524000Y-72201000D01*
X149524000Y-71851000D01*
X149521598Y-71826614D01*
X149514485Y-71803165D01*
X149502934Y-71781554D01*
X149487388Y-71762612D01*
X149468446Y-71747066D01*
X149446835Y-71735515D01*
X149423386Y-71728402D01*
X149399000Y-71726000D01*
X148549000Y-71726000D01*
X148549000Y-70301000D01*
X149326000Y-70301000D01*
X149326000Y-71299000D01*
X149328402Y-71323386D01*
X149335515Y-71346835D01*
X149347066Y-71368446D01*
X149362612Y-71387388D01*
X149381554Y-71402934D01*
X149403165Y-71414485D01*
X149426614Y-71421598D01*
X149451000Y-71424000D01*
X150949000Y-71424000D01*
X150973386Y-71421598D01*
X150996835Y-71414485D01*
X151018446Y-71402934D01*
X151037388Y-71387388D01*
X151052934Y-71368446D01*
X151064485Y-71346835D01*
X151071598Y-71323386D01*
X151074000Y-71299000D01*
X151074000Y-70301000D01*
X151071598Y-70276614D01*
X151064485Y-70253165D01*
X151052934Y-70231554D01*
X151037388Y-70212612D01*
X151018446Y-70197066D01*
X150996835Y-70185515D01*
X150973386Y-70178402D01*
X150949000Y-70176000D01*
X149451000Y-70176000D01*
X149426614Y-70178402D01*
X149403165Y-70185515D01*
X149381554Y-70197066D01*
X149362612Y-70212612D01*
X149347066Y-70231554D01*
X149335515Y-70253165D01*
X149328402Y-70276614D01*
X149326000Y-70301000D01*
X148549000Y-70301000D01*
X148549000Y-69874000D01*
X149399000Y-69874000D01*
X149423386Y-69871598D01*
X149446835Y-69864485D01*
X149468446Y-69852934D01*
X149487388Y-69837388D01*
X149502934Y-69818446D01*
X149514485Y-69796835D01*
X149521598Y-69773386D01*
X149524000Y-69749000D01*
X149524000Y-69399000D01*
X150876000Y-69399000D01*
X150876000Y-69749000D01*
X150876000Y-69749000D01*
G37*
G36*
X167198091Y-70622085D02*
X167232069Y-70632393D01*
X167263387Y-70649133D01*
X167290839Y-70671661D01*
X167313367Y-70699113D01*
X167330107Y-70730431D01*
X167340415Y-70764409D01*
X167344500Y-70805890D01*
X167344500Y-71482110D01*
X167340415Y-71523591D01*
X167330107Y-71557569D01*
X167313367Y-71588887D01*
X167290839Y-71616339D01*
X167263387Y-71638867D01*
X167232069Y-71655607D01*
X167198091Y-71665915D01*
X167156610Y-71670000D01*
X166555390Y-71670000D01*
X166513909Y-71665915D01*
X166479931Y-71655607D01*
X166448613Y-71638867D01*
X166421161Y-71616339D01*
X166398633Y-71588887D01*
X166381893Y-71557569D01*
X166371585Y-71523591D01*
X166367500Y-71482110D01*
X166367500Y-70805890D01*
X166371585Y-70764409D01*
X166381893Y-70730431D01*
X166398633Y-70699113D01*
X166421161Y-70671661D01*
X166448613Y-70649133D01*
X166479931Y-70632393D01*
X166513909Y-70622085D01*
X166555390Y-70618000D01*
X167156610Y-70618000D01*
X167198091Y-70622085D01*
X167198091Y-70622085D01*
G37*
G36*
X165623091Y-70622085D02*
X165657069Y-70632393D01*
X165688387Y-70649133D01*
X165715839Y-70671661D01*
X165738367Y-70699113D01*
X165755107Y-70730431D01*
X165765415Y-70764409D01*
X165769500Y-70805890D01*
X165769500Y-71482110D01*
X165765415Y-71523591D01*
X165755107Y-71557569D01*
X165738367Y-71588887D01*
X165715839Y-71616339D01*
X165688387Y-71638867D01*
X165657069Y-71655607D01*
X165623091Y-71665915D01*
X165581610Y-71670000D01*
X164980390Y-71670000D01*
X164938909Y-71665915D01*
X164904931Y-71655607D01*
X164873613Y-71638867D01*
X164846161Y-71616339D01*
X164823633Y-71588887D01*
X164806893Y-71557569D01*
X164796585Y-71523591D01*
X164792500Y-71482110D01*
X164792500Y-70805890D01*
X164796585Y-70764409D01*
X164806893Y-70730431D01*
X164823633Y-70699113D01*
X164846161Y-70671661D01*
X164873613Y-70649133D01*
X164904931Y-70632393D01*
X164938909Y-70622085D01*
X164980390Y-70618000D01*
X165581610Y-70618000D01*
X165623091Y-70622085D01*
X165623091Y-70622085D01*
G37*
G36*
X170413000Y-71445000D02*
X168811000Y-71445000D01*
X168811000Y-70643000D01*
X170413000Y-70643000D01*
X170413000Y-71445000D01*
X170413000Y-71445000D01*
G37*
G36*
X179413000Y-71445000D02*
X177811000Y-71445000D01*
X177811000Y-70643000D01*
X179413000Y-70643000D01*
X179413000Y-71445000D01*
X179413000Y-71445000D01*
G37*
G36*
X155117091Y-70078085D02*
X155151069Y-70088393D01*
X155182387Y-70105133D01*
X155209839Y-70127661D01*
X155232367Y-70155113D01*
X155249107Y-70186431D01*
X155259415Y-70220409D01*
X155263500Y-70261890D01*
X155263500Y-70938110D01*
X155259415Y-70979591D01*
X155249107Y-71013569D01*
X155232367Y-71044887D01*
X155209839Y-71072339D01*
X155182387Y-71094867D01*
X155151069Y-71111607D01*
X155117091Y-71121915D01*
X155075610Y-71126000D01*
X154474390Y-71126000D01*
X154432909Y-71121915D01*
X154398931Y-71111607D01*
X154367613Y-71094867D01*
X154340161Y-71072339D01*
X154317633Y-71044887D01*
X154300893Y-71013569D01*
X154290585Y-70979591D01*
X154286500Y-70938110D01*
X154286500Y-70261890D01*
X154290585Y-70220409D01*
X154300893Y-70186431D01*
X154317633Y-70155113D01*
X154340161Y-70127661D01*
X154367613Y-70105133D01*
X154398931Y-70088393D01*
X154432909Y-70078085D01*
X154474390Y-70074000D01*
X155075610Y-70074000D01*
X155117091Y-70078085D01*
X155117091Y-70078085D01*
G37*
G36*
X153542091Y-70078085D02*
X153576069Y-70088393D01*
X153607387Y-70105133D01*
X153634839Y-70127661D01*
X153657367Y-70155113D01*
X153674107Y-70186431D01*
X153684415Y-70220409D01*
X153688500Y-70261890D01*
X153688500Y-70938110D01*
X153684415Y-70979591D01*
X153674107Y-71013569D01*
X153657367Y-71044887D01*
X153634839Y-71072339D01*
X153607387Y-71094867D01*
X153576069Y-71111607D01*
X153542091Y-71121915D01*
X153500610Y-71126000D01*
X152899390Y-71126000D01*
X152857909Y-71121915D01*
X152823931Y-71111607D01*
X152792613Y-71094867D01*
X152765161Y-71072339D01*
X152742633Y-71044887D01*
X152725893Y-71013569D01*
X152715585Y-70979591D01*
X152711500Y-70938110D01*
X152711500Y-70261890D01*
X152715585Y-70220409D01*
X152725893Y-70186431D01*
X152742633Y-70155113D01*
X152765161Y-70127661D01*
X152792613Y-70105133D01*
X152823931Y-70088393D01*
X152857909Y-70078085D01*
X152899390Y-70074000D01*
X153500610Y-70074000D01*
X153542091Y-70078085D01*
X153542091Y-70078085D01*
G37*
G36*
X179413000Y-70245000D02*
X177811000Y-70245000D01*
X177811000Y-69443000D01*
X179413000Y-69443000D01*
X179413000Y-70245000D01*
X179413000Y-70245000D01*
G37*
G36*
X170413000Y-70245000D02*
X168811000Y-70245000D01*
X168811000Y-69443000D01*
X170413000Y-69443000D01*
X170413000Y-70245000D01*
X170413000Y-70245000D01*
G37*
G36*
X181780966Y-68595565D02*
X181819637Y-68607296D01*
X181855279Y-68626348D01*
X181886517Y-68651983D01*
X181912152Y-68683221D01*
X181931204Y-68718863D01*
X181942935Y-68757534D01*
X181947500Y-68803888D01*
X181947500Y-69880112D01*
X181942935Y-69926466D01*
X181931204Y-69965137D01*
X181912152Y-70000779D01*
X181886517Y-70032017D01*
X181855279Y-70057652D01*
X181819637Y-70076704D01*
X181780966Y-70088435D01*
X181734612Y-70093000D01*
X181083388Y-70093000D01*
X181037034Y-70088435D01*
X180998363Y-70076704D01*
X180962721Y-70057652D01*
X180931483Y-70032017D01*
X180905848Y-70000779D01*
X180886796Y-69965137D01*
X180875065Y-69926466D01*
X180870500Y-69880112D01*
X180870500Y-68803888D01*
X180875065Y-68757534D01*
X180886796Y-68718863D01*
X180905848Y-68683221D01*
X180931483Y-68651983D01*
X180962721Y-68626348D01*
X180998363Y-68607296D01*
X181037034Y-68595565D01*
X181083388Y-68591000D01*
X181734612Y-68591000D01*
X181780966Y-68595565D01*
X181780966Y-68595565D01*
G37*
G36*
X183655966Y-68595565D02*
X183694637Y-68607296D01*
X183730279Y-68626348D01*
X183761517Y-68651983D01*
X183787152Y-68683221D01*
X183806204Y-68718863D01*
X183817935Y-68757534D01*
X183822500Y-68803888D01*
X183822500Y-69880112D01*
X183817935Y-69926466D01*
X183806204Y-69965137D01*
X183787152Y-70000779D01*
X183761517Y-70032017D01*
X183730279Y-70057652D01*
X183694637Y-70076704D01*
X183655966Y-70088435D01*
X183609612Y-70093000D01*
X182958388Y-70093000D01*
X182912034Y-70088435D01*
X182873363Y-70076704D01*
X182837721Y-70057652D01*
X182806483Y-70032017D01*
X182780848Y-70000779D01*
X182761796Y-69965137D01*
X182750065Y-69926466D01*
X182745500Y-69880112D01*
X182745500Y-68803888D01*
X182750065Y-68757534D01*
X182761796Y-68718863D01*
X182780848Y-68683221D01*
X182806483Y-68651983D01*
X182837721Y-68626348D01*
X182873363Y-68607296D01*
X182912034Y-68595565D01*
X182958388Y-68591000D01*
X183609612Y-68591000D01*
X183655966Y-68595565D01*
X183655966Y-68595565D01*
G37*
G36*
X192106565Y-67989389D02*
X192297834Y-68068615D01*
X192469976Y-68183637D01*
X192616363Y-68330024D01*
X192731385Y-68502166D01*
X192810611Y-68693435D01*
X192851000Y-68896484D01*
X192851000Y-69103516D01*
X192810611Y-69306565D01*
X192731385Y-69497834D01*
X192616363Y-69669976D01*
X192469976Y-69816363D01*
X192297834Y-69931385D01*
X192106565Y-70010611D01*
X191903516Y-70051000D01*
X191696484Y-70051000D01*
X191493435Y-70010611D01*
X191302166Y-69931385D01*
X191130024Y-69816363D01*
X190983637Y-69669976D01*
X190868615Y-69497834D01*
X190789389Y-69306565D01*
X190749000Y-69103516D01*
X190749000Y-68896484D01*
X190789389Y-68693435D01*
X190868615Y-68502166D01*
X190983637Y-68330024D01*
X191130024Y-68183637D01*
X191302166Y-68068615D01*
X191493435Y-67989389D01*
X191696484Y-67949000D01*
X191903516Y-67949000D01*
X192106565Y-67989389D01*
X192106565Y-67989389D01*
G37*
G36*
X179413000Y-69045000D02*
X177811000Y-69045000D01*
X177811000Y-68243000D01*
X179413000Y-68243000D01*
X179413000Y-69045000D01*
X179413000Y-69045000D01*
G37*
G36*
X170413000Y-69045000D02*
X168811000Y-69045000D01*
X168811000Y-68243000D01*
X170413000Y-68243000D01*
X170413000Y-69045000D01*
X170413000Y-69045000D01*
G37*
G36*
X153555091Y-67550085D02*
X153589069Y-67560393D01*
X153620387Y-67577133D01*
X153647839Y-67599661D01*
X153670367Y-67627113D01*
X153687107Y-67658431D01*
X153697415Y-67692409D01*
X153701500Y-67733890D01*
X153701500Y-68410110D01*
X153697415Y-68451591D01*
X153687107Y-68485569D01*
X153670367Y-68516887D01*
X153647839Y-68544339D01*
X153620387Y-68566867D01*
X153589069Y-68583607D01*
X153555091Y-68593915D01*
X153513610Y-68598000D01*
X152912390Y-68598000D01*
X152870909Y-68593915D01*
X152836931Y-68583607D01*
X152805613Y-68566867D01*
X152778161Y-68544339D01*
X152755633Y-68516887D01*
X152738893Y-68485569D01*
X152728585Y-68451591D01*
X152724500Y-68410110D01*
X152724500Y-67733890D01*
X152728585Y-67692409D01*
X152738893Y-67658431D01*
X152755633Y-67627113D01*
X152778161Y-67599661D01*
X152805613Y-67577133D01*
X152836931Y-67560393D01*
X152870909Y-67550085D01*
X152912390Y-67546000D01*
X153513610Y-67546000D01*
X153555091Y-67550085D01*
X153555091Y-67550085D01*
G37*
G36*
X151980091Y-67550085D02*
X152014069Y-67560393D01*
X152045387Y-67577133D01*
X152072839Y-67599661D01*
X152095367Y-67627113D01*
X152112107Y-67658431D01*
X152122415Y-67692409D01*
X152126500Y-67733890D01*
X152126500Y-68410110D01*
X152122415Y-68451591D01*
X152112107Y-68485569D01*
X152095367Y-68516887D01*
X152072839Y-68544339D01*
X152045387Y-68566867D01*
X152014069Y-68583607D01*
X151980091Y-68593915D01*
X151938610Y-68598000D01*
X151337390Y-68598000D01*
X151295909Y-68593915D01*
X151261931Y-68583607D01*
X151230613Y-68566867D01*
X151203161Y-68544339D01*
X151180633Y-68516887D01*
X151163893Y-68485569D01*
X151153585Y-68451591D01*
X151149500Y-68410110D01*
X151149500Y-67733890D01*
X151153585Y-67692409D01*
X151163893Y-67658431D01*
X151180633Y-67627113D01*
X151203161Y-67599661D01*
X151230613Y-67577133D01*
X151261931Y-67560393D01*
X151295909Y-67550085D01*
X151337390Y-67546000D01*
X151938610Y-67546000D01*
X151980091Y-67550085D01*
X151980091Y-67550085D01*
G37*
G36*
X170413000Y-67845000D02*
X168811000Y-67845000D01*
X168811000Y-67043000D01*
X170413000Y-67043000D01*
X170413000Y-67845000D01*
X170413000Y-67845000D01*
G37*
G36*
X179413000Y-67845000D02*
X177811000Y-67845000D01*
X177811000Y-67043000D01*
X179413000Y-67043000D01*
X179413000Y-67845000D01*
X179413000Y-67845000D01*
G37*
G36*
X181774091Y-66661085D02*
X181808069Y-66671393D01*
X181839387Y-66688133D01*
X181866839Y-66710661D01*
X181889367Y-66738113D01*
X181906107Y-66769431D01*
X181916415Y-66803409D01*
X181920500Y-66844890D01*
X181920500Y-67521110D01*
X181916415Y-67562591D01*
X181906107Y-67596569D01*
X181889367Y-67627887D01*
X181866839Y-67655339D01*
X181839387Y-67677867D01*
X181808069Y-67694607D01*
X181774091Y-67704915D01*
X181732610Y-67709000D01*
X181131390Y-67709000D01*
X181089909Y-67704915D01*
X181055931Y-67694607D01*
X181024613Y-67677867D01*
X180997161Y-67655339D01*
X180974633Y-67627887D01*
X180957893Y-67596569D01*
X180947585Y-67562591D01*
X180943500Y-67521110D01*
X180943500Y-66844890D01*
X180947585Y-66803409D01*
X180957893Y-66769431D01*
X180974633Y-66738113D01*
X180997161Y-66710661D01*
X181024613Y-66688133D01*
X181055931Y-66671393D01*
X181089909Y-66661085D01*
X181131390Y-66657000D01*
X181732610Y-66657000D01*
X181774091Y-66661085D01*
X181774091Y-66661085D01*
G37*
G36*
X183349091Y-66661085D02*
X183383069Y-66671393D01*
X183414387Y-66688133D01*
X183441839Y-66710661D01*
X183464367Y-66738113D01*
X183481107Y-66769431D01*
X183491415Y-66803409D01*
X183495500Y-66844890D01*
X183495500Y-67521110D01*
X183491415Y-67562591D01*
X183481107Y-67596569D01*
X183464367Y-67627887D01*
X183441839Y-67655339D01*
X183414387Y-67677867D01*
X183383069Y-67694607D01*
X183349091Y-67704915D01*
X183307610Y-67709000D01*
X182706390Y-67709000D01*
X182664909Y-67704915D01*
X182630931Y-67694607D01*
X182599613Y-67677867D01*
X182572161Y-67655339D01*
X182549633Y-67627887D01*
X182532893Y-67596569D01*
X182522585Y-67562591D01*
X182518500Y-67521110D01*
X182518500Y-66844890D01*
X182522585Y-66803409D01*
X182532893Y-66769431D01*
X182549633Y-66738113D01*
X182572161Y-66710661D01*
X182599613Y-66688133D01*
X182630931Y-66671393D01*
X182664909Y-66661085D01*
X182706390Y-66657000D01*
X183307610Y-66657000D01*
X183349091Y-66661085D01*
X183349091Y-66661085D01*
G37*
G36*
X179413000Y-66645000D02*
X177811000Y-66645000D01*
X177811000Y-65843000D01*
X179413000Y-65843000D01*
X179413000Y-66645000D01*
X179413000Y-66645000D01*
G37*
G36*
X170413000Y-66645000D02*
X168811000Y-66645000D01*
X168811000Y-65843000D01*
X170413000Y-65843000D01*
X170413000Y-66645000D01*
X170413000Y-66645000D01*
G37*
G36*
X185537966Y-64597565D02*
X185576637Y-64609296D01*
X185612279Y-64628348D01*
X185643517Y-64653983D01*
X185669152Y-64685221D01*
X185688204Y-64720863D01*
X185699935Y-64759534D01*
X185704500Y-64805888D01*
X185704500Y-65882112D01*
X185699935Y-65928466D01*
X185688204Y-65967137D01*
X185669152Y-66002779D01*
X185643517Y-66034017D01*
X185612279Y-66059652D01*
X185576637Y-66078704D01*
X185537966Y-66090435D01*
X185491612Y-66095000D01*
X184840388Y-66095000D01*
X184794034Y-66090435D01*
X184755363Y-66078704D01*
X184719721Y-66059652D01*
X184688483Y-66034017D01*
X184662848Y-66002779D01*
X184643796Y-65967137D01*
X184632065Y-65928466D01*
X184627500Y-65882112D01*
X184627500Y-64805888D01*
X184632065Y-64759534D01*
X184643796Y-64720863D01*
X184662848Y-64685221D01*
X184688483Y-64653983D01*
X184719721Y-64628348D01*
X184755363Y-64609296D01*
X184794034Y-64597565D01*
X184840388Y-64593000D01*
X185491612Y-64593000D01*
X185537966Y-64597565D01*
X185537966Y-64597565D01*
G37*
G36*
X183662966Y-64597565D02*
X183701637Y-64609296D01*
X183737279Y-64628348D01*
X183768517Y-64653983D01*
X183794152Y-64685221D01*
X183813204Y-64720863D01*
X183824935Y-64759534D01*
X183829500Y-64805888D01*
X183829500Y-65882112D01*
X183824935Y-65928466D01*
X183813204Y-65967137D01*
X183794152Y-66002779D01*
X183768517Y-66034017D01*
X183737279Y-66059652D01*
X183701637Y-66078704D01*
X183662966Y-66090435D01*
X183616612Y-66095000D01*
X182965388Y-66095000D01*
X182919034Y-66090435D01*
X182880363Y-66078704D01*
X182844721Y-66059652D01*
X182813483Y-66034017D01*
X182787848Y-66002779D01*
X182768796Y-65967137D01*
X182757065Y-65928466D01*
X182752500Y-65882112D01*
X182752500Y-64805888D01*
X182757065Y-64759534D01*
X182768796Y-64720863D01*
X182787848Y-64685221D01*
X182813483Y-64653983D01*
X182844721Y-64628348D01*
X182880363Y-64609296D01*
X182919034Y-64597565D01*
X182965388Y-64593000D01*
X183616612Y-64593000D01*
X183662966Y-64597565D01*
X183662966Y-64597565D01*
G37*
M02*
