G04 #@! TF.GenerationSoftware,KiCad,Pcbnew,(5.0.2)-1*
G04 #@! TF.CreationDate,2019-04-14T20:35:09-04:00*
G04 #@! TF.ProjectId,final_project,66696e61-6c5f-4707-926f-6a6563742e6b,rev?*
G04 #@! TF.SameCoordinates,Original*
G04 #@! TF.FileFunction,Soldermask,Bot*
G04 #@! TF.FilePolarity,Negative*
%FSLAX46Y46*%
G04 Gerber Fmt 4.6, Leading zero omitted, Abs format (unit mm)*
G04 Created by KiCad (PCBNEW (5.0.2)-1) date 4/14/2019 8:35:09 PM*
%MOMM*%
%LPD*%
G01*
G04 APERTURE LIST*
%ADD10C,0.100000*%
G04 APERTURE END LIST*
D10*
G36*
X191706565Y-131589389D02*
X191897834Y-131668615D01*
X192069976Y-131783637D01*
X192216363Y-131930024D01*
X192331385Y-132102166D01*
X192410611Y-132293435D01*
X192451000Y-132496484D01*
X192451000Y-132703516D01*
X192410611Y-132906565D01*
X192331385Y-133097834D01*
X192216363Y-133269976D01*
X192069976Y-133416363D01*
X191897834Y-133531385D01*
X191706565Y-133610611D01*
X191503516Y-133651000D01*
X191296484Y-133651000D01*
X191093435Y-133610611D01*
X190902166Y-133531385D01*
X190730024Y-133416363D01*
X190583637Y-133269976D01*
X190468615Y-133097834D01*
X190389389Y-132906565D01*
X190349000Y-132703516D01*
X190349000Y-132496484D01*
X190389389Y-132293435D01*
X190468615Y-132102166D01*
X190583637Y-131930024D01*
X190730024Y-131783637D01*
X190902166Y-131668615D01*
X191093435Y-131589389D01*
X191296484Y-131549000D01*
X191503516Y-131549000D01*
X191706565Y-131589389D01*
X191706565Y-131589389D01*
G37*
G36*
X126475382Y-128738287D02*
X126609404Y-128778943D01*
X126732918Y-128844962D01*
X126841186Y-128933814D01*
X126930038Y-129042082D01*
X126996057Y-129165596D01*
X127024891Y-129260649D01*
X127034268Y-129283288D01*
X127047882Y-129303662D01*
X127065209Y-129320989D01*
X127085584Y-129334603D01*
X127108223Y-129343981D01*
X127132256Y-129348761D01*
X127156760Y-129348761D01*
X127180794Y-129343980D01*
X127203433Y-129334603D01*
X127223802Y-129320993D01*
X127283739Y-129271804D01*
X127393358Y-129213211D01*
X127512302Y-129177130D01*
X127605002Y-129168000D01*
X128666998Y-129168000D01*
X128759698Y-129177130D01*
X128878642Y-129213211D01*
X128988261Y-129271804D01*
X129084343Y-129350657D01*
X129163196Y-129446739D01*
X129221789Y-129556358D01*
X129257870Y-129675302D01*
X129270053Y-129799000D01*
X129257870Y-129922698D01*
X129221789Y-130041642D01*
X129163196Y-130151261D01*
X129084343Y-130247343D01*
X128988261Y-130326196D01*
X128878642Y-130384789D01*
X128759698Y-130420870D01*
X128666998Y-130430000D01*
X127605002Y-130430000D01*
X127512302Y-130420870D01*
X127393358Y-130384789D01*
X127283739Y-130326196D01*
X127187657Y-130247343D01*
X127108804Y-130151261D01*
X127050211Y-130041642D01*
X127039177Y-130005268D01*
X127029806Y-129982643D01*
X127016192Y-129962269D01*
X126998865Y-129944941D01*
X126978490Y-129931327D01*
X126955852Y-129921950D01*
X126931818Y-129917169D01*
X126907314Y-129917169D01*
X126883280Y-129921949D01*
X126860641Y-129931326D01*
X126840266Y-129944941D01*
X126732922Y-130033036D01*
X126609404Y-130099057D01*
X126475382Y-130139713D01*
X126370930Y-130150000D01*
X125101070Y-130150000D01*
X124996618Y-130139713D01*
X124862596Y-130099057D01*
X124739082Y-130033038D01*
X124737068Y-130031385D01*
X124705261Y-130005282D01*
X124630814Y-129944186D01*
X124541962Y-129835918D01*
X124475943Y-129712404D01*
X124435287Y-129578382D01*
X124421560Y-129439000D01*
X124435287Y-129299618D01*
X124475943Y-129165596D01*
X124541962Y-129042082D01*
X124630814Y-128933814D01*
X124739082Y-128844962D01*
X124862596Y-128778943D01*
X124996618Y-128738287D01*
X125101070Y-128728000D01*
X126370930Y-128728000D01*
X126475382Y-128738287D01*
X126475382Y-128738287D01*
G37*
G36*
X191706565Y-128089389D02*
X191897834Y-128168615D01*
X192069976Y-128283637D01*
X192216363Y-128430024D01*
X192331385Y-128602166D01*
X192410611Y-128793435D01*
X192451000Y-128996484D01*
X192451000Y-129203516D01*
X192410611Y-129406565D01*
X192331385Y-129597834D01*
X192216363Y-129769976D01*
X192069976Y-129916363D01*
X191897834Y-130031385D01*
X191706565Y-130110611D01*
X191503516Y-130151000D01*
X191296484Y-130151000D01*
X191093435Y-130110611D01*
X190902166Y-130031385D01*
X190730024Y-129916363D01*
X190583637Y-129769976D01*
X190468615Y-129597834D01*
X190389389Y-129406565D01*
X190349000Y-129203516D01*
X190349000Y-128996484D01*
X190389389Y-128793435D01*
X190468615Y-128602166D01*
X190583637Y-128430024D01*
X190730024Y-128283637D01*
X190902166Y-128168615D01*
X191093435Y-128089389D01*
X191296484Y-128049000D01*
X191503516Y-128049000D01*
X191706565Y-128089389D01*
X191706565Y-128089389D01*
G37*
G36*
X191706565Y-124589389D02*
X191897834Y-124668615D01*
X192069976Y-124783637D01*
X192216363Y-124930024D01*
X192331385Y-125102166D01*
X192410611Y-125293435D01*
X192451000Y-125496484D01*
X192451000Y-125703516D01*
X192410611Y-125906565D01*
X192331385Y-126097834D01*
X192216363Y-126269976D01*
X192069976Y-126416363D01*
X191897834Y-126531385D01*
X191706565Y-126610611D01*
X191503516Y-126651000D01*
X191296484Y-126651000D01*
X191093435Y-126610611D01*
X190902166Y-126531385D01*
X190730024Y-126416363D01*
X190583637Y-126269976D01*
X190468615Y-126097834D01*
X190389389Y-125906565D01*
X190349000Y-125703516D01*
X190349000Y-125496484D01*
X190389389Y-125293435D01*
X190468615Y-125102166D01*
X190583637Y-124930024D01*
X190730024Y-124783637D01*
X190902166Y-124668615D01*
X191093435Y-124589389D01*
X191296484Y-124549000D01*
X191503516Y-124549000D01*
X191706565Y-124589389D01*
X191706565Y-124589389D01*
G37*
G36*
X128759698Y-121947130D02*
X128878642Y-121983211D01*
X128988261Y-122041804D01*
X129084343Y-122120657D01*
X129163196Y-122216739D01*
X129221789Y-122326358D01*
X129257870Y-122445302D01*
X129270053Y-122569000D01*
X129257870Y-122692698D01*
X129221789Y-122811642D01*
X129163196Y-122921261D01*
X129084343Y-123017343D01*
X128988261Y-123096196D01*
X128878642Y-123154789D01*
X128759698Y-123190870D01*
X128666998Y-123200000D01*
X127605002Y-123200000D01*
X127512302Y-123190870D01*
X127393358Y-123154789D01*
X127283739Y-123096196D01*
X127223802Y-123047007D01*
X127203432Y-123033397D01*
X127180793Y-123024019D01*
X127156760Y-123019239D01*
X127132256Y-123019239D01*
X127108222Y-123024020D01*
X127085583Y-123033397D01*
X127065209Y-123047011D01*
X127047881Y-123064338D01*
X127034268Y-123084713D01*
X127024891Y-123107351D01*
X126996057Y-123202404D01*
X126930038Y-123325918D01*
X126841186Y-123434186D01*
X126732918Y-123523038D01*
X126609404Y-123589057D01*
X126475382Y-123629713D01*
X126370930Y-123640000D01*
X125101070Y-123640000D01*
X124996618Y-123629713D01*
X124862596Y-123589057D01*
X124739082Y-123523038D01*
X124630814Y-123434186D01*
X124541962Y-123325918D01*
X124475943Y-123202404D01*
X124435287Y-123068382D01*
X124421560Y-122929000D01*
X124435287Y-122789618D01*
X124475943Y-122655596D01*
X124541962Y-122532082D01*
X124630814Y-122423814D01*
X124739082Y-122334962D01*
X124862596Y-122268943D01*
X124996618Y-122228287D01*
X125101070Y-122218000D01*
X126370930Y-122218000D01*
X126475382Y-122228287D01*
X126609404Y-122268943D01*
X126732922Y-122334964D01*
X126840266Y-122423059D01*
X126860641Y-122436673D01*
X126883280Y-122446051D01*
X126907313Y-122450831D01*
X126931817Y-122450831D01*
X126955851Y-122446050D01*
X126978490Y-122436673D01*
X126998864Y-122423059D01*
X127016191Y-122405732D01*
X127029805Y-122385357D01*
X127039177Y-122362732D01*
X127050211Y-122326358D01*
X127108804Y-122216739D01*
X127187657Y-122120657D01*
X127283739Y-122041804D01*
X127393358Y-121983211D01*
X127512302Y-121947130D01*
X127605002Y-121938000D01*
X128666998Y-121938000D01*
X128759698Y-121947130D01*
X128759698Y-121947130D01*
G37*
G36*
X191706565Y-121089389D02*
X191897834Y-121168615D01*
X192069976Y-121283637D01*
X192216363Y-121430024D01*
X192331385Y-121602166D01*
X192410611Y-121793435D01*
X192451000Y-121996484D01*
X192451000Y-122203516D01*
X192410611Y-122406565D01*
X192331385Y-122597834D01*
X192216363Y-122769976D01*
X192069976Y-122916363D01*
X191897834Y-123031385D01*
X191706565Y-123110611D01*
X191503516Y-123151000D01*
X191296484Y-123151000D01*
X191093435Y-123110611D01*
X190902166Y-123031385D01*
X190730024Y-122916363D01*
X190583637Y-122769976D01*
X190468615Y-122597834D01*
X190389389Y-122406565D01*
X190349000Y-122203516D01*
X190349000Y-121996484D01*
X190389389Y-121793435D01*
X190468615Y-121602166D01*
X190583637Y-121430024D01*
X190730024Y-121283637D01*
X190902166Y-121168615D01*
X191093435Y-121089389D01*
X191296484Y-121049000D01*
X191503516Y-121049000D01*
X191706565Y-121089389D01*
X191706565Y-121089389D01*
G37*
G36*
X191706565Y-117589389D02*
X191897834Y-117668615D01*
X192069976Y-117783637D01*
X192216363Y-117930024D01*
X192331385Y-118102166D01*
X192410611Y-118293435D01*
X192451000Y-118496484D01*
X192451000Y-118703516D01*
X192410611Y-118906565D01*
X192331385Y-119097834D01*
X192216363Y-119269976D01*
X192069976Y-119416363D01*
X191897834Y-119531385D01*
X191706565Y-119610611D01*
X191503516Y-119651000D01*
X191296484Y-119651000D01*
X191093435Y-119610611D01*
X190902166Y-119531385D01*
X190730024Y-119416363D01*
X190583637Y-119269976D01*
X190468615Y-119097834D01*
X190389389Y-118906565D01*
X190349000Y-118703516D01*
X190349000Y-118496484D01*
X190389389Y-118293435D01*
X190468615Y-118102166D01*
X190583637Y-117930024D01*
X190730024Y-117783637D01*
X190902166Y-117668615D01*
X191093435Y-117589389D01*
X191296484Y-117549000D01*
X191503516Y-117549000D01*
X191706565Y-117589389D01*
X191706565Y-117589389D01*
G37*
G36*
X126246442Y-117229518D02*
X126312627Y-117236037D01*
X126425853Y-117270384D01*
X126482467Y-117287557D01*
X126621087Y-117361652D01*
X126638991Y-117371222D01*
X126674729Y-117400552D01*
X126776186Y-117483814D01*
X126859448Y-117585271D01*
X126888778Y-117621009D01*
X126888779Y-117621011D01*
X126972443Y-117777533D01*
X126989616Y-117834147D01*
X127023963Y-117947373D01*
X127041359Y-118124000D01*
X127023963Y-118300627D01*
X126989616Y-118413853D01*
X126972443Y-118470467D01*
X126958536Y-118496484D01*
X126888778Y-118626991D01*
X126859448Y-118662729D01*
X126776186Y-118764186D01*
X126674729Y-118847448D01*
X126638991Y-118876778D01*
X126638989Y-118876779D01*
X126482467Y-118960443D01*
X126425853Y-118977616D01*
X126312627Y-119011963D01*
X126246442Y-119018482D01*
X126180260Y-119025000D01*
X126091740Y-119025000D01*
X126025558Y-119018482D01*
X125959373Y-119011963D01*
X125846147Y-118977616D01*
X125789533Y-118960443D01*
X125633011Y-118876779D01*
X125633009Y-118876778D01*
X125597271Y-118847448D01*
X125495814Y-118764186D01*
X125412552Y-118662729D01*
X125383222Y-118626991D01*
X125313464Y-118496484D01*
X125299557Y-118470467D01*
X125282384Y-118413853D01*
X125248037Y-118300627D01*
X125230641Y-118124000D01*
X125248037Y-117947373D01*
X125282384Y-117834147D01*
X125299557Y-117777533D01*
X125383221Y-117621011D01*
X125383222Y-117621009D01*
X125412552Y-117585271D01*
X125495814Y-117483814D01*
X125597271Y-117400552D01*
X125633009Y-117371222D01*
X125650913Y-117361652D01*
X125789533Y-117287557D01*
X125846147Y-117270384D01*
X125959373Y-117236037D01*
X126025558Y-117229518D01*
X126091740Y-117223000D01*
X126180260Y-117223000D01*
X126246442Y-117229518D01*
X126246442Y-117229518D01*
G37*
G36*
X126246443Y-114689519D02*
X126312627Y-114696037D01*
X126425853Y-114730384D01*
X126482467Y-114747557D01*
X126568297Y-114793435D01*
X126638991Y-114831222D01*
X126674729Y-114860552D01*
X126776186Y-114943814D01*
X126859448Y-115045271D01*
X126888778Y-115081009D01*
X126888779Y-115081011D01*
X126972443Y-115237533D01*
X126972443Y-115237534D01*
X127023963Y-115407373D01*
X127041359Y-115584000D01*
X127023963Y-115760627D01*
X126989616Y-115873853D01*
X126972443Y-115930467D01*
X126918501Y-116031384D01*
X126888778Y-116086991D01*
X126869394Y-116110610D01*
X126776186Y-116224186D01*
X126674729Y-116307448D01*
X126638991Y-116336778D01*
X126638989Y-116336779D01*
X126482467Y-116420443D01*
X126425853Y-116437616D01*
X126312627Y-116471963D01*
X126246443Y-116478481D01*
X126180260Y-116485000D01*
X126091740Y-116485000D01*
X126025557Y-116478481D01*
X125959373Y-116471963D01*
X125846147Y-116437616D01*
X125789533Y-116420443D01*
X125633011Y-116336779D01*
X125633009Y-116336778D01*
X125597271Y-116307448D01*
X125495814Y-116224186D01*
X125402606Y-116110610D01*
X125383222Y-116086991D01*
X125353499Y-116031384D01*
X125299557Y-115930467D01*
X125282384Y-115873853D01*
X125248037Y-115760627D01*
X125230641Y-115584000D01*
X125248037Y-115407373D01*
X125299557Y-115237534D01*
X125299557Y-115237533D01*
X125383221Y-115081011D01*
X125383222Y-115081009D01*
X125412552Y-115045271D01*
X125495814Y-114943814D01*
X125597271Y-114860552D01*
X125633009Y-114831222D01*
X125703703Y-114793435D01*
X125789533Y-114747557D01*
X125846147Y-114730384D01*
X125959373Y-114696037D01*
X126025557Y-114689519D01*
X126091740Y-114683000D01*
X126180260Y-114683000D01*
X126246443Y-114689519D01*
X126246443Y-114689519D01*
G37*
G36*
X191706565Y-114089389D02*
X191897834Y-114168615D01*
X192069976Y-114283637D01*
X192216363Y-114430024D01*
X192331385Y-114602166D01*
X192410611Y-114793435D01*
X192451000Y-114996484D01*
X192451000Y-115203516D01*
X192410611Y-115406565D01*
X192331385Y-115597834D01*
X192216363Y-115769976D01*
X192069976Y-115916363D01*
X191897834Y-116031385D01*
X191706565Y-116110611D01*
X191503516Y-116151000D01*
X191296484Y-116151000D01*
X191093435Y-116110611D01*
X190902166Y-116031385D01*
X190730024Y-115916363D01*
X190583637Y-115769976D01*
X190468615Y-115597834D01*
X190389389Y-115406565D01*
X190349000Y-115203516D01*
X190349000Y-114996484D01*
X190389389Y-114793435D01*
X190468615Y-114602166D01*
X190583637Y-114430024D01*
X190730024Y-114283637D01*
X190902166Y-114168615D01*
X191093435Y-114089389D01*
X191296484Y-114049000D01*
X191503516Y-114049000D01*
X191706565Y-114089389D01*
X191706565Y-114089389D01*
G37*
G36*
X126246443Y-112149519D02*
X126312627Y-112156037D01*
X126425853Y-112190384D01*
X126482467Y-112207557D01*
X126599237Y-112269973D01*
X126638991Y-112291222D01*
X126674729Y-112320552D01*
X126776186Y-112403814D01*
X126859448Y-112505271D01*
X126888778Y-112541009D01*
X126888779Y-112541011D01*
X126972443Y-112697533D01*
X126972443Y-112697534D01*
X127023963Y-112867373D01*
X127041359Y-113044000D01*
X127023963Y-113220627D01*
X126989616Y-113333853D01*
X126972443Y-113390467D01*
X126898348Y-113529087D01*
X126888778Y-113546991D01*
X126859448Y-113582729D01*
X126776186Y-113684186D01*
X126674729Y-113767448D01*
X126638991Y-113796778D01*
X126638989Y-113796779D01*
X126482467Y-113880443D01*
X126425853Y-113897616D01*
X126312627Y-113931963D01*
X126246442Y-113938482D01*
X126180260Y-113945000D01*
X126091740Y-113945000D01*
X126025558Y-113938482D01*
X125959373Y-113931963D01*
X125846147Y-113897616D01*
X125789533Y-113880443D01*
X125633011Y-113796779D01*
X125633009Y-113796778D01*
X125597271Y-113767448D01*
X125495814Y-113684186D01*
X125412552Y-113582729D01*
X125383222Y-113546991D01*
X125373652Y-113529087D01*
X125299557Y-113390467D01*
X125282384Y-113333853D01*
X125248037Y-113220627D01*
X125230641Y-113044000D01*
X125248037Y-112867373D01*
X125299557Y-112697534D01*
X125299557Y-112697533D01*
X125383221Y-112541011D01*
X125383222Y-112541009D01*
X125412552Y-112505271D01*
X125495814Y-112403814D01*
X125597271Y-112320552D01*
X125633009Y-112291222D01*
X125672763Y-112269973D01*
X125789533Y-112207557D01*
X125846147Y-112190384D01*
X125959373Y-112156037D01*
X126025557Y-112149519D01*
X126091740Y-112143000D01*
X126180260Y-112143000D01*
X126246443Y-112149519D01*
X126246443Y-112149519D01*
G37*
G36*
X191706565Y-110589389D02*
X191897834Y-110668615D01*
X192069976Y-110783637D01*
X192216363Y-110930024D01*
X192331385Y-111102166D01*
X192410611Y-111293435D01*
X192451000Y-111496484D01*
X192451000Y-111703516D01*
X192410611Y-111906565D01*
X192331385Y-112097834D01*
X192216363Y-112269976D01*
X192069976Y-112416363D01*
X191897834Y-112531385D01*
X191706565Y-112610611D01*
X191503516Y-112651000D01*
X191296484Y-112651000D01*
X191093435Y-112610611D01*
X190902166Y-112531385D01*
X190730024Y-112416363D01*
X190583637Y-112269976D01*
X190468615Y-112097834D01*
X190389389Y-111906565D01*
X190349000Y-111703516D01*
X190349000Y-111496484D01*
X190389389Y-111293435D01*
X190468615Y-111102166D01*
X190583637Y-110930024D01*
X190730024Y-110783637D01*
X190902166Y-110668615D01*
X191093435Y-110589389D01*
X191296484Y-110549000D01*
X191503516Y-110549000D01*
X191706565Y-110589389D01*
X191706565Y-110589389D01*
G37*
G36*
X141689956Y-111296758D02*
X141735783Y-111305873D01*
X141800535Y-111332694D01*
X141858810Y-111371632D01*
X141908368Y-111421190D01*
X141947306Y-111479465D01*
X141974127Y-111544217D01*
X141987800Y-111612957D01*
X141987800Y-111683043D01*
X141974127Y-111751783D01*
X141947306Y-111816535D01*
X141908368Y-111874810D01*
X141858810Y-111924368D01*
X141800535Y-111963306D01*
X141735783Y-111990127D01*
X141689956Y-111999242D01*
X141667044Y-112003800D01*
X141596956Y-112003800D01*
X141574044Y-111999242D01*
X141528217Y-111990127D01*
X141463465Y-111963306D01*
X141405190Y-111924368D01*
X141355632Y-111874810D01*
X141316694Y-111816535D01*
X141289873Y-111751783D01*
X141276200Y-111683043D01*
X141276200Y-111612957D01*
X141289873Y-111544217D01*
X141316694Y-111479465D01*
X141355632Y-111421190D01*
X141405190Y-111371632D01*
X141463465Y-111332694D01*
X141528217Y-111305873D01*
X141574044Y-111296758D01*
X141596956Y-111292200D01*
X141667044Y-111292200D01*
X141689956Y-111296758D01*
X141689956Y-111296758D01*
G37*
G36*
X126246442Y-109609518D02*
X126312627Y-109616037D01*
X126425853Y-109650384D01*
X126482467Y-109667557D01*
X126621087Y-109741652D01*
X126638991Y-109751222D01*
X126674729Y-109780552D01*
X126776186Y-109863814D01*
X126859448Y-109965271D01*
X126888778Y-110001009D01*
X126888779Y-110001011D01*
X126972443Y-110157533D01*
X126972443Y-110157534D01*
X127023963Y-110327373D01*
X127041359Y-110504000D01*
X127023963Y-110680627D01*
X126992716Y-110783635D01*
X126972443Y-110850467D01*
X126898348Y-110989087D01*
X126888778Y-111006991D01*
X126859448Y-111042729D01*
X126776186Y-111144186D01*
X126674729Y-111227448D01*
X126638991Y-111256778D01*
X126638989Y-111256779D01*
X126482467Y-111340443D01*
X126425853Y-111357616D01*
X126312627Y-111391963D01*
X126246443Y-111398481D01*
X126180260Y-111405000D01*
X126091740Y-111405000D01*
X126025557Y-111398481D01*
X125959373Y-111391963D01*
X125846147Y-111357616D01*
X125789533Y-111340443D01*
X125633011Y-111256779D01*
X125633009Y-111256778D01*
X125597271Y-111227448D01*
X125495814Y-111144186D01*
X125412552Y-111042729D01*
X125383222Y-111006991D01*
X125373652Y-110989087D01*
X125299557Y-110850467D01*
X125279284Y-110783635D01*
X125248037Y-110680627D01*
X125230641Y-110504000D01*
X125248037Y-110327373D01*
X125299557Y-110157534D01*
X125299557Y-110157533D01*
X125383221Y-110001011D01*
X125383222Y-110001009D01*
X125412552Y-109965271D01*
X125495814Y-109863814D01*
X125597271Y-109780552D01*
X125633009Y-109751222D01*
X125650913Y-109741652D01*
X125789533Y-109667557D01*
X125846147Y-109650384D01*
X125959373Y-109616037D01*
X126025558Y-109609518D01*
X126091740Y-109603000D01*
X126180260Y-109603000D01*
X126246442Y-109609518D01*
X126246442Y-109609518D01*
G37*
G36*
X191706565Y-107089389D02*
X191897834Y-107168615D01*
X192069976Y-107283637D01*
X192216363Y-107430024D01*
X192331385Y-107602166D01*
X192410611Y-107793435D01*
X192451000Y-107996484D01*
X192451000Y-108203516D01*
X192410611Y-108406565D01*
X192331385Y-108597834D01*
X192216363Y-108769976D01*
X192069976Y-108916363D01*
X191897834Y-109031385D01*
X191706565Y-109110611D01*
X191503516Y-109151000D01*
X191296484Y-109151000D01*
X191093435Y-109110611D01*
X190902166Y-109031385D01*
X190730024Y-108916363D01*
X190583637Y-108769976D01*
X190468615Y-108597834D01*
X190389389Y-108406565D01*
X190349000Y-108203516D01*
X190349000Y-107996484D01*
X190389389Y-107793435D01*
X190468615Y-107602166D01*
X190583637Y-107430024D01*
X190730024Y-107283637D01*
X190902166Y-107168615D01*
X191093435Y-107089389D01*
X191296484Y-107049000D01*
X191503516Y-107049000D01*
X191706565Y-107089389D01*
X191706565Y-107089389D01*
G37*
G36*
X126246442Y-107069518D02*
X126312627Y-107076037D01*
X126425853Y-107110384D01*
X126482467Y-107127557D01*
X126621087Y-107201652D01*
X126638991Y-107211222D01*
X126674729Y-107240552D01*
X126776186Y-107323814D01*
X126859448Y-107425271D01*
X126888778Y-107461009D01*
X126888779Y-107461011D01*
X126972443Y-107617533D01*
X126972443Y-107617534D01*
X127023963Y-107787373D01*
X127041359Y-107964000D01*
X127023963Y-108140627D01*
X127004886Y-108203514D01*
X126972443Y-108310467D01*
X126921077Y-108406565D01*
X126888778Y-108466991D01*
X126859448Y-108502729D01*
X126776186Y-108604186D01*
X126674729Y-108687448D01*
X126638991Y-108716778D01*
X126638989Y-108716779D01*
X126482467Y-108800443D01*
X126425853Y-108817616D01*
X126312627Y-108851963D01*
X126246443Y-108858481D01*
X126180260Y-108865000D01*
X126091740Y-108865000D01*
X126025557Y-108858481D01*
X125959373Y-108851963D01*
X125846147Y-108817616D01*
X125789533Y-108800443D01*
X125633011Y-108716779D01*
X125633009Y-108716778D01*
X125597271Y-108687448D01*
X125495814Y-108604186D01*
X125412552Y-108502729D01*
X125383222Y-108466991D01*
X125350923Y-108406565D01*
X125299557Y-108310467D01*
X125267114Y-108203514D01*
X125248037Y-108140627D01*
X125230641Y-107964000D01*
X125248037Y-107787373D01*
X125299557Y-107617534D01*
X125299557Y-107617533D01*
X125383221Y-107461011D01*
X125383222Y-107461009D01*
X125412552Y-107425271D01*
X125495814Y-107323814D01*
X125597271Y-107240552D01*
X125633009Y-107211222D01*
X125650913Y-107201652D01*
X125789533Y-107127557D01*
X125846147Y-107110384D01*
X125959373Y-107076037D01*
X126025558Y-107069518D01*
X126091740Y-107063000D01*
X126180260Y-107063000D01*
X126246442Y-107069518D01*
X126246442Y-107069518D01*
G37*
G36*
X127037000Y-106325000D02*
X125235000Y-106325000D01*
X125235000Y-104523000D01*
X127037000Y-104523000D01*
X127037000Y-106325000D01*
X127037000Y-106325000D01*
G37*
G36*
X162035443Y-94245519D02*
X162101627Y-94252037D01*
X162214853Y-94286384D01*
X162271467Y-94303557D01*
X162410087Y-94377652D01*
X162427991Y-94387222D01*
X162463729Y-94416552D01*
X162565186Y-94499814D01*
X162648448Y-94601271D01*
X162677778Y-94637009D01*
X162677779Y-94637011D01*
X162761443Y-94793533D01*
X162761443Y-94793534D01*
X162812963Y-94963373D01*
X162830359Y-95140000D01*
X162812963Y-95316627D01*
X162778616Y-95429853D01*
X162761443Y-95486467D01*
X162687348Y-95625087D01*
X162677778Y-95642991D01*
X162648448Y-95678729D01*
X162565186Y-95780186D01*
X162463729Y-95863448D01*
X162427991Y-95892778D01*
X162427989Y-95892779D01*
X162271467Y-95976443D01*
X162214853Y-95993616D01*
X162101627Y-96027963D01*
X162035442Y-96034482D01*
X161969260Y-96041000D01*
X161880740Y-96041000D01*
X161814558Y-96034482D01*
X161748373Y-96027963D01*
X161635147Y-95993616D01*
X161578533Y-95976443D01*
X161422011Y-95892779D01*
X161422009Y-95892778D01*
X161386271Y-95863448D01*
X161284814Y-95780186D01*
X161201552Y-95678729D01*
X161172222Y-95642991D01*
X161162652Y-95625087D01*
X161088557Y-95486467D01*
X161071384Y-95429853D01*
X161037037Y-95316627D01*
X161019641Y-95140000D01*
X161037037Y-94963373D01*
X161088557Y-94793534D01*
X161088557Y-94793533D01*
X161172221Y-94637011D01*
X161172222Y-94637009D01*
X161201552Y-94601271D01*
X161284814Y-94499814D01*
X161386271Y-94416552D01*
X161422009Y-94387222D01*
X161439913Y-94377652D01*
X161578533Y-94303557D01*
X161635147Y-94286384D01*
X161748373Y-94252037D01*
X161814557Y-94245519D01*
X161880740Y-94239000D01*
X161969260Y-94239000D01*
X162035443Y-94245519D01*
X162035443Y-94245519D01*
G37*
G36*
X164575443Y-94245519D02*
X164641627Y-94252037D01*
X164754853Y-94286384D01*
X164811467Y-94303557D01*
X164950087Y-94377652D01*
X164967991Y-94387222D01*
X165003729Y-94416552D01*
X165105186Y-94499814D01*
X165188448Y-94601271D01*
X165217778Y-94637009D01*
X165217779Y-94637011D01*
X165301443Y-94793533D01*
X165301443Y-94793534D01*
X165352963Y-94963373D01*
X165370359Y-95140000D01*
X165352963Y-95316627D01*
X165318616Y-95429853D01*
X165301443Y-95486467D01*
X165227348Y-95625087D01*
X165217778Y-95642991D01*
X165188448Y-95678729D01*
X165105186Y-95780186D01*
X165003729Y-95863448D01*
X164967991Y-95892778D01*
X164967989Y-95892779D01*
X164811467Y-95976443D01*
X164754853Y-95993616D01*
X164641627Y-96027963D01*
X164575442Y-96034482D01*
X164509260Y-96041000D01*
X164420740Y-96041000D01*
X164354558Y-96034482D01*
X164288373Y-96027963D01*
X164175147Y-95993616D01*
X164118533Y-95976443D01*
X163962011Y-95892779D01*
X163962009Y-95892778D01*
X163926271Y-95863448D01*
X163824814Y-95780186D01*
X163741552Y-95678729D01*
X163712222Y-95642991D01*
X163702652Y-95625087D01*
X163628557Y-95486467D01*
X163611384Y-95429853D01*
X163577037Y-95316627D01*
X163559641Y-95140000D01*
X163577037Y-94963373D01*
X163628557Y-94793534D01*
X163628557Y-94793533D01*
X163712221Y-94637011D01*
X163712222Y-94637009D01*
X163741552Y-94601271D01*
X163824814Y-94499814D01*
X163926271Y-94416552D01*
X163962009Y-94387222D01*
X163979913Y-94377652D01*
X164118533Y-94303557D01*
X164175147Y-94286384D01*
X164288373Y-94252037D01*
X164354557Y-94245519D01*
X164420740Y-94239000D01*
X164509260Y-94239000D01*
X164575443Y-94245519D01*
X164575443Y-94245519D01*
G37*
G36*
X192106565Y-92489389D02*
X192297834Y-92568615D01*
X192469976Y-92683637D01*
X192616363Y-92830024D01*
X192731385Y-93002166D01*
X192810611Y-93193435D01*
X192851000Y-93396484D01*
X192851000Y-93603516D01*
X192810611Y-93806565D01*
X192731385Y-93997834D01*
X192616363Y-94169976D01*
X192469976Y-94316363D01*
X192297834Y-94431385D01*
X192106565Y-94510611D01*
X191903516Y-94551000D01*
X191696484Y-94551000D01*
X191493435Y-94510611D01*
X191302166Y-94431385D01*
X191130024Y-94316363D01*
X190983637Y-94169976D01*
X190868615Y-93997834D01*
X190789389Y-93806565D01*
X190749000Y-93603516D01*
X190749000Y-93396484D01*
X190789389Y-93193435D01*
X190868615Y-93002166D01*
X190983637Y-92830024D01*
X191130024Y-92683637D01*
X191302166Y-92568615D01*
X191493435Y-92489389D01*
X191696484Y-92449000D01*
X191903516Y-92449000D01*
X192106565Y-92489389D01*
X192106565Y-92489389D01*
G37*
G36*
X162035442Y-91705518D02*
X162101627Y-91712037D01*
X162214853Y-91746384D01*
X162271467Y-91763557D01*
X162410087Y-91837652D01*
X162427991Y-91847222D01*
X162463729Y-91876552D01*
X162565186Y-91959814D01*
X162648448Y-92061271D01*
X162677778Y-92097009D01*
X162677779Y-92097011D01*
X162761443Y-92253533D01*
X162761443Y-92253534D01*
X162812963Y-92423373D01*
X162830359Y-92600000D01*
X162812963Y-92776627D01*
X162796765Y-92830024D01*
X162761443Y-92946467D01*
X162731671Y-93002165D01*
X162677778Y-93102991D01*
X162648448Y-93138729D01*
X162565186Y-93240186D01*
X162463729Y-93323448D01*
X162427991Y-93352778D01*
X162427989Y-93352779D01*
X162271467Y-93436443D01*
X162214853Y-93453616D01*
X162101627Y-93487963D01*
X162035442Y-93494482D01*
X161969260Y-93501000D01*
X161880740Y-93501000D01*
X161814557Y-93494481D01*
X161748373Y-93487963D01*
X161635147Y-93453616D01*
X161578533Y-93436443D01*
X161422011Y-93352779D01*
X161422009Y-93352778D01*
X161386271Y-93323448D01*
X161284814Y-93240186D01*
X161201552Y-93138729D01*
X161172222Y-93102991D01*
X161118329Y-93002165D01*
X161088557Y-92946467D01*
X161053235Y-92830024D01*
X161037037Y-92776627D01*
X161019641Y-92600000D01*
X161037037Y-92423373D01*
X161088557Y-92253534D01*
X161088557Y-92253533D01*
X161172221Y-92097011D01*
X161172222Y-92097009D01*
X161201552Y-92061271D01*
X161284814Y-91959814D01*
X161386271Y-91876552D01*
X161422009Y-91847222D01*
X161439913Y-91837652D01*
X161578533Y-91763557D01*
X161635147Y-91746384D01*
X161748373Y-91712037D01*
X161814558Y-91705518D01*
X161880740Y-91699000D01*
X161969260Y-91699000D01*
X162035442Y-91705518D01*
X162035442Y-91705518D01*
G37*
G36*
X164575442Y-91705518D02*
X164641627Y-91712037D01*
X164754853Y-91746384D01*
X164811467Y-91763557D01*
X164950087Y-91837652D01*
X164967991Y-91847222D01*
X165003729Y-91876552D01*
X165105186Y-91959814D01*
X165188448Y-92061271D01*
X165217778Y-92097009D01*
X165217779Y-92097011D01*
X165301443Y-92253533D01*
X165301443Y-92253534D01*
X165352963Y-92423373D01*
X165370359Y-92600000D01*
X165352963Y-92776627D01*
X165336765Y-92830024D01*
X165301443Y-92946467D01*
X165271671Y-93002165D01*
X165217778Y-93102991D01*
X165188448Y-93138729D01*
X165105186Y-93240186D01*
X165003729Y-93323448D01*
X164967991Y-93352778D01*
X164967989Y-93352779D01*
X164811467Y-93436443D01*
X164754853Y-93453616D01*
X164641627Y-93487963D01*
X164575442Y-93494482D01*
X164509260Y-93501000D01*
X164420740Y-93501000D01*
X164354557Y-93494481D01*
X164288373Y-93487963D01*
X164175147Y-93453616D01*
X164118533Y-93436443D01*
X163962011Y-93352779D01*
X163962009Y-93352778D01*
X163926271Y-93323448D01*
X163824814Y-93240186D01*
X163741552Y-93138729D01*
X163712222Y-93102991D01*
X163658329Y-93002165D01*
X163628557Y-92946467D01*
X163593235Y-92830024D01*
X163577037Y-92776627D01*
X163559641Y-92600000D01*
X163577037Y-92423373D01*
X163628557Y-92253534D01*
X163628557Y-92253533D01*
X163712221Y-92097011D01*
X163712222Y-92097009D01*
X163741552Y-92061271D01*
X163824814Y-91959814D01*
X163926271Y-91876552D01*
X163962009Y-91847222D01*
X163979913Y-91837652D01*
X164118533Y-91763557D01*
X164175147Y-91746384D01*
X164288373Y-91712037D01*
X164354558Y-91705518D01*
X164420740Y-91699000D01*
X164509260Y-91699000D01*
X164575442Y-91705518D01*
X164575442Y-91705518D01*
G37*
G36*
X192106565Y-88989389D02*
X192297834Y-89068615D01*
X192469976Y-89183637D01*
X192616363Y-89330024D01*
X192731385Y-89502166D01*
X192810611Y-89693435D01*
X192851000Y-89896484D01*
X192851000Y-90103516D01*
X192810611Y-90306565D01*
X192731385Y-90497834D01*
X192616363Y-90669976D01*
X192469976Y-90816363D01*
X192297834Y-90931385D01*
X192106565Y-91010611D01*
X191903516Y-91051000D01*
X191696484Y-91051000D01*
X191493435Y-91010611D01*
X191302166Y-90931385D01*
X191130024Y-90816363D01*
X190983637Y-90669976D01*
X190868615Y-90497834D01*
X190789389Y-90306565D01*
X190749000Y-90103516D01*
X190749000Y-89896484D01*
X190789389Y-89693435D01*
X190868615Y-89502166D01*
X190983637Y-89330024D01*
X191130024Y-89183637D01*
X191302166Y-89068615D01*
X191493435Y-88989389D01*
X191696484Y-88949000D01*
X191903516Y-88949000D01*
X192106565Y-88989389D01*
X192106565Y-88989389D01*
G37*
G36*
X162826000Y-90961000D02*
X161024000Y-90961000D01*
X161024000Y-89159000D01*
X162826000Y-89159000D01*
X162826000Y-90961000D01*
X162826000Y-90961000D01*
G37*
G36*
X164575442Y-89165518D02*
X164641627Y-89172037D01*
X164737105Y-89201000D01*
X164811467Y-89223557D01*
X164950087Y-89297652D01*
X164967991Y-89307222D01*
X164995775Y-89330024D01*
X165105186Y-89419814D01*
X165188448Y-89521271D01*
X165217778Y-89557009D01*
X165217779Y-89557011D01*
X165301443Y-89713533D01*
X165301443Y-89713534D01*
X165352963Y-89883373D01*
X165370359Y-90060000D01*
X165352963Y-90236627D01*
X165318616Y-90349853D01*
X165301443Y-90406467D01*
X165252605Y-90497835D01*
X165217778Y-90562991D01*
X165188448Y-90598729D01*
X165105186Y-90700186D01*
X165003729Y-90783448D01*
X164967991Y-90812778D01*
X164967989Y-90812779D01*
X164811467Y-90896443D01*
X164754853Y-90913616D01*
X164641627Y-90947963D01*
X164575443Y-90954481D01*
X164509260Y-90961000D01*
X164420740Y-90961000D01*
X164354558Y-90954482D01*
X164288373Y-90947963D01*
X164175147Y-90913616D01*
X164118533Y-90896443D01*
X163962011Y-90812779D01*
X163962009Y-90812778D01*
X163926271Y-90783448D01*
X163824814Y-90700186D01*
X163741552Y-90598729D01*
X163712222Y-90562991D01*
X163677395Y-90497835D01*
X163628557Y-90406467D01*
X163611384Y-90349853D01*
X163577037Y-90236627D01*
X163559641Y-90060000D01*
X163577037Y-89883373D01*
X163628557Y-89713534D01*
X163628557Y-89713533D01*
X163712221Y-89557011D01*
X163712222Y-89557009D01*
X163741552Y-89521271D01*
X163824814Y-89419814D01*
X163934225Y-89330024D01*
X163962009Y-89307222D01*
X163979913Y-89297652D01*
X164118533Y-89223557D01*
X164192895Y-89201000D01*
X164288373Y-89172037D01*
X164354558Y-89165518D01*
X164420740Y-89159000D01*
X164509260Y-89159000D01*
X164575442Y-89165518D01*
X164575442Y-89165518D01*
G37*
G36*
X127306565Y-87139389D02*
X127497834Y-87218615D01*
X127669976Y-87333637D01*
X127816363Y-87480024D01*
X127931385Y-87652166D01*
X128010611Y-87843435D01*
X128051000Y-88046484D01*
X128051000Y-88253516D01*
X128010611Y-88456565D01*
X127931385Y-88647834D01*
X127816363Y-88819976D01*
X127669976Y-88966363D01*
X127497834Y-89081385D01*
X127306565Y-89160611D01*
X127103516Y-89201000D01*
X126896484Y-89201000D01*
X126693435Y-89160611D01*
X126502166Y-89081385D01*
X126330024Y-88966363D01*
X126183637Y-88819976D01*
X126068615Y-88647834D01*
X125989389Y-88456565D01*
X125949000Y-88253516D01*
X125949000Y-88046484D01*
X125989389Y-87843435D01*
X126068615Y-87652166D01*
X126183637Y-87480024D01*
X126330024Y-87333637D01*
X126502166Y-87218615D01*
X126693435Y-87139389D01*
X126896484Y-87099000D01*
X127103516Y-87099000D01*
X127306565Y-87139389D01*
X127306565Y-87139389D01*
G37*
G36*
X192106565Y-85489389D02*
X192297834Y-85568615D01*
X192469976Y-85683637D01*
X192616363Y-85830024D01*
X192731385Y-86002166D01*
X192810611Y-86193435D01*
X192851000Y-86396484D01*
X192851000Y-86603516D01*
X192810611Y-86806565D01*
X192731385Y-86997834D01*
X192616363Y-87169976D01*
X192469976Y-87316363D01*
X192297834Y-87431385D01*
X192106565Y-87510611D01*
X191903516Y-87551000D01*
X191696484Y-87551000D01*
X191493435Y-87510611D01*
X191302166Y-87431385D01*
X191130024Y-87316363D01*
X190983637Y-87169976D01*
X190868615Y-86997834D01*
X190789389Y-86806565D01*
X190749000Y-86603516D01*
X190749000Y-86396484D01*
X190789389Y-86193435D01*
X190868615Y-86002166D01*
X190983637Y-85830024D01*
X191130024Y-85683637D01*
X191302166Y-85568615D01*
X191493435Y-85489389D01*
X191696484Y-85449000D01*
X191903516Y-85449000D01*
X192106565Y-85489389D01*
X192106565Y-85489389D01*
G37*
G36*
X127306565Y-83639389D02*
X127497834Y-83718615D01*
X127669976Y-83833637D01*
X127816363Y-83980024D01*
X127931385Y-84152166D01*
X128010611Y-84343435D01*
X128051000Y-84546484D01*
X128051000Y-84753516D01*
X128010611Y-84956565D01*
X127931385Y-85147834D01*
X127816363Y-85319976D01*
X127669976Y-85466363D01*
X127497834Y-85581385D01*
X127306565Y-85660611D01*
X127103516Y-85701000D01*
X126896484Y-85701000D01*
X126693435Y-85660611D01*
X126502166Y-85581385D01*
X126330024Y-85466363D01*
X126183637Y-85319976D01*
X126068615Y-85147834D01*
X125989389Y-84956565D01*
X125949000Y-84753516D01*
X125949000Y-84546484D01*
X125989389Y-84343435D01*
X126068615Y-84152166D01*
X126183637Y-83980024D01*
X126330024Y-83833637D01*
X126502166Y-83718615D01*
X126693435Y-83639389D01*
X126896484Y-83599000D01*
X127103516Y-83599000D01*
X127306565Y-83639389D01*
X127306565Y-83639389D01*
G37*
G36*
X192106565Y-81989389D02*
X192297834Y-82068615D01*
X192469976Y-82183637D01*
X192616363Y-82330024D01*
X192731385Y-82502166D01*
X192810611Y-82693435D01*
X192851000Y-82896484D01*
X192851000Y-83103516D01*
X192810611Y-83306565D01*
X192731385Y-83497834D01*
X192616363Y-83669976D01*
X192469976Y-83816363D01*
X192297834Y-83931385D01*
X192106565Y-84010611D01*
X191903516Y-84051000D01*
X191696484Y-84051000D01*
X191493435Y-84010611D01*
X191302166Y-83931385D01*
X191130024Y-83816363D01*
X190983637Y-83669976D01*
X190868615Y-83497834D01*
X190789389Y-83306565D01*
X190749000Y-83103516D01*
X190749000Y-82896484D01*
X190789389Y-82693435D01*
X190868615Y-82502166D01*
X190983637Y-82330024D01*
X191130024Y-82183637D01*
X191302166Y-82068615D01*
X191493435Y-81989389D01*
X191696484Y-81949000D01*
X191903516Y-81949000D01*
X192106565Y-81989389D01*
X192106565Y-81989389D01*
G37*
G36*
X192106565Y-78489389D02*
X192297834Y-78568615D01*
X192469976Y-78683637D01*
X192616363Y-78830024D01*
X192731385Y-79002166D01*
X192810611Y-79193435D01*
X192851000Y-79396484D01*
X192851000Y-79603516D01*
X192810611Y-79806565D01*
X192731385Y-79997834D01*
X192616363Y-80169976D01*
X192469976Y-80316363D01*
X192297834Y-80431385D01*
X192106565Y-80510611D01*
X191903516Y-80551000D01*
X191696484Y-80551000D01*
X191493435Y-80510611D01*
X191302166Y-80431385D01*
X191130024Y-80316363D01*
X190983637Y-80169976D01*
X190868615Y-79997834D01*
X190789389Y-79806565D01*
X190749000Y-79603516D01*
X190749000Y-79396484D01*
X190789389Y-79193435D01*
X190868615Y-79002166D01*
X190983637Y-78830024D01*
X191130024Y-78683637D01*
X191302166Y-78568615D01*
X191493435Y-78489389D01*
X191696484Y-78449000D01*
X191903516Y-78449000D01*
X192106565Y-78489389D01*
X192106565Y-78489389D01*
G37*
G36*
X192106565Y-74989389D02*
X192297834Y-75068615D01*
X192469976Y-75183637D01*
X192616363Y-75330024D01*
X192731385Y-75502166D01*
X192810611Y-75693435D01*
X192851000Y-75896484D01*
X192851000Y-76103516D01*
X192810611Y-76306565D01*
X192731385Y-76497834D01*
X192616363Y-76669976D01*
X192469976Y-76816363D01*
X192297834Y-76931385D01*
X192106565Y-77010611D01*
X191903516Y-77051000D01*
X191696484Y-77051000D01*
X191493435Y-77010611D01*
X191302166Y-76931385D01*
X191130024Y-76816363D01*
X190983637Y-76669976D01*
X190868615Y-76497834D01*
X190789389Y-76306565D01*
X190749000Y-76103516D01*
X190749000Y-75896484D01*
X190789389Y-75693435D01*
X190868615Y-75502166D01*
X190983637Y-75330024D01*
X191130024Y-75183637D01*
X191302166Y-75068615D01*
X191493435Y-74989389D01*
X191696484Y-74949000D01*
X191903516Y-74949000D01*
X192106565Y-74989389D01*
X192106565Y-74989389D01*
G37*
G36*
X192106565Y-71489389D02*
X192297834Y-71568615D01*
X192469976Y-71683637D01*
X192616363Y-71830024D01*
X192731385Y-72002166D01*
X192810611Y-72193435D01*
X192851000Y-72396484D01*
X192851000Y-72603516D01*
X192810611Y-72806565D01*
X192731385Y-72997834D01*
X192616363Y-73169976D01*
X192469976Y-73316363D01*
X192297834Y-73431385D01*
X192106565Y-73510611D01*
X191903516Y-73551000D01*
X191696484Y-73551000D01*
X191493435Y-73510611D01*
X191302166Y-73431385D01*
X191130024Y-73316363D01*
X190983637Y-73169976D01*
X190868615Y-72997834D01*
X190789389Y-72806565D01*
X190749000Y-72603516D01*
X190749000Y-72396484D01*
X190789389Y-72193435D01*
X190868615Y-72002166D01*
X190983637Y-71830024D01*
X191130024Y-71683637D01*
X191302166Y-71568615D01*
X191493435Y-71489389D01*
X191696484Y-71449000D01*
X191903516Y-71449000D01*
X192106565Y-71489389D01*
X192106565Y-71489389D01*
G37*
G36*
X192106565Y-67989389D02*
X192297834Y-68068615D01*
X192469976Y-68183637D01*
X192616363Y-68330024D01*
X192731385Y-68502166D01*
X192810611Y-68693435D01*
X192851000Y-68896484D01*
X192851000Y-69103516D01*
X192810611Y-69306565D01*
X192731385Y-69497834D01*
X192616363Y-69669976D01*
X192469976Y-69816363D01*
X192297834Y-69931385D01*
X192106565Y-70010611D01*
X191903516Y-70051000D01*
X191696484Y-70051000D01*
X191493435Y-70010611D01*
X191302166Y-69931385D01*
X191130024Y-69816363D01*
X190983637Y-69669976D01*
X190868615Y-69497834D01*
X190789389Y-69306565D01*
X190749000Y-69103516D01*
X190749000Y-68896484D01*
X190789389Y-68693435D01*
X190868615Y-68502166D01*
X190983637Y-68330024D01*
X191130024Y-68183637D01*
X191302166Y-68068615D01*
X191493435Y-67989389D01*
X191696484Y-67949000D01*
X191903516Y-67949000D01*
X192106565Y-67989389D01*
X192106565Y-67989389D01*
G37*
M02*
